<svg width="48" height="48" viewBox="0 0 48 48" fill="none" xmlns="http://www.w3.org/2000/svg">
<g clip-path="url(#clip0_240_283)">
<rect width="48" height="48" rx="12" fill="white"/>
<mask id="mask0_240_283" style="mask-type:luminance" maskUnits="userSpaceOnUse" x="0" y="0" width="48" height="48">
<path d="M48 0H0V48H48V0Z" fill="white"/>
</mask>
<g mask="url(#mask0_240_283)">
<path d="M24 48C37.2548 48 48 37.2548 48 24C48 10.7452 37.2548 0 24 0C10.7452 0 0 10.7452 0 24C0 37.2548 10.7452 48 24 48Z" fill="white"/>
<path fill-rule="evenodd" clip-rule="evenodd" d="M40.1281 15.7441L30.9384 33.7105H22.3067L26.1526 26.2645H25.98C22.8072 30.3836 18.0733 33.0953 11.3281 33.7105V26.3676C11.3281 26.3676 15.6431 26.1127 18.1798 23.4455H11.3281V15.7442H19.0287V22.0784L19.2016 22.0777L22.3483 15.7442H28.1721V22.0383L28.3448 22.038L31.6097 15.7441H40.1281Z" fill="#146EF5"/>
</g>
</g>
<defs>
<clipPath id="clip0_240_283">
<rect width="48" height="48" rx="12" fill="white"/>
</clipPath>
</defs>
</svg>
