<svg width="20" height="20" viewBox="0 0 20 20" fill="none" xmlns="http://www.w3.org/2000/svg">
<g clip-path="url(#clip0_15389_28138)">
<path d="M19.1426 0.466816C18.5638 -0.112082 17.6491 -0.158133 17.015 0.359832L11.4189 4.93106H1.95491C1.09236 4.93106 0.390625 5.6326 0.390625 6.49492V15.9232C0.390625 16.7855 1.09236 17.4871 1.95491 17.4871H6.40064V18.8282H5.41525C5.09168 18.8282 4.82936 19.0905 4.82936 19.4141C4.82936 19.7377 5.09168 20 5.41525 20H11.6848C12.0083 20 12.2707 19.7377 12.2707 19.4141C12.2707 19.0905 12.0083 18.8282 11.6848 18.8282H10.6994V17.4871H15.1451C16.0077 17.4871 16.7094 16.7855 16.7094 15.9232V5.70725L19.2501 2.59379C19.7675 1.95982 19.7213 1.0454 19.1426 0.466816ZM11.0414 7.27606C11.0594 6.923 11.2203 6.60561 11.4951 6.3818L12.4699 5.5855L14.0263 7.14189L13.2282 8.11998C13.0047 8.3932 12.6874 8.55338 12.3349 8.57096C11.982 8.58877 11.6507 8.46081 11.4011 8.21122C11.1511 7.96124 11.0233 7.62912 11.0414 7.27606ZM10.5709 11.0563C10.3113 11.3159 9.87887 11.4354 9.28579 11.4117C8.8363 11.3936 8.45133 11.4252 8.12515 11.484C8.18389 11.1578 8.21549 10.7726 8.19744 10.3233C8.17362 9.7302 8.29318 9.29785 8.55281 9.03822C8.82232 8.76871 9.18069 8.62025 9.56186 8.62025C9.94304 8.62025 10.3014 8.76867 10.5709 9.03822C11.1273 9.59462 11.1273 10.4999 10.5709 11.0563ZM9.52761 18.8282H7.57242V17.4871H9.52761V18.8282ZM15.5377 15.9232C15.5377 16.1394 15.3616 16.3153 15.1451 16.3153H1.95491C1.73848 16.3153 1.5624 16.1394 1.5624 15.9232V15.4233H15.5377V15.9232ZM15.5377 14.2515H1.5624V6.49492C1.5624 6.27872 1.73848 6.10284 1.95491 6.10284H10.2112C10.0107 6.43754 9.89141 6.81934 9.87114 7.21634C9.86684 7.30032 9.86707 7.3841 9.87157 7.46734C9.7695 7.4553 9.66623 7.44843 9.5619 7.44843C8.86774 7.44843 8.2151 7.71876 7.72428 8.20962C7.22385 8.71001 6.98918 9.43698 7.02668 10.3703C7.0766 11.6127 6.66472 12.1113 6.63261 12.1482C6.41337 12.3777 6.41654 12.7414 6.6421 12.967C6.75651 13.0814 6.90646 13.1387 7.05641 13.1387C7.2021 13.1387 7.34783 13.0846 7.4609 12.9766C7.49758 12.9447 7.99637 12.5327 9.23881 12.5825C10.1724 12.6201 10.8991 12.3853 11.3996 11.8849C11.9842 11.3002 12.2308 10.504 12.1407 9.74027C12.185 9.74273 12.2294 9.7443 12.274 9.7443C12.3137 9.7443 12.3535 9.74332 12.3934 9.74133C13.0709 9.7075 13.7057 9.38698 14.1357 8.8614L15.5377 7.14326V14.2515H15.5377ZM7.47063 12.9671C7.47063 12.9671 7.46774 12.9703 7.46157 12.976C7.46461 12.9731 7.46762 12.9701 7.47063 12.9671ZM6.64207 12.1385C6.63906 12.1415 6.63613 12.1445 6.6332 12.1475C6.63886 12.1414 6.64207 12.1385 6.64207 12.1385ZM18.3422 1.85299L14.7709 6.22943L13.3819 4.84052L17.7562 1.26734C17.8335 1.20418 17.9268 1.17301 18.0197 1.17301C18.1265 1.17301 18.2328 1.21422 18.314 1.29538C18.4657 1.44709 18.4779 1.68679 18.3422 1.85299Z" fill="#0099F6"/>
</g>
<defs>
<clipPath id="clip0_15389_28138">
<rect width="20" height="20" fill="white"/>
</clipPath>
</defs>
</svg>
