<svg width="20" height="20" viewBox="0 0 20 20" fill="none" xmlns="http://www.w3.org/2000/svg">
<g clip-path="url(#clip0_13523_136222)">
<path d="M18.2422 11.7972H16.3678C16.8449 11.0486 16.637 10.049 15.8948 9.55428C15.1373 9.04922 14.1153 9.2578 13.6162 10.0191L12.8906 11.1258V8.92776L18.0664 6.08169C19.0094 5.56319 19.0095 4.20455 18.0664 3.68591L11.6743 0.171197C10.7637 -0.329749 9.64843 0.328515 9.64843 1.36916V4.14138H2.48077C1.11282 4.14123 0 5.25405 0 6.622V14.5508C0 15.9186 1.11282 17.0314 2.48077 17.0314H7.65625V19.4141C7.65625 19.7377 7.91855 20 8.24219 20H11.7578C12.0814 20 12.3437 19.7377 12.3437 19.4141V19.0709L13.1013 19.8283C13.2112 19.9382 13.3603 20 13.5156 20H16.6797C18.5104 20 20 18.5106 20 16.6798V13.555C20 12.5857 19.2114 11.7972 18.2422 11.7972ZM6.44531 8.78951C7.44186 8.78951 8.24219 9.60204 8.24219 10.5864C8.24219 11.5771 7.43606 12.3831 6.44531 12.3831C5.45456 12.3831 4.64844 11.5771 4.64844 10.5864C4.64844 9.59563 5.45456 8.78951 6.44531 8.78951ZM9.35577 10.0004H11.7187V11.7972H9.15481C9.4133 11.2213 9.47494 10.5937 9.35577 10.0004ZM11.1098 1.19796L17.5017 4.71267C17.6363 4.78683 17.6378 4.98016 17.5017 5.05492L12.8906 7.59048V6.622C12.8906 5.39397 11.9934 4.37209 10.8203 4.17587V1.36916C10.8203 1.21993 10.9792 1.12609 11.1098 1.19796ZM2.48077 5.3131H10.4098C11.1316 5.3131 11.7187 5.90026 11.7187 6.622V8.82857H8.83575C8.29483 8.09478 7.42477 7.61764 6.44531 7.61764C5.4657 7.61764 4.59579 8.09478 4.05472 8.82857H1.17187V6.622C1.17187 5.90026 1.75903 5.3131 2.48077 5.3131ZM2.48077 15.8595C1.75903 15.8595 1.17187 15.2724 1.17187 14.5508V10.0004H3.53485C3.06091 12.3587 5.45914 14.2815 7.65625 13.2957V15.8595H2.48077ZM11.1719 18.8281H8.82812V12.969H11.1719V18.8281ZM18.8281 16.6798C18.8281 17.8645 17.8644 18.8283 16.6797 18.8283H13.7584L12.758 17.8281C12.6482 17.7182 12.4991 17.6564 12.3437 17.6564V13.555C12.597 13.555 12.7666 13.4524 12.8729 13.2902L14.5961 10.6616C14.738 10.4454 15.0287 10.3851 15.2447 10.5293C15.4587 10.6718 15.5167 10.9619 15.3741 11.1758L14.7859 12.0581C14.5264 12.4473 14.8067 12.969 15.2734 12.969H18.2422C18.5652 12.969 18.8281 13.232 18.8281 13.555V16.6798Z" fill="#0A32C3"/>
<path d="M10.5859 7.07129C10.5859 7.39478 10.3236 7.65723 10 7.65723C9.67636 7.65723 9.41406 7.39478 9.41406 7.07129C9.41406 6.74765 9.67636 6.48535 10 6.48535C10.3236 6.48535 10.5859 6.74765 10.5859 7.07129Z" fill="#0A32C3"/>
</g>
<defs>
<clipPath id="clip0_13523_136222">
<rect width="20" height="20" fill="white"/>
</clipPath>
</defs>
</svg>
