<svg width="20" height="20" viewBox="0 0 20 20" fill="none" xmlns="http://www.w3.org/2000/svg">
<g clip-path="url(#clip0_13523_136242)">
<mask id="mask0_13523_136242" style="mask-type:luminance" maskUnits="userSpaceOnUse" x="0" y="0" width="20" height="20">
<path d="M0 1.90735e-06H20V20H0V1.90735e-06Z" fill="white"/>
</mask>
<g mask="url(#mask0_13523_136242)">
<path d="M17.8517 19.4141H2.14832C1.28543 19.4141 0.585938 18.7146 0.585938 17.8517V2.14832C0.585938 1.28543 1.28543 0.585939 2.14832 0.585939H17.8517C18.7146 0.585939 19.4141 1.28543 19.4141 2.14836V17.8517C19.4141 18.7146 18.7146 19.4141 17.8517 19.4141Z" stroke="#0099F6" stroke-width="1.3" stroke-miterlimit="10" stroke-linecap="round" stroke-linejoin="round"/>
<path d="M0.585938 5.3125H19.375" stroke="#0099F6" stroke-width="1.3" stroke-miterlimit="10" stroke-linecap="round" stroke-linejoin="round"/>
<path d="M17.6172 2.96875C17.6172 3.29234 17.3548 3.55469 17.0312 3.55469C16.7077 3.55469 16.4453 3.29234 16.4453 2.96875C16.4453 2.64516 16.7077 2.38281 17.0312 2.38281C17.3548 2.38281 17.6172 2.64516 17.6172 2.96875Z" fill="#0099F6"/>
<path d="M15.2734 2.96875C15.2734 3.29234 15.0111 3.55469 14.6875 3.55469C14.3639 3.55469 14.1016 3.29234 14.1016 2.96875C14.1016 2.64516 14.3639 2.38281 14.6875 2.38281C15.0111 2.38281 15.2734 2.64516 15.2734 2.96875Z" fill="#0099F6"/>
<path d="M12.9297 2.96875C12.9297 3.29234 12.6673 3.55469 12.3438 3.55469C12.0202 3.55469 11.7578 3.29234 11.7578 2.96875C11.7578 2.64516 12.0202 2.38281 12.3438 2.38281C12.6673 2.38281 12.9297 2.64516 12.9297 2.96875Z" fill="#0099F6"/>
<path d="M6.48438 8.82812H13.5156" stroke="#0099F6" stroke-width="1.3" stroke-miterlimit="10" stroke-linecap="round" stroke-linejoin="round"/>
<path d="M4.14062 11.1719H15.8594" stroke="#0099F6" stroke-width="1.3" stroke-miterlimit="10" stroke-linecap="round" stroke-linejoin="round"/>
<path d="M7.07031 14.6875C7.07031 15.3347 7.595 15.8594 8.24219 15.8594H11.7578C12.405 15.8594 12.9297 15.3347 12.9297 14.6875C12.9297 14.0403 12.405 13.5156 11.7578 13.5156H8.24219C7.595 13.5156 7.07031 14.0403 7.07031 14.6875Z" stroke="#0099F6" stroke-width="1.3" stroke-miterlimit="10" stroke-linecap="round" stroke-linejoin="round"/>
</g>
</g>
<defs>
<clipPath id="clip0_13523_136242">
<rect width="20" height="20" fill="white"/>
</clipPath>
</defs>
</svg>
