<svg width="153" height="32" viewBox="0 0 153 32" fill="none" xmlns="http://www.w3.org/2000/svg">
<g clip-path="url(#clip0_30635_97)">
<path d="M11.9478 8.23877V10.9718H7.78202V22.9121H4.57138V10.9718H0.458618V8.23877H11.9478Z" fill="#003057"/>
<path d="M14.2032 22.9121V8.23877H23.9411V10.8126H17.4403V14.4212H23.0921V16.995H17.4403V20.3383H23.9411V22.9121H14.2032Z" fill="#003057"/>
<path d="M28.8235 22.9121H25.0026V22.4875L30.2563 15.1642L25.4802 8.63678V8.23877H29.2745L32.1137 12.5904L34.9528 8.23877H38.7472V8.66331L33.9445 15.1642L39.2248 22.4875V22.9121H35.4039L32.1137 17.791L28.8235 22.9121Z" fill="#003057"/>
<path d="M51.3244 8.23877V10.9718H47.1584V22.9121H43.9478V10.9718H39.8085V8.23877H51.3244Z" fill="#003057"/>
<path d="M72.87 22.9121V8.23877H82.608V10.8126H76.107V14.4212H81.759V16.995H76.107V20.3383H82.608V22.9121H72.87Z" fill="#003057"/>
<path d="M113.705 8.23877V17.3665C113.705 21.1343 110.919 23.1509 107.629 23.1509C104.339 23.1509 101.579 21.1343 101.579 17.3665V8.23877H104.817V17.3665C104.817 19.4096 106.117 20.4179 107.629 20.4179C109.142 20.4179 110.468 19.3831 110.468 17.3399V8.23877H113.705Z" fill="#003057"/>
<path d="M117.022 22.9121V8.23877H126.76V10.8126H120.259V14.4212H125.911V16.995H120.259V20.3383H126.76V22.9121H117.022Z" fill="#003057"/>
<path d="M131.218 18.2421C131.589 19.5423 132.518 20.2587 133.871 20.2587C135.012 20.2587 136.074 19.8341 136.074 18.7462C136.074 18.189 135.755 17.6584 134.375 17.1807L132.783 16.6235C129.546 15.5091 129.042 13.4925 129.042 12.272C129.042 9.6186 131.112 8 133.977 8C136.233 8 138.011 9.0879 138.886 11.2106L136.233 12.5373C135.596 11.0514 134.588 10.8922 133.977 10.8922C132.969 10.8922 132.2 11.2902 132.2 12.2454C132.2 12.6169 132.306 13.3068 133.765 13.8109L135.304 14.3681C138.594 15.403 139.178 17.3665 139.205 18.7197C139.205 21.7977 136.525 23.1509 133.951 23.1509C131.138 23.1509 128.591 21.5588 128.299 18.8258L131.218 18.2421Z" fill="#003057"/>
<path d="M152.1 8.23877V10.9718H147.934V22.9121H144.724V10.9718H140.584V8.23877H152.1Z" fill="#003057"/>
<path d="M58.515 8.23877H64.963C67.8285 8.23877 69.7654 9.61856 69.7654 12.325C69.7654 14.5273 68.2795 15.854 66.82 16.3051C67.2445 16.6766 67.5895 17.1807 67.8285 17.6849C68.4385 18.932 68.8365 20.3648 70.137 20.3648C70.4555 20.3648 70.7205 20.2587 70.7205 20.2587L70.429 22.8325C70.429 22.8325 69.6595 23.0182 68.9695 23.0182C67.218 23.0182 66.5285 22.2753 65.4935 19.9403C65.069 18.9055 64.4585 17.0746 63.636 17.0746H61.6725V22.8856H58.515V8.23877ZM61.6725 10.8656V14.4743H64.326C65.361 14.4743 66.5815 14.1559 66.5815 12.5904C66.5815 11.3167 65.759 10.8656 64.7505 10.8656H61.6725Z" fill="#003057"/>
<path d="M99.2445 15.5622C99.2445 11.3698 95.8485 8 91.6825 8C87.49 8 84.1205 11.3963 84.1205 15.5622C84.1205 19.7281 87.5165 23.1244 91.6825 23.1244C92.505 23.1244 93.301 22.9917 94.044 22.7529C94.097 22.7264 94.15 22.7264 94.23 22.6999L98.6875 24L97.9975 19.7811C98.767 18.5871 99.2445 17.1277 99.2445 15.5622ZM95.6625 20.524L93.301 19.8342C92.797 20.0465 92.2395 20.1525 91.6825 20.1525C89.2415 20.1525 87.278 18.0829 87.278 15.5622C87.278 13.015 89.268 10.9718 91.6825 10.9718C94.097 10.9718 96.087 13.0415 96.087 15.5622C96.087 16.544 95.7955 17.4461 95.291 18.1891L95.6625 20.524Z" fill="#9FCC47"/>
</g>
<defs>
<clipPath id="clip0_30635_97">
<rect width="151.642" height="32" fill="white" transform="translate(0.458618)"/>
</clipPath>
</defs>
</svg>
