<svg width="105" height="103" viewBox="0 0 105 103" fill="none" xmlns="http://www.w3.org/2000/svg">
<rect width="68" height="68" rx="34" fill="#FFD44D"/>
<path d="M80.9706 88.2808C80.9706 89.9376 79.6275 91.2808 77.9706 91.2808H14.1992C12.5424 91.2808 11.1992 89.9377 11.1992 88.2808V53.7041C11.1992 52.7704 11.6339 51.89 12.3752 51.3223L45.4599 25.9858C46.5676 25.1375 48.1139 25.1649 49.191 26.0518L79.8777 51.3229C80.5697 51.8928 80.9706 52.7422 80.9706 53.6387V88.2808Z" fill="#F8F8F8" stroke="#07122B" stroke-width="2" stroke-linecap="round" stroke-linejoin="round"/>
<path d="M75.03 37.6895H17.9824C16.3256 37.6895 14.9824 39.0326 14.9824 40.6895V81.1921C14.9824 82.8489 16.3256 84.1921 17.9824 84.1921H75.03C76.6869 84.1921 78.03 82.8489 78.03 81.1921V40.6895C78.03 39.0326 76.6869 37.6895 75.03 37.6895Z" fill="#F8F8F8" stroke="#07122B" stroke-width="2" stroke-linecap="round" stroke-linejoin="round"/>
<path d="M68.4461 44.0547H23.7344C22.0775 44.0547 20.7344 45.3978 20.7344 47.0547V84.0723C20.7344 85.7292 22.0775 87.0723 23.7344 87.0723H68.4461C70.103 87.0723 71.4461 85.7292 71.4461 84.0723V47.0547C71.4461 45.3978 70.103 44.0547 68.4461 44.0547Z" fill="#F8F8F8" stroke="#07122B" stroke-width="2" stroke-linecap="round" stroke-linejoin="round"/>
<path d="M11.1992 59.0597C11.1992 56.4467 14.3077 55.0828 16.2305 56.852L43.6558 82.0864C44.7938 83.1334 46.5412 83.1439 47.6917 82.1107L75.9661 56.7173C77.8973 54.9828 80.9706 56.3534 80.9706 58.9493V88.2806C80.9706 89.9374 79.6275 91.2806 77.9706 91.2806H14.1992C12.5424 91.2806 11.1992 89.9374 11.1992 88.2806V59.0597Z" fill="#F8F8F8" stroke="#07122B" stroke-width="2" stroke-linecap="round" stroke-linejoin="round"/>
<path d="M21.0117 57.9087L35.6636 50.777C36.6481 50.2978 37.8155 50.3931 38.7093 51.0255L56.031 63.2818" fill="#F8F8F8"/>
<path d="M21.0117 57.9087L35.6636 50.777C36.6481 50.2978 37.8155 50.3931 38.7093 51.0255L56.031 63.2818" stroke="#07122B" stroke-width="2" stroke-linecap="round" stroke-linejoin="round"/>
<path d="M48.8154 58.2652L56.5534 53.1186C57.4811 52.5016 58.6743 52.4495 59.6522 52.9833L70.8896 59.1176" fill="#F8F8F8"/>
<path d="M48.8154 58.2652L56.5534 53.1186C57.4811 52.5016 58.6743 52.4495 59.6522 52.9833L70.8896 59.1176" stroke="#07122B" stroke-width="2" stroke-linecap="round" stroke-linejoin="round"/>
<path d="M84.4658 14.6973C84.1566 16.832 83.0667 18.7724 81.4106 20.1364C79.7546 21.5004 77.6525 22.1889 75.5186 22.0665C77.5389 22.9944 79.6555 24.0194 80.8634 25.8967C81.6867 27.3827 82.1587 29.0407 82.2423 30.7412C82.6125 28.9341 83.513 27.2813 84.8266 25.9977C86.1402 24.7142 87.8061 23.8595 89.6075 23.5446C88.3253 23.0261 87.1369 22.297 86.0906 21.3867C85.2299 20.5348 84.6218 19.4572 84.3348 18.2755C84.0477 17.0937 84.0931 15.8545 84.4658 14.6973Z" fill="#F8F8F8" stroke="#07122B" stroke-width="2" stroke-linecap="round" stroke-linejoin="round"/>
<path d="M93.0167 35.9102C92.7104 38.041 91.6261 39.9793 89.9767 41.3447C88.3273 42.7101 86.2318 43.404 84.1016 43.2902C86.1219 44.2288 88.2385 45.2538 89.4464 47.1312C90.2806 48.5965 90.7706 50.2353 90.8788 51.9217C91.249 50.1146 92.1494 48.4618 93.463 47.1783C94.7766 45.8947 96.4425 45.04 98.244 44.7252C96.9642 44.2016 95.7767 43.4729 94.7271 42.5673C93.8574 41.7275 93.2368 40.6599 92.9347 39.484C92.6326 38.3082 92.661 37.0706 93.0167 35.9102" fill="#F8F8F8"/>
<path d="M93.0167 35.9102C92.7104 38.041 91.6261 39.9793 89.9767 41.3447C88.3273 42.7101 86.2318 43.404 84.1016 43.2902C86.1219 44.2288 88.2385 45.2538 89.4464 47.1312C90.2806 48.5965 90.7706 50.2353 90.8788 51.9217C91.249 50.1146 92.1494 48.4618 93.463 47.1783C94.7766 45.8947 96.4425 45.04 98.244 44.7252C96.9642 44.2016 95.7767 43.4729 94.7271 42.5673C93.8574 41.7275 93.2368 40.6599 92.9347 39.484C92.6326 38.3082 92.661 37.0706 93.0167 35.9102" stroke="#07122B" stroke-width="2" stroke-linecap="round" stroke-linejoin="round"/>
</svg>
