<svg width="104" height="103" viewBox="0 0 104 103" fill="none" xmlns="http://www.w3.org/2000/svg">
<rect width="68" height="68" rx="34" fill="#EF457E"/>
<path d="M31.4113 52.3539L44.2105 52.4931C46.2938 52.5129 48.3527 52.945 50.2695 53.7648C52.1863 54.5845 53.9235 55.7758 55.3816 57.2705C56.8397 58.7651 57.9902 60.5338 58.7672 62.4755C59.5443 64.4171 59.9326 66.4936 59.9101 68.5861L59.6945 88.5992L15.1744 88.1153L15.39 68.1021C15.4355 63.8798 17.149 59.8485 20.1536 56.8951C23.1581 53.9418 27.2077 52.3082 31.4113 52.3539V52.3539Z" fill="#F8F8F8" stroke="#07122B" stroke-width="2" stroke-linecap="round" stroke-linejoin="round"/>
<path d="M23.7383 74.1719L43.429 74.3862C44.5779 74.3999 45.6906 74.7921 46.5963 75.5024C47.5019 76.2127 48.1504 77.202 48.4423 78.3183L48.325 84.3719" fill="#F8F8F8"/>
<path d="M23.7383 74.1719L43.429 74.3862C44.5779 74.3999 45.6906 74.7921 46.5963 75.5024C47.5019 76.2127 48.1504 77.202 48.4423 78.3183L48.325 84.3719" stroke="#07122B" stroke-width="2" stroke-linecap="round" stroke-linejoin="round"/>
<path d="M25.3918 33.4134C24.5197 33.3386 23.6975 32.9733 23.0559 32.3754C22.4143 31.7774 21.99 30.9813 21.8504 30.1134C21.4024 26.8455 21.1251 22.8812 22.2024 19.7098C23.2798 16.5384 27.0024 14.1598 30.0424 13.1634C33.6188 12.1478 37.3593 11.8493 41.0504 12.2848C43.8238 12.4991 46.7998 12.8205 49.1891 11.4062" fill="#F8F8F8"/>
<path d="M25.3918 33.4134C24.5197 33.3386 23.6975 32.9733 23.0559 32.3754C22.4143 31.7774 21.99 30.9813 21.8504 30.1134C21.4024 26.8455 21.1251 22.8812 22.2024 19.7098C23.2798 16.5384 27.0024 14.1598 30.0424 13.1634C33.6188 12.1478 37.3593 11.8493 41.0504 12.2848C43.8238 12.4991 46.7998 12.8205 49.1891 11.4062" stroke="#07122B" stroke-width="2" stroke-linecap="round" stroke-linejoin="round"/>
<path d="M24.6352 38.3754C26.6559 38.3754 28.2939 36.73 28.2939 34.7004C28.2939 32.6707 26.6559 31.0254 24.6352 31.0254C22.6146 31.0254 20.9766 32.6707 20.9766 34.7004C20.9766 36.73 22.6146 38.3754 24.6352 38.3754Z" fill="#F8F8F8" stroke="#07122B" stroke-width="2" stroke-linecap="round" stroke-linejoin="round"/>
<path d="M48.8594 17.2674C49.8558 17.0999 50.8092 16.7357 51.6647 16.196C52.2866 15.6966 52.8745 15.1562 53.4247 14.5781" stroke="#07122B" stroke-width="2" stroke-linecap="round" stroke-linejoin="round"/>
<path d="M32.8418 47.3574L44.0305 47.479L43.9619 53.843C43.9582 54.5838 43.8084 55.3166 43.5214 55.9991C43.2344 56.6816 42.8157 57.3003 42.2895 57.8195C41.7633 58.3387 41.14 58.7481 40.4555 59.0242C39.7711 59.3003 39.039 59.4376 38.3014 59.4282V59.4282C36.8191 59.4121 35.4039 58.8051 34.3671 57.7409C33.3303 56.6767 32.7568 55.2424 32.7729 53.7535L32.8418 47.3574Z" fill="#F8F8F8" stroke="#07122B" stroke-width="2" stroke-linecap="round" stroke-linejoin="round"/>
<path d="M52.4639 25.6893L52.3252 38.9429C52.3099 40.393 52.0097 41.8258 51.4417 43.159C50.8738 44.4923 50.0493 45.6998 49.0157 46.7122C47.982 47.7246 46.7594 48.522 45.4182 49.0586C44.077 49.5953 42.6434 49.8606 41.1998 49.8393H36.2825C34.8421 49.8184 33.4199 49.5123 32.0973 48.9385C30.7748 48.3648 29.578 47.5346 28.5753 46.4956C27.5726 45.4566 26.7838 44.2291 26.254 42.8835C25.7242 41.5378 25.4639 40.1005 25.4878 38.6536L25.6265 25.4001L48.3679 25.6465C49.3581 25.6578 50.3408 25.4725 51.2595 25.1014C52.1783 24.7302 53.015 24.1804 53.7217 23.4835C54.4283 22.7866 54.991 21.9564 55.3774 21.0406C55.7637 20.1247 55.9662 19.1412 55.9732 18.1465V18.1465" fill="#F8F8F8"/>
<path d="M52.4639 25.6893L52.3252 38.9429C52.3099 40.393 52.0097 41.8258 51.4417 43.159C50.8738 44.4923 50.0493 45.6998 49.0157 46.7122C47.982 47.7246 46.7594 48.522 45.4182 49.0586C44.077 49.5953 42.6434 49.8606 41.1998 49.8393H36.2825C34.8421 49.8184 33.4199 49.5123 32.0973 48.9385C30.7748 48.3648 29.578 47.5346 28.5753 46.4956C27.5726 45.4566 26.7838 44.2291 26.254 42.8835C25.7242 41.5378 25.4639 40.1005 25.4878 38.6536L25.6265 25.4001L48.3679 25.6465C49.3581 25.6578 50.3408 25.4725 51.2595 25.1014C52.1783 24.7302 53.015 24.1804 53.7217 23.4835C54.4283 22.7866 54.991 21.9564 55.3774 21.0406C55.7637 20.1247 55.9662 19.1412 55.9732 18.1465V18.1465" stroke="#07122B" stroke-width="2" stroke-linecap="round" stroke-linejoin="round"/>
<path d="M34.3516 32.2344L34.7249 32.2451" stroke="#07122B" stroke-width="2" stroke-linecap="round" stroke-linejoin="round"/>
<path d="M42.4805 32.3203L42.8538 32.331" stroke="#07122B" stroke-width="2" stroke-linecap="round" stroke-linejoin="round"/>
<path d="M35.0137 40.2617C35.0137 40.2617 38.939 42.7046 42.171 40.3367Z" fill="#F8F8F8"/>
<path d="M35.0137 40.2617C35.0137 40.2617 38.939 42.7046 42.171 40.3367" stroke="#07122B" stroke-width="2" stroke-linecap="round" stroke-linejoin="round"/>
<path d="M89.5117 84.8288L10.5936 83.971C9.48913 83.959 8.5841 84.8446 8.5722 85.9491L8.50553 92.138C8.49363 93.2425 9.37937 94.1476 10.4839 94.1596L89.4019 95.0175C90.5064 95.0295 91.4114 94.1438 91.4233 93.0393L91.49 86.8504C91.5019 85.7459 90.6162 84.8408 89.5117 84.8288Z" fill="#F8F8F8" stroke="#07122B" stroke-width="2" stroke-linecap="round" stroke-linejoin="round"/>
<path d="M89.3496 82.9365C89.1452 83.8503 88.3342 84.5 87.3978 84.5H50.4628C49.1931 84.5 48.2448 83.3323 48.5053 82.0896L54.888 51.6443C55.0822 50.7181 55.899 50.0547 56.8455 50.0547H94.2072C95.4878 50.0547 96.4385 51.2415 96.159 52.4912L89.3496 82.9365Z" fill="#F8F8F8" stroke="#07122B" stroke-width="2" stroke-linecap="round" stroke-linejoin="round"/>
<path d="M38.3838 74.6973V84.2544" stroke="#07122B" stroke-width="2" stroke-linecap="round" stroke-linejoin="round"/>
<path d="M75.6857 73.5503C78.4191 73.5503 80.635 71.3245 80.635 68.5788C80.635 65.8332 78.4191 63.6074 75.6857 63.6074C72.9522 63.6074 70.7363 65.8332 70.7363 68.5788C70.7363 71.3245 72.9522 73.5503 75.6857 73.5503Z" fill="#F8F8F8" stroke="#07122B" stroke-width="2" stroke-linecap="round" stroke-linejoin="round"/>
</svg>
