<svg width="105" height="103" viewBox="0 0 105 103" fill="none" xmlns="http://www.w3.org/2000/svg">
<rect width="68" height="68" rx="34" fill="#0099F6"/>
<path d="M81.3578 22.456C81.3578 21.4833 81.0033 20.5439 80.3608 19.8136L71.5333 9.78146C70.7739 8.91842 69.6799 8.42383 68.5303 8.42383H32.165C29.9559 8.42383 28.165 10.2147 28.165 12.4238V46.9327C28.165 49.1419 29.9559 50.9327 32.165 50.9327H77.3578C79.5669 50.9327 81.3578 49.1419 81.3578 46.9327V22.456Z" fill="#F8F8F8" stroke="#07122B" stroke-width="2" stroke-linecap="round" stroke-linejoin="round"/>
<path d="M36.5293 29.8828H70.9666" stroke="#07122B" stroke-width="2" stroke-linecap="round" stroke-linejoin="round"/>
<path d="M37 24H59" stroke="#07122B" stroke-width="2" stroke-linecap="round" stroke-linejoin="round"/>
<path d="M36.5293 35.8828H70.9666" stroke="#07122B" stroke-width="2" stroke-linecap="round" stroke-linejoin="round"/>
<path d="M69.8887 8.85742V21.0001H80.883" stroke="#07122B" stroke-width="2" stroke-linecap="round" stroke-linejoin="round"/>
<rect x="11.9355" y="45.9219" width="85.1282" height="30.6387" rx="3" fill="#F8F8F8" stroke="#07122B" stroke-width="2"/>
<path d="M59.3387 90.9322C58.2655 92.6221 55.6504 91.8619 55.6504 89.86V69.7394C55.6504 68.084 57.5467 67.1453 58.8631 68.1491L74.8779 80.361C76.4929 81.5925 75.4566 84.1685 73.4386 83.9385L65.676 83.0535C64.9152 82.9667 64.1716 83.322 63.7611 83.9684L59.3387 90.9322Z" fill="#F8F8F8" stroke="#07122B" stroke-width="2" stroke-linecap="round" stroke-linejoin="round"/>
<path d="M19.3105 65.5348C20.173 66.0526 21.1585 66.3303 22.1646 66.339C23.7955 66.339 24.7469 65.4826 24.7469 64.2501C24.7469 63.0177 24.0883 62.4432 22.4155 61.8061C20.4083 61.0854 19.1642 60.0514 19.1642 58.3177C19.1642 56.3959 20.7533 54.9754 23.1474 54.9754C24.0921 54.946 25.0295 55.1505 25.876 55.5708L25.4369 56.8659C24.7345 56.4675 23.9444 56.2486 23.1369 56.2288C21.4537 56.2288 20.816 57.2732 20.816 58.067C20.816 59.2159 21.5687 59.7903 23.2624 60.4379C25.3533 61.2421 26.3987 62.2552 26.3987 64.0621C26.3987 65.869 24.9664 67.6237 22.0914 67.6237C20.9959 67.637 19.9155 67.3671 18.9551 66.8403L19.3105 65.5348Z" fill="#07122B"/>
<path d="M32.5973 55.0898V62.401C32.5973 65.1687 33.8309 66.3385 35.4723 66.3385C37.3018 66.3385 38.4728 65.127 38.4728 62.401V55.0898H40.0828V62.2652C40.0828 66.0461 38.0859 67.6023 35.42 67.6023C32.7541 67.6023 30.9873 66.161 30.9873 62.3801V55.0898H32.5973Z" fill="#07122B"/>
<path d="M45.3105 55.2774C46.2722 55.0973 47.249 55.0098 48.2274 55.0163C49.4242 54.9037 50.6219 55.2223 51.6042 55.9145C51.943 56.1636 52.2155 56.4919 52.3977 56.8707C52.58 57.2494 52.6665 57.6671 52.6496 58.087C52.6291 58.7 52.4161 59.291 52.0409 59.7764C51.6657 60.2619 51.1472 60.6172 50.5587 60.7921V60.7921C51.2836 60.9321 51.9358 61.3231 52.4005 61.8963C52.8652 62.4694 53.1126 63.188 53.0992 63.9254C53.1063 64.3864 53.017 64.8437 52.8369 65.2681C52.6569 65.6926 52.3901 66.0748 52.0537 66.3903C51.1965 67.1737 49.806 67.5392 47.7987 67.5392C46.974 67.5456 46.1497 67.4967 45.3315 67.393L45.3105 55.2774ZM46.8996 60.3117H48.3424C50.0255 60.3117 51.0083 59.4343 51.0083 58.2228C51.0083 56.771 49.9628 56.207 48.3005 56.207C47.8309 56.1966 47.3613 56.2351 46.8996 56.3219V60.3117ZM46.8996 66.2128C47.3397 66.271 47.7836 66.2955 48.2274 66.2859C49.8792 66.2859 51.3637 65.6801 51.3637 63.8941C51.3637 62.1081 49.921 61.5232 48.2274 61.5232H46.8996V66.2128Z" fill="#07122B"/>
<path d="M68.0913 62.0145C67.9972 60.2912 67.8822 58.2336 67.9031 56.6983C67.4849 58.1396 66.9727 59.675 66.3454 61.3774L64.1709 67.3412H62.864L60.8672 61.4818C60.2818 59.7481 59.8218 58.1605 59.4454 56.6983C59.4454 58.2336 59.3199 60.2912 59.2049 62.1398L58.8809 67.3621H57.3545L58.2118 55.0898H60.2399L62.3309 61.0432C62.8431 62.5576 63.2613 63.905 63.5749 65.221H63.6272C63.9409 63.9781 64.3799 62.6307 64.934 61.0432L67.1295 55.0898H69.1368L69.9104 67.3934H68.3736L68.0913 62.0145Z" fill="#07122B"/>
<path d="M76.4547 55.0898V67.4143H74.8447V55.0898H76.4547Z" fill="#07122B"/>
<path d="M84.0237 56.4581H80.2705V55.0898H89.3973V56.4372H85.6337V67.4143H84.0237V56.4581Z" fill="#07122B"/>
<path d="M56.8066 68.1387L64.4321 82.9015" stroke="#07122B" stroke-width="2" stroke-linecap="round" stroke-linejoin="round"/>
</svg>
