<svg width="91" height="43" viewBox="0 0 91 43" fill="none" xmlns="http://www.w3.org/2000/svg">
<path fill-rule="evenodd" clip-rule="evenodd" d="M53.4123 2.87727L47.1731 5.33528L48.7994 8.45215H90.0696L90.0013 9.16426C89.5818 13.534 87.3079 19.5461 80.5504 23.6471C76.1135 26.3398 69.7879 28.1812 60.8647 28.2284L45.0373 42.5903V42.5947L45.0348 42.5925L45.0324 42.5947V42.5903L29.205 28.2284C20.2818 28.1812 13.9562 26.3398 9.51921 23.6471C2.76175 19.5461 0.487862 13.534 0.0683632 9.16426L0 8.45215H40.8131C40.7916 5.59297 41.5367 0.0372559 44.7139 0.000525115C47.9242 -0.0365887 51.8505 1.90289 53.4123 2.87727ZM31.0184 28.2138L37.1561 33.8819L31.9341 28.1887C31.6261 28.1991 31.3208 28.2074 31.0184 28.2138ZM30.7692 26.9186C30.3838 26.9255 30.0034 26.9291 29.6278 26.9295L11.0275 9.75215H15.0237L30.7692 26.9186ZM33.4743 28.1213L37.8923 33.0015L34.222 28.0777C33.971 28.0935 33.7218 28.108 33.4743 28.1213ZM33.2914 26.8294C32.9726 26.846 32.6569 26.8605 32.3442 26.873L16.8446 9.75215H20.5614L33.2914 26.8294ZM35.6529 27.9753L39.3983 33.1187L36.3913 27.913C36.1435 27.935 35.8974 27.9557 35.6529 27.9753ZM35.673 26.6695C35.3636 26.6948 35.057 26.7181 34.753 26.7395L22.3828 9.75215H25.9008L35.673 26.6695ZM37.8511 27.772L40.8479 33.0015L38.6932 27.6803C38.4105 27.7123 38.1298 27.7429 37.8511 27.772ZM38.1865 26.4288C37.8356 26.4673 37.4879 26.5034 37.1435 26.5373L27.5247 9.75215H31.434L38.1865 26.4288ZM39.9897 27.5246L44.5699 39.2224L43.0843 27.0867C42.028 27.2514 40.9967 27.3971 39.9897 27.5246ZM39.5007 26.2757L33.031 9.75215H40.9623L42.9263 25.7956C41.7524 25.9791 40.6108 26.1387 39.5007 26.2757ZM8.84327 9.75215L27.7452 26.9039C19.7819 26.6747 14.145 24.9337 10.1937 22.5357C4.2163 18.9082 2.00615 13.7217 1.44682 9.75215H8.84327ZM45.3095 39.7084L50.08 27.5246C49.0337 27.3921 47.9611 27.24 46.8615 27.0673L45.3095 39.7084ZM51.3764 27.6803L49.2218 33.0015L52.2185 27.772C51.9398 27.7429 51.6591 27.7123 51.3764 27.6803ZM52.9261 26.5373C52.5817 26.5034 52.234 26.4673 51.8831 26.4288L58.6357 9.75215H62.5449L52.9261 26.5373ZM53.6783 27.913L50.6713 33.1187L54.4168 27.9753C54.1722 27.9557 53.9261 27.935 53.6783 27.913ZM55.3166 26.7395C55.0127 26.7181 54.706 26.6948 54.3966 26.6696L64.1688 9.75215H67.6868L55.3166 26.7395ZM55.8477 28.0777L52.1773 33.0015L56.5953 28.1213C56.3479 28.108 56.0987 28.0935 55.8477 28.0777ZM57.7255 26.873C57.4128 26.8605 57.0971 26.846 56.7782 26.8294L69.5083 9.75215H73.2251L57.7255 26.873ZM58.1355 28.1887L52.9136 33.8819L59.0512 28.2138C58.7488 28.2074 58.4436 28.1991 58.1355 28.1887ZM60.4419 26.9295C60.0663 26.9291 59.6858 26.9255 59.3005 26.9186L75.0459 9.75215H79.0422L60.4419 26.9295ZM62.3244 26.9039C70.2877 26.6747 75.9246 24.9337 79.876 22.5357C85.8533 18.9082 88.0635 13.7217 88.6228 9.75215H81.2264L62.3244 26.9039ZM57.0387 9.75215L50.569 26.2757C49.42 26.1339 48.2373 25.9679 47.0201 25.7763L48.9875 9.75215H57.0387Z" fill="#B8B8B8"/>
</svg>
