<svg width="124" height="26" viewBox="0 0 124 26" fill="none" xmlns="http://www.w3.org/2000/svg">
<path d="M11.3408 0.208875L0 5.52906V6.09416L10.9055 11.1579C11.8703 11.5932 12.6934 11.5932 13.6527 11.1579L23.9036 6.36009C23.9564 6.33336 24.0128 6.31027 24.0692 6.2872C24.2164 6.22691 24.3634 6.1667 24.4458 6.04192C24.4885 5.97861 24.5138 5.89788 24.5138 5.79182C24.5138 5.53281 24.2924 5.4298 24.0651 5.324L24.0635 5.32328L23.9464 5.26946L13.2601 0.251614C12.6048 -0.0538889 11.9946 -0.0966277 11.3408 0.208875Z" fill="#B8B8B8"/>
<path d="M2.00635 18.0911L0 19.0947C0 19.1722 0 19.2435 0.00870604 19.3052C0.0182035 19.378 0.0403644 19.4382 0.0878519 19.4856C0.170955 19.5363 0.247727 19.5917 0.322915 19.6471C0.444008 19.7373 0.562727 19.8244 0.698066 19.8782L11.2537 24.8074C11.9953 25.1572 12.7369 25.1129 13.4785 24.7647L19.1058 22.1465L24.0785 19.7911C24.2962 19.7041 24.5582 19.5727 24.5582 19.3115C24.5946 19.0614 24.3943 18.9554 24.1996 18.8541L24.0785 18.7876L23.7493 18.6404C23.3654 18.471 22.9673 18.2937 22.5954 18.0911C21.7659 17.6985 20.9816 17.6985 20.1529 18.0911L13.4785 21.2316C13.0606 21.4295 12.6546 21.5276 12.2486 21.526C11.8481 21.5244 11.4477 21.4263 11.0361 21.2316L4.44958 18.1354C3.61934 17.7428 2.8358 17.6558 2.00635 18.0911Z" fill="#B8B8B8"/>
<path d="M0 12.334L1.52672 11.5932C2.70441 10.8951 3.79584 11.0249 5.01706 11.636L11.211 14.5596C11.9969 14.9078 12.6942 14.9078 13.4358 14.5596L20.0223 11.4634C20.938 11.0265 21.8055 10.9838 22.7291 11.4634L24.2558 12.2042C24.6919 12.467 24.6492 12.7282 24.2558 12.9909C24.1308 13.0748 24.0041 13.1176 23.8775 13.1603L23.8633 13.1651L13.3511 18.0499C12.6546 18.3998 11.9558 18.3998 11.2553 18.0499L0.743971 13.1651C0.62335 13.1051 0.511508 13.0344 0.400335 12.964L0.372777 12.9466C0.253273 12.8706 0.13375 12.7946 0.00237438 12.7297L0 12.334Z" fill="#B8B8B8"/>
<path fill-rule="evenodd" clip-rule="evenodd" d="M39.2625 0.503906V8.68706C39.4749 8.71687 39.5619 8.62247 39.6476 8.52558L39.7047 8.46596C42.5057 5.47988 47.7388 5.92208 50.1734 9.34787C52.5682 12.6668 52.4949 18.4179 49.9883 21.6226C47.4829 24.8298 42.6548 25.1602 39.7432 22.2859L39.2638 21.8412V23.3169C39.2638 23.6994 39.1159 23.8684 38.7122 23.8684H35.2479C34.8418 23.8684 34.6592 23.7218 34.6592 23.3169V1.35104L34.6977 0.503906H39.2625ZM39.265 12.8159L39.2625 17.7173C39.2352 17.9459 39.2724 18.1794 39.3706 18.3856C39.4675 18.5943 39.6215 18.7732 39.814 18.8974L40.2214 19.2079C40.3705 19.3197 40.5245 19.4265 40.6984 19.5234C43.4622 21.0363 46.4097 19.7818 47.0743 16.7982C47.2593 15.951 47.2966 15.0642 47.1128 14.1822C46.9463 13.35 46.6681 12.5998 46.2184 12.0011C45.7713 11.4048 45.1552 10.9552 44.3118 10.7167C42.5442 10.2 40.9208 10.6794 39.5954 11.9688C39.337 12.1899 39.265 12.4855 39.265 12.8159Z" fill="#B8B8B8"/>
<path d="M123.916 11.1191C123.606 11.1465 123.299 11.139 122.994 11.1316C122.469 11.1167 121.947 11.1019 121.411 11.2657L120.453 11.5961C119.2 12.0756 118.573 12.8482 118.647 14.3611L118.686 22.9467C118.686 23.3762 118.686 23.5879 118.58 23.6923C118.477 23.7938 118.274 23.7938 117.873 23.7938H114.888C114.409 23.7938 114.3 23.61 114.3 23.133L114.338 8.72184L114.338 8.60922C114.338 7.91443 114.337 7.56479 114.512 7.38779C114.69 7.20892 115.05 7.20892 115.775 7.20892H118.06C118.576 7.17166 118.759 7.39524 118.72 7.90949C118.696 8.19578 118.703 8.46646 118.711 8.77141C118.716 8.93747 118.72 9.11369 118.72 9.30812C120.268 7.87222 121.817 6.72946 123.953 6.87603L123.916 11.1191Z" fill="#B8B8B8"/>
<path fill-rule="evenodd" clip-rule="evenodd" d="M99.8499 17.0143H105.156C105.739 17.0135 106.32 17.0092 106.9 17.0049C108.141 16.9956 109.381 16.9864 110.638 17.0118C111.115 17.0118 111.299 16.8305 111.299 16.351L111.277 15.8094C111.256 15.253 111.235 14.6965 111.151 14.14C110.451 9.16404 106.251 6.14318 101.348 7.02757C97.5519 7.72317 94.6404 11.0421 94.4926 14.9474C94.3584 18.4875 95.5732 21.399 98.8177 23.1305C101.176 24.4199 103.719 24.4571 106.299 23.8311C107.554 23.5355 108.695 23.056 109.69 22.2462C109.912 22.0623 110.096 21.876 109.874 21.5456L108.363 19.3346C108.193 19.0762 108.033 19.0762 107.811 19.2601C106.781 20.1072 105.526 20.5146 104.237 20.6239C101.877 20.8475 100.146 19.9259 99.2984 17.7894C99.0388 17.1261 99.1506 17.0143 99.8499 17.0143ZM106.263 13.9562H103.02L99.5592 13.9934C99.3381 13.9934 99.1829 13.9611 99.1257 13.822C99.0959 13.75 99.091 13.6506 99.1158 13.514C99.2897 12.6743 99.7393 11.9191 100.394 11.3626C101.047 10.8086 101.868 10.4906 102.724 10.4559C104.862 10.3813 106.372 11.3775 106.852 13.1836C107.037 13.9189 107.001 13.9562 106.263 13.9562Z" fill="#B8B8B8"/>
<path d="M65.392 21.8412C64.5076 22.6536 63.6592 23.2796 62.6655 23.6473C60.9961 24.3106 59.1515 24.3876 57.4324 23.8684C55.6636 23.3541 54.4836 21.7319 54.373 19.7818L54.2997 11.7824V8.02625C54.2997 7.47474 54.4463 7.21389 55.0376 7.25364H57.9119C58.1392 7.25364 58.3056 7.25364 58.4273 7.26855C58.759 7.31078 58.759 7.46977 58.759 8.06351V17.0193C58.759 19.3768 59.6434 20.224 62.0022 20.147C62.7164 20.1271 63.3288 19.9259 63.8828 19.6079C64.3299 19.3495 64.7386 19.0166 65.1311 18.6365C65.3608 18.4068 65.3568 18.1202 65.3531 17.8517C65.3527 17.8182 65.3522 17.7849 65.3522 17.7521V8.13307C65.3522 7.91197 65.3522 7.74552 65.3659 7.62131C65.4069 7.24867 65.5733 7.24867 66.2366 7.24867H69.1494C69.6289 7.24867 69.7767 7.43251 69.7767 7.87719V23.1355C69.7767 23.615 69.5916 23.7963 69.1146 23.7963C68.0588 23.7591 67.0018 23.7591 65.9447 23.7963C65.8093 23.7963 65.6988 23.7814 65.6093 23.7516C65.3808 23.6721 65.2938 23.4883 65.3187 23.1678C65.4058 22.8683 65.4011 22.5611 65.3952 22.1732C65.3936 22.0689 65.392 21.9587 65.392 21.8412Z" fill="#B8B8B8"/>
<path d="M90.4532 23.0833V17.5186L90.3786 11.9787C90.3786 11.5514 90.3786 11.3502 90.5016 11.2533C90.6122 11.1664 90.8233 11.1664 91.2258 11.1664H93.2169C93.6218 11.2011 93.7684 11.0322 93.7684 10.6496V7.84986C93.7684 7.57163 93.6877 7.42505 93.5312 7.3555C93.4393 7.31326 93.3213 7.29836 93.1797 7.29836H90.9699C90.9524 7.29836 90.9344 7.29866 90.9159 7.29897C90.737 7.302 90.5196 7.30567 90.4532 7.03999C89.975 5.4923 91.4121 3.9297 92.9971 4.31228C93.2728 4.35451 93.5361 4.45636 93.7697 4.6079C94.1746 4.90353 94.3957 4.7669 94.6168 4.3868C94.9124 3.86759 95.2304 3.31857 95.6117 2.83911C95.9434 2.39443 95.8092 2.13855 95.4279 1.84292C94.505 1.11752 93.4753 0.883998 92.3685 0.737427C89.2732 0.30765 86.6547 2.11371 86.1032 5.06252C85.9989 5.60906 85.9492 6.16305 85.9554 6.71952C85.9554 7.12446 85.8101 7.27103 85.4039 7.27103H83.855C83.4873 7.27103 83.3035 7.38034 83.3035 7.78776V10.662C83.3035 10.8906 83.3743 11.0198 83.5059 11.0844C83.5879 11.1241 83.6935 11.1415 83.8202 11.1415H85.0723C85.5145 11.1415 85.7356 11.1415 85.8461 11.2521C85.9567 11.3626 85.9567 11.5837 85.9567 12.0259V23.0833C85.9567 23.6349 86.143 23.8212 86.6945 23.8212C87.7143 23.7839 88.7341 23.7839 89.7539 23.8212C90.3054 23.8212 90.4532 23.6349 90.4532 23.0833Z" fill="#B8B8B8"/>
<path d="M74.9738 17.4068V11.8172C74.9738 11.3378 74.8259 11.1167 74.3465 11.1564C74.1875 11.1688 74.0285 11.1738 73.8695 11.1738C73.6907 11.1738 73.5125 11.1695 73.3343 11.1651C73.156 11.1608 72.9776 11.1564 72.7988 11.1564C72.4174 11.1564 72.246 11.0446 72.246 10.6397V7.7654C72.246 7.66603 72.2585 7.58156 72.2833 7.51449C72.3529 7.32568 72.5181 7.25861 72.7628 7.28594H74.385C74.6856 7.30829 74.8558 7.2437 74.9415 7.07477C74.9924 6.9754 75.0123 6.83629 75.0123 6.65742C74.9738 5.51466 75.1228 4.37438 75.7116 3.37571C76.8183 1.46035 78.9933 0.426894 81.3123 0.725005C82.3818 0.874061 83.414 1.05541 84.2984 1.72119C84.9257 2.20066 84.9592 2.2727 84.5568 2.89873L83.5991 4.40916C83.414 4.73957 83.1917 4.85385 82.8253 4.59548C82.4588 4.33712 82.0141 4.18806 81.5359 4.18806C80.7112 4.18806 80.0205 4.64765 79.6715 5.3035C79.4119 5.7929 79.3411 6.38912 79.5448 6.98782C79.6057 7.15179 79.7013 7.21389 79.8056 7.23625C79.8698 7.24966 79.9377 7.2483 80.0036 7.24697C80.0231 7.24658 80.0425 7.24619 80.0615 7.24619H82.198C82.6054 7.24619 82.7868 7.39524 82.7507 7.79769V10.5627C82.7507 10.9701 82.6029 11.1514 82.198 11.1142H80.2441C79.6553 11.0769 79.4715 11.298 79.5063 11.852V22.7256C79.5063 23.2324 79.5063 23.4908 79.3771 23.6199C79.2454 23.7541 78.9784 23.7541 78.4381 23.7541C78.1446 23.7541 77.8471 23.75 77.5482 23.7459C76.9462 23.7376 76.3385 23.7292 75.7476 23.7541C75.2321 23.7541 75.0098 23.6075 75.0098 23.0163L74.9738 17.4068Z" fill="#B8B8B8"/>
</svg>
