<svg width="140" height="27" viewBox="0 0 140 27" fill="none" xmlns="http://www.w3.org/2000/svg">
<g clip-path="url(#clip0_13019_118116)">
<mask id="mask0_13019_118116" style="mask-type:alpha" maskUnits="userSpaceOnUse" x="0" y="0" width="136" height="27">
<path d="M0.297852 0.109375H135.415V27H0.297852V0.109375Z" fill="white"/>
</mask>
<g mask="url(#mask0_13019_118116)">
<path fill-rule="evenodd" clip-rule="evenodd" d="M133.042 22.0114C132.486 22.0114 132.033 21.5797 132.033 21.0502V2.9612C132.033 2.4131 132.467 2 133.042 2H134.407C134.963 2 135.416 2.43133 135.416 2.9612V21.0502C135.416 21.571 134.954 22.0114 134.407 22.0114H133.042Z" fill="#B8B8B8"/>
<path fill-rule="evenodd" clip-rule="evenodd" d="M22.52 1.35509V2.31865C24.2986 2.99703 24.9843 4.80805 24.9843 6.11316V22.9325C24.9843 25.9167 22.5762 27 20.9573 27H4.304C1.34992 27 0.277344 24.5677 0.277344 22.9325V6.11316C0.277344 3.12899 2.68545 2.04595 4.304 2.04595H16.9413V1.35509C16.9413 1.19151 16.9731 1.02953 17.0351 0.8784C17.097 0.727265 17.1878 0.589936 17.3023 0.474256C17.4168 0.358577 17.5527 0.266813 17.7024 0.204206C17.852 0.141599 18.0123 0.109375 18.1743 0.109375H21.2871C21.449 0.109375 21.6094 0.141599 21.759 0.204206C21.9086 0.266813 22.0445 0.358577 22.159 0.474256C22.2735 0.589936 22.3643 0.727265 22.4263 0.8784C22.4882 1.02953 22.5201 1.19151 22.52 1.35509ZM14.7814 19.4996C14.9559 19.5893 15.0879 19.7453 15.1485 19.9333L15.7783 21.8912C15.8388 22.0792 15.8228 22.2839 15.7338 22.46C15.6449 22.6361 15.4904 22.7694 15.3042 22.8305V22.8311C14.4625 23.1072 13.565 23.2581 12.6321 23.2581C7.85599 23.2581 3.98438 19.3475 3.98438 14.5236C3.98438 9.69967 7.85599 5.78906 12.6321 5.78906C13.5395 5.78886 14.4412 5.93293 15.3042 6.216V6.21634C15.4904 6.27753 15.6449 6.41093 15.7338 6.5872C15.8227 6.76347 15.8385 6.96817 15.778 7.15628L15.1485 9.11344C15.088 9.30152 14.956 9.45763 14.7815 9.54744C14.6071 9.63724 14.4045 9.6534 14.2182 9.59235C13.706 9.42424 13.1707 9.33859 12.6321 9.33855C9.79698 9.33855 7.49847 11.6599 7.49847 14.5236C7.49847 17.3876 9.79698 19.7089 12.6321 19.7089C13.1851 19.7089 13.7177 19.6191 14.2169 19.4558L14.2182 19.4551C14.4044 19.3939 14.607 19.41 14.7814 19.4996ZM18.5033 13.7787H20.5408C20.6396 13.7757 20.738 13.7928 20.8302 13.8289C20.9223 13.865 21.0063 13.9194 21.0773 13.989C21.1482 14.0585 21.2046 14.1417 21.2431 14.2336C21.2816 14.3256 21.3015 14.4244 21.3015 14.5242C21.3015 14.6241 21.2816 14.7229 21.2431 14.8149C21.2046 14.9068 21.1482 14.99 21.0773 15.0595C21.0063 15.1291 20.9223 15.1835 20.8302 15.2196C20.738 15.2557 20.6396 15.2728 20.5408 15.2698H18.5033C18.3075 15.2698 18.1198 15.1912 17.9813 15.0514C17.8429 14.9116 17.7652 14.722 17.7652 14.5242C17.7652 14.3265 17.8429 14.1369 17.9813 13.9971C18.1198 13.8573 18.3075 13.7787 18.5033 13.7787ZM17.7311 12.808C17.5484 12.7371 17.401 12.5958 17.3214 12.4152C17.2419 12.2346 17.2365 12.0295 17.3067 11.8449C17.3768 11.6604 17.5166 11.5115 17.6953 11.4311L19.5571 10.5937C19.6459 10.5523 19.742 10.5291 19.8397 10.5255C19.9374 10.5219 20.0349 10.538 20.1264 10.5727C20.218 10.6075 20.3018 10.6603 20.3729 10.7281C20.4441 10.7958 20.5012 10.8772 20.541 10.9675C20.5807 11.0577 20.6023 11.155 20.6045 11.2538C20.6067 11.3525 20.5895 11.4508 20.5538 11.5427C20.5181 11.6347 20.4646 11.7186 20.3966 11.7895C20.3285 11.8604 20.2471 11.917 20.1572 11.9559L18.2958 12.7932C18.1169 12.8736 17.9138 12.8789 17.7311 12.808ZM18.4725 9.08611L17.1089 10.616C17.0441 10.6887 16.9657 10.7479 16.8782 10.79C16.7907 10.8322 16.6959 10.8565 16.5991 10.8616C16.5023 10.8667 16.4055 10.8525 16.3142 10.8198C16.2228 10.7871 16.1388 10.7365 16.0668 10.671C15.9947 10.6055 15.936 10.5263 15.8943 10.438C15.8525 10.3496 15.8284 10.2538 15.8233 10.156C15.8182 10.0582 15.8322 9.96033 15.8646 9.86803C15.897 9.77572 15.9471 9.69076 16.012 9.61801L17.3756 8.08846C17.4404 8.0157 17.5188 7.95657 17.6063 7.91442C17.6938 7.87227 17.7886 7.84794 17.8854 7.84282C17.9822 7.83769 18.079 7.85188 18.1704 7.88456C18.2618 7.91723 18.3459 7.96777 18.4179 8.03328C18.4899 8.09878 18.5485 8.17798 18.5902 8.26634C18.6319 8.3547 18.656 8.4505 18.6611 8.54826C18.6662 8.64603 18.6521 8.74384 18.6198 8.83613C18.5874 8.92841 18.5374 9.01335 18.4725 9.08611ZM17.1099 18.4314C16.9774 18.2904 16.7956 18.2073 16.6033 18.1997C16.411 18.192 16.2234 18.2605 16.0803 18.3906C15.9373 18.5206 15.8502 18.702 15.8375 18.8959C15.8249 19.0899 15.8877 19.2812 16.0126 19.4291L17.3762 20.9589C17.5085 21.1011 17.6906 21.1853 17.8837 21.1934C18.0767 21.2015 18.2651 21.1329 18.4086 21.0023C18.5521 20.8717 18.6393 20.6895 18.6513 20.4948C18.6634 20.3 18.5994 20.1083 18.4732 19.9606L17.1099 18.4314ZM20.1582 17.0912L18.2967 16.2539C18.1189 16.1796 17.9195 16.1784 17.7408 16.2504C17.5621 16.3225 17.4184 16.4621 17.3401 16.6396C17.2618 16.8171 17.2552 17.0185 17.3216 17.2008C17.3881 17.3832 17.5224 17.5322 17.696 17.616L19.5578 18.4537C19.7358 18.5289 19.9359 18.5308 20.1153 18.4589C20.2946 18.387 20.439 18.247 20.5175 18.069C20.5959 17.8909 20.6023 17.6888 20.5351 17.5061C20.468 17.3234 20.3327 17.1744 20.1582 17.0912Z" fill="#B8B8B8"/>
<path fill-rule="evenodd" clip-rule="evenodd" d="M74.8199 10.1398C73.6431 10.1398 72.6323 10.5583 71.815 11.3835C71.0188 12.1881 70.6148 13.2094 70.6148 14.4183C70.6148 15.6276 71.0188 16.6485 71.815 17.4531C72.6323 18.2783 73.6431 18.6971 74.8199 18.6971C75.9757 18.6971 76.9761 18.2783 77.7934 17.4531C78.6103 16.6279 79.0246 15.6066 79.0246 14.4183C79.0246 13.23 78.6103 12.209 77.7934 11.3835C76.9761 10.5583 75.9757 10.1398 74.8199 10.1398V10.1398ZM74.8199 22.0195C72.7125 22.0195 70.8945 21.2783 69.4156 19.8166C67.9668 18.3532 67.2324 16.5371 67.2324 14.4183C67.2324 12.2887 67.9668 10.4834 69.4156 9.05172C70.8945 7.59001 72.7125 6.84886 74.8199 6.84886C76.938 6.84886 78.746 7.59001 80.1938 9.05274C81.6616 10.4723 82.4071 12.2782 82.4071 14.4183C82.4071 16.578 81.6827 18.3438 80.1928 19.8166C78.746 21.278 76.938 22.0195 74.8199 22.0195ZM90.2419 22.0195C88.5151 22.0195 87.083 21.4569 85.985 20.3485C84.8667 19.2182 84.2993 17.7504 84.2993 15.9857V8.33757C84.2993 7.75674 84.733 7.31866 85.3077 7.31866H86.6733C86.9407 7.31902 87.1971 7.42649 87.3861 7.61751C87.5751 7.80852 87.6815 8.06748 87.6817 8.33757V16.0484C87.6817 17.6138 88.7105 18.6657 90.2419 18.6657C91.7919 18.6657 92.8331 17.6138 92.8331 16.0484V8.33757C92.8331 7.75674 93.2668 7.31866 93.8418 7.31866H95.2071C95.4745 7.31902 95.7309 7.42648 95.92 7.61749C96.1091 7.80849 96.2155 8.06745 96.2159 8.33757V15.9857C96.2159 17.7504 95.6485 19.2182 94.5302 20.3482C93.4322 21.4569 91.9894 22.0195 90.2419 22.0195V22.0195ZM102.869 22.0195C101.06 22.0195 99.5231 21.3938 98.3019 20.1599C97.7983 19.6516 97.7749 19.1227 98.233 18.5891L98.5454 18.2415C98.8208 17.9266 99.1192 17.766 99.4306 17.766C99.6909 17.766 99.9588 17.8794 100.227 18.1025C101.097 18.8298 101.976 19.1987 102.838 19.1987C103.843 19.1987 104.467 18.6401 104.467 17.7407C104.467 16.8962 103.892 16.3718 102.1 15.582C99.4917 14.503 98.1679 12.9617 98.1679 11.0018C98.1679 8.59542 100.197 6.84886 102.993 6.84886C104.33 6.84886 105.502 7.184 106.575 7.87385C106.836 8.05509 107.003 8.31462 107.051 8.60724C107.103 8.92617 107.013 9.26097 106.798 9.55021L106.518 9.92652C106.263 10.2714 105.968 10.4459 105.642 10.4459C105.441 10.4459 105.225 10.3788 105.002 10.2455C104.326 9.84249 103.692 9.6383 103.117 9.6383C102.043 9.6383 101.426 10.101 101.426 10.908C101.426 11.6289 102.139 12.2728 103.605 12.8776C106.494 14.1281 107.726 15.5354 107.726 17.5844C107.726 18.8625 107.261 19.9314 106.345 20.7609C105.443 21.6074 104.305 22.0195 102.869 22.0195ZM126.823 22.0114C126.267 22.0114 125.815 21.5797 125.815 21.0502V2.9612C125.815 2.4131 126.248 2 126.823 2H128.189C128.745 2 129.197 2.43133 129.197 2.9612V21.0502C129.197 21.5709 128.736 22.0114 128.189 22.0114H126.823ZM67.1665 7.55019C67.1329 7.53376 67.0986 7.51846 67.064 7.50429C66.5674 7.23699 66.0128 7.103 65.4006 7.103C64.1587 7.103 63.1325 7.68822 62.3216 8.85834C62.3216 8.85834 62.0984 9.13846 62.0984 8.85834V8.25657C62.0984 8.02269 62.0119 7.81782 61.8378 7.64232C61.664 7.46682 61.4612 7.37874 61.2293 7.37874H59.6405C59.4083 7.37874 59.2058 7.46244 59.0324 7.6295C58.8583 7.7969 58.7714 7.99737 58.7714 8.2316V21.1251C58.7714 21.3759 58.8583 21.5851 59.0324 21.7522C59.2058 21.9192 59.4083 22.0026 59.6405 22.0026H61.2958C61.5177 22.0026 61.7392 21.928 61.9012 21.7748C62.0823 21.604 62.1729 21.3873 62.1729 21.1251V14.5763C62.1729 13.2556 62.4539 12.2026 63.0173 11.4162C63.5796 10.6309 64.2586 10.2377 65.0531 10.2377C65.2566 10.2377 65.4668 10.2677 65.6826 10.3261C65.9606 10.4007 66.2517 10.2569 66.386 10.0001L67.361 8.13642C67.4743 7.92042 67.3844 7.6565 67.1665 7.55019V7.55019ZM44.6673 14.4338C44.6706 15.6326 45.0729 16.6451 45.8628 17.4426C46.6771 18.2651 47.6845 18.6823 48.8566 18.6823C50.0087 18.6823 51.0055 18.2651 51.8201 17.4426C52.6304 16.6242 53.043 15.612 53.0463 14.4338C53.0474 13.2344 52.6347 12.2168 51.8204 11.394C51.0058 10.5715 50.0091 10.1547 48.857 10.1547C47.6848 10.1547 46.6774 10.5715 45.8628 11.3943C45.0692 12.1959 44.6669 13.2134 44.6669 14.4183L44.5186 14.4342L44.6673 14.4338V14.4338ZM48.3919 22.0195C46.385 22.0195 44.68 21.2766 43.3244 19.8116C41.9648 18.3424 41.2735 16.5331 41.2698 14.4345C41.2698 12.2883 42.0042 10.4831 43.453 9.05139C44.9319 7.58967 46.7499 6.84852 48.857 6.84852C50.9751 6.84852 52.7834 7.59035 54.2312 9.0524C55.6994 10.4719 56.4448 12.2782 56.4448 14.4183L56.4442 20.9925C56.4442 21.549 55.9787 22.0195 55.4277 22.0195H54.2806C53.6949 22.0195 53.2983 21.6246 53.2983 20.98L53.2642 19.7457C53.2615 19.7231 53.2458 19.6455 53.1854 19.6455C53.1439 19.6455 53.0744 19.6782 53.0036 19.77C51.9036 21.2618 50.3516 22.0195 48.3919 22.0195V22.0195ZM116.503 9.82629C114.717 9.82629 113.466 10.6619 112.784 12.3103C112.752 12.367 112.769 12.4068 112.777 12.422C112.79 12.4438 112.809 12.4617 112.831 12.4738C112.853 12.4859 112.878 12.4918 112.903 12.4908H120.071C120.162 12.4908 120.2 12.4703 120.208 12.4581C120.217 12.4449 120.223 12.398 120.189 12.3052C119.529 10.6383 118.323 9.82629 116.503 9.82629ZM116.596 22.0195C114.489 22.0195 112.67 21.2783 111.192 19.8166C109.743 18.3532 109.008 16.5371 109.008 14.4183C109.008 12.2998 109.732 10.4945 111.159 9.05274C112.608 7.59001 114.405 6.84886 116.503 6.84886C118.6 6.84886 120.367 7.55862 121.753 8.95857C123.159 10.3477 123.873 12.0585 123.873 14.0423C123.873 14.6606 123.407 15.0926 122.74 15.0926H112.624C112.583 15.0926 112.53 15.098 112.506 15.1257C112.481 15.1551 112.472 15.2222 112.483 15.31C112.632 16.2729 113.074 17.0866 113.835 17.7943C114.608 18.4545 115.538 18.7913 116.596 18.7913C117.912 18.7913 118.984 18.2942 119.874 17.2719C120.132 16.9674 120.436 16.8125 120.777 16.8125C120.985 16.8125 121.207 16.8716 121.437 16.988L122.302 17.3934C122.637 17.5537 122.861 17.8213 122.92 18.1281C122.973 18.4011 122.888 18.683 122.688 18.9023C121.211 20.9661 119.158 22.0195 116.596 22.0195V22.0195ZM40.0599 21.4528L40.0595 21.4532L40.0599 21.4528ZM36.7813 21.7569C36.8341 21.763 36.8859 21.7711 36.9387 21.7761C36.8859 21.7711 36.8341 21.763 36.7813 21.7569ZM36.494 21.7181C36.5157 21.7215 36.5371 21.7262 36.5591 21.7296C36.5371 21.7262 36.5157 21.7215 36.494 21.7181ZM37.7146 21.8146C37.6772 21.8146 37.6404 21.8123 37.6033 21.8119C37.6407 21.8123 37.6772 21.8146 37.7149 21.8146H37.7146ZM38.3909 7.08005C38.3678 7.07802 38.3454 7.07364 38.3224 7.07195C38.3454 7.07364 38.3678 7.07802 38.3909 7.08005ZM39.3251 18.5712C39.3121 18.5709 39.2991 18.5712 39.286 18.5719C39.293 18.5716 39.3001 18.5689 39.3071 18.5689C39.3134 18.5689 39.3191 18.5712 39.3251 18.5712ZM40.6463 20.6006L40.0936 18.9462C39.982 18.6117 39.6659 18.3866 39.3071 18.3866C39.2189 18.3868 39.1313 18.4008 39.0474 18.4281C38.6159 18.5636 38.1665 18.6325 37.7146 18.6323C36.5585 18.6323 35.4715 18.1943 34.6546 17.3998C33.8393 16.6063 33.3902 15.5523 33.3902 14.4315C33.3902 12.1152 35.3302 10.2306 37.7146 10.2306C38.168 10.2305 38.6187 10.2999 39.0515 10.4365C39.1353 10.4628 39.2209 10.4763 39.3067 10.4763C39.6656 10.4763 39.9817 10.2512 40.0936 9.9164L40.6459 8.26197C40.6796 8.16195 40.693 8.05611 40.6853 7.95076C40.6776 7.8454 40.649 7.74269 40.6012 7.64874C40.5514 7.55035 40.4826 7.46307 40.3988 7.39211C40.315 7.32114 40.2179 7.26792 40.1133 7.23564C39.3369 6.99047 38.5281 6.86597 37.7146 6.86641C33.4313 6.86641 29.9463 10.2603 29.9463 14.4315C29.9463 18.603 33.4313 21.9965 37.7146 21.9965C38.5328 21.9967 39.3463 21.8705 40.1267 21.6222C40.2286 21.589 40.323 21.5358 40.4044 21.4657C40.4859 21.3955 40.5529 21.3099 40.6015 21.2135C40.6984 21.0218 40.7144 20.8045 40.6463 20.6006V20.6006Z" fill="#B8B8B8"/>
</g>
</g>
<defs>
<clipPath id="clip0_13019_118116">
<rect width="139" height="27" fill="white" transform="translate(0.277344)"/>
</clipPath>
</defs>
</svg>
