<svg width="141" height="35" viewBox="0 0 141 35" fill="none" xmlns="http://www.w3.org/2000/svg">
<path d="M140.277 0H0.277344V35H140.277V0Z" fill="#B8B8B8"/>
<path fill-rule="evenodd" clip-rule="evenodd" d="M56.2077 8.25246L49.371 20.0377C49.231 20.2985 47.8777 22.3141 45.1244 22.5038C42.3944 22.6224 40.0844 20.0851 40.131 17.3582C40.2244 14.6549 42.2777 12.4733 45.0077 12.4259C47.341 12.4733 49.0444 14.2281 49.021 14.2518C49.511 14.6786 49.8377 14.9869 50.211 15.5323L52.7077 11.2403C52.6577 11.1895 52.611 11.1417 52.5666 11.0963L52.5625 11.0921L52.5618 11.0913C52.2156 10.7372 52.0122 10.5292 51.5177 10.1732C50.0944 8.91642 48.0177 7.92049 45.101 7.82564C42.301 7.77821 39.4544 8.91642 37.2844 11.6908C35.931 13.4456 35.3944 15.0343 35.3244 17.3582C35.3477 20.0851 36.351 22.2904 37.821 23.8792C40.341 26.4639 43.3744 27.0804 44.9844 27.0804C47.3177 26.9855 49.021 26.4164 50.631 25.3731C51.1444 25.0174 51.681 24.5668 52.2644 23.974H56.6044V26.6535H61.061V8.25246H56.2077ZM56.651 20.1325H54.271L56.651 15.9591V20.1325ZM65.4707 26.7717V12.6152H61.9707V8.32324H73.7307V12.6152H70.114V26.7717H65.4707ZM79.1674 19.7054H83.9274V26.7717H88.5941V8.32324H83.9274V15.3185H79.1674V8.32324H74.5474V26.7717H79.1674V19.7054ZM127.094 8.32319V18.5671L120.141 8.32319H115.964V14.5596C115.497 13.1369 114.657 11.8327 113.491 10.7182C111.647 8.96343 109.244 7.99121 106.724 7.99121C104.041 7.99121 101.684 8.89229 99.8175 10.6945C97.9508 12.4729 96.9475 14.8205 96.9475 17.3577C96.9475 19.3733 97.4608 21.1518 98.4408 22.6931H94.8941V8.32319H90.2741V26.7717H100.307V24.8273C102.057 26.3449 104.227 27.1037 106.701 27.1037C109.337 27.1037 111.857 26.084 113.677 24.2344C114.751 23.1674 115.497 21.8869 115.964 20.4878V26.7717H120.607V16.5041L127.677 26.7717H131.761V8.32319H127.094ZM106.677 22.5271C104.064 22.5271 101.684 20.2981 101.684 17.3814C101.684 14.6782 103.901 12.5203 106.724 12.5203C109.384 12.5203 111.601 14.6782 111.601 17.3814C111.624 20.4167 109.407 22.5271 106.677 22.5271ZM35.3474 8.22852V12.3071V12.3308H29.584V15.3186H34.5774V19.2786H29.584V22.6933H35.3474V26.6533H25.034V19.3261C24.7307 21.3654 23.844 23.0964 22.4207 24.4717C20.3907 26.3925 18.5941 26.7482 15.9341 26.7482H8.81738V8.29965H15.304C18.314 8.29965 20.414 8.67905 22.3974 10.5049C23.8207 11.8328 24.7307 13.6113 25.034 15.8166V8.22852H35.3474ZM13.4607 22.717H15.3274C18.874 22.717 20.554 21.1045 20.554 17.4765C20.554 14.1567 18.7107 12.2834 15.304 12.2834H13.4607V22.717Z" fill="white"/>
</svg>
