<svg width="185" height="21" viewBox="0 0 185 21" fill="none" xmlns="http://www.w3.org/2000/svg">
<path d="M120.291 11.9086C120.82 11.776 121.387 11.6336 122.018 12.0815C121.655 13.11 120.854 13.5438 120.051 13.978C119.82 14.1032 119.589 14.2285 119.368 14.3681C119.39 14.4086 119.412 14.446 119.433 14.482L119.434 14.4832C119.533 14.6545 119.615 14.7956 119.679 15.0956C120.403 14.961 121.017 14.565 121.622 14.1756C121.951 13.9635 122.277 13.7534 122.616 13.5886C123.033 14.0273 123.199 14.4324 123.329 14.7499C123.361 14.8273 123.391 14.8995 123.421 14.9657C123.759 14.5759 124.097 14.1862 124.149 13.6665C123.161 10.2107 123.057 10.1588 118.822 10.7824C118.753 10.682 118.683 10.5798 118.613 10.4765C117.977 9.53753 117.28 8.50941 115.782 7.92418C115.93 8.10108 116.068 8.26418 116.196 8.41602C117.235 9.64644 117.649 10.1372 118.043 11.2241C117.921 11.3094 117.797 11.3932 117.672 11.4774C116.735 12.111 115.774 12.761 115.522 14.1602C115.822 14.6938 116.137 15.2416 116.451 15.7895L116.452 15.7912L116.453 15.7923L116.453 15.7933C116.873 16.5247 117.293 17.2562 117.679 17.9538C118.302 18.1616 118.666 18.0317 119.082 17.7459C118.657 16.9901 118.241 16.2344 117.835 15.4959C117.571 15.016 117.311 14.5427 117.055 14.0822C117.471 13.3287 118.017 12.913 118.614 12.5232C118.771 12.5232 118.877 12.6366 118.984 12.7503C119.142 12.9193 119.301 13.089 119.628 12.887C119.74 12.8085 119.711 12.6767 119.681 12.5335C119.64 12.3449 119.596 12.1365 119.861 12.0036C120.002 11.9811 120.145 11.9452 120.291 11.9086Z" fill="#B8B8B8"/>
<path d="M112.456 14.1351C112.638 12.9918 113.365 10.8352 114.769 9.61395C114.301 11.2249 113.885 12.9918 113.989 14.8366C113.313 14.7067 112.872 14.4469 112.456 14.1351Z" fill="#B8B8B8"/>
<path d="M110.377 10.7053C111.676 9.76994 113.053 8.96445 114.846 8.44479C112.767 8.13298 111.676 8.34085 110.065 9.27625C110.013 9.48412 109.961 10.1857 110.377 10.7053Z" fill="#B8B8B8"/>
<path d="M111.131 7.06713C111.105 6.46951 111.365 6.07976 111.729 5.66402C113.08 5.89787 114.249 6.49549 115.236 7.53483C113.885 7.06713 112.508 7.04114 111.131 7.06713Z" fill="#B8B8B8"/>
<path d="M116.327 5.06327C116.32 4.85085 116.314 4.63577 116.328 4.41711C115.99 4.33913 115.418 4.26116 114.924 4.52108C115.392 5.19687 115.73 5.92464 115.938 6.80836C116.36 6.23361 116.343 5.65885 116.327 5.06327Z" fill="#B8B8B8"/>
<path fill-rule="evenodd" clip-rule="evenodd" d="M106.896 10.3415C106.922 4.52122 111.573 -0.0258726 117.42 0.0001108C123.006 0.0260942 127.709 4.83302 127.657 10.4194C127.605 16.1358 122.928 20.7868 117.212 20.7868C111.495 20.7868 106.87 16.1098 106.896 10.3415ZM108.507 10.2635C108.481 15.1224 112.431 19.1499 117.238 19.1499C121.941 19.1499 125.89 15.1744 125.89 10.4714C125.916 5.66449 122.019 1.68903 117.238 1.63706C112.561 1.61108 108.533 5.56055 108.507 10.2635Z" fill="#B8B8B8"/>
<path d="M177.256 5.80361C177.415 5.38206 177.578 4.94965 177.752 4.49569C175.18 3.04062 172.711 2.88472 170.191 4.02799C168.866 4.59963 167.982 5.66494 167.54 7.04206C166.709 9.74433 168.216 11.7191 171.516 12.2387C171.601 12.2524 171.688 12.2633 171.775 12.2743C172.355 12.3473 172.96 12.4235 173.231 13.3041C171.773 14.5159 170.558 13.8281 169.343 13.1402C169.021 12.9578 168.699 12.7755 168.372 12.6285C168.156 13.1862 167.939 13.734 167.725 14.2761L167.722 14.2837L167.721 14.2879C167.448 14.9794 167.178 15.6617 166.917 16.3441C167.748 16.9157 168.58 17.1236 169.411 17.3315C171.724 17.9031 174.036 17.9031 176.141 16.578C177.934 15.4347 178.428 13.6678 178.09 11.7191C177.804 10.0302 176.479 9.27663 174.946 8.83492C174.675 8.75625 174.395 8.69817 174.114 8.6399C173.561 8.52494 173.003 8.40925 172.503 8.13336C172.347 7.74361 172.347 7.35386 172.711 7.19796C173.81 6.73324 174.771 7.16152 175.762 7.60323C175.99 7.70485 176.22 7.80718 176.453 7.89951C176.73 7.19823 176.987 6.51742 177.255 5.80567L177.256 5.80361Z" fill="#B8B8B8"/>
<path fill-rule="evenodd" clip-rule="evenodd" d="M137.244 10.601C137.27 6.39165 140.336 3.40357 144.597 3.37758C148.755 3.37758 151.899 6.44362 151.899 10.523C151.899 14.5504 148.755 17.6165 144.571 17.6165C140.518 17.6165 137.218 14.4725 137.244 10.601ZM141.765 10.497C141.765 12.3938 142.934 13.641 144.649 13.615C146.26 13.5631 147.455 12.2379 147.429 10.497C147.429 8.65221 146.338 7.43099 144.649 7.40501C142.882 7.37902 141.765 8.57426 141.765 10.497Z" fill="#B8B8B8"/>
<path fill-rule="evenodd" clip-rule="evenodd" d="M1.81211 3.45646C3.96007 3.41232 6.06736 3.36901 8.15878 3.89694C11.7965 4.78038 13.5633 7.53462 13.1996 11.614C12.9137 14.81 10.3674 17.2264 6.93756 17.3823C5.36217 17.4548 3.77416 17.4388 2.14715 17.4225C1.43953 17.4155 0.724541 17.4083 0 17.4083V3.48121C0.607568 3.48121 1.21145 3.4688 1.81211 3.45646ZM4.93684 13.199C6.21003 13.3549 7.22338 13.0951 7.84698 12.0557C8.49656 10.9904 8.39263 9.87312 7.71706 8.85977C7.06748 7.92437 6.08011 7.76847 4.93684 7.89838V13.199Z" fill="#B8B8B8"/>
<path d="M77.9759 17.383H73.143C72.9092 14.9145 72.6753 12.4721 72.3895 9.79582C72.0078 10.9633 71.6456 12.0822 71.2922 13.1736L71.2899 13.1809C70.8262 14.6132 70.3778 15.9981 69.9211 17.383H66.959C66.7633 16.7399 66.5657 16.0931 66.3657 15.4385L66.3645 15.4346C65.8214 13.6569 65.2608 11.8217 64.6724 9.84779C64.5603 10.9913 64.4482 12.0913 64.3382 13.1707L64.3378 13.175L64.3374 13.1781C64.1927 14.5978 64.0516 15.982 63.9189 17.383H59.06C59.4367 15.0707 59.807 12.7714 60.1772 10.4721C60.5475 8.17236 60.9178 5.87258 61.2946 3.55981H66.4913C67.0248 5.53833 67.5583 7.55489 68.1407 9.75595L68.44 10.8871L68.6925 9.99469C69.3197 7.77823 69.8932 5.75137 70.4667 3.66375C71.6831 3.42773 72.8742 3.45811 74.0842 3.48897C74.6059 3.50228 75.1311 3.51567 75.6634 3.50784C76.1808 6.59502 76.6868 9.63639 77.1965 12.7004L77.1997 12.7198C77.4568 14.2655 77.7149 15.817 77.9759 17.383Z" fill="#B8B8B8"/>
<path d="M32.8171 10.2893C32.9211 12.6538 32.947 14.9663 32.8171 17.3568H28.0622V3.61157H32.8951C33.9865 5.46305 35.1217 7.35839 36.257 9.25373L36.258 9.25538C36.6359 9.88638 37.0139 10.5174 37.3902 11.1467C37.1304 8.62636 37.1304 6.13196 37.2083 3.5596H41.9373V17.3308H37.1304C35.7792 15.0702 34.2982 12.6798 32.8171 10.2893Z" fill="#B8B8B8"/>
<path fill-rule="evenodd" clip-rule="evenodd" d="M165.695 12.7581C165.41 11.5369 164.5 10.9393 163.461 10.4196C165.28 9.17242 165.825 8.05513 165.384 6.28826C164.968 4.62532 163.643 3.89779 162.136 3.76787C159.776 3.55135 157.415 3.60548 155.055 3.65961C154.583 3.67044 154.111 3.68126 153.639 3.68992V17.4091C154.512 17.4091 155.373 17.4163 156.226 17.4234C158.193 17.4397 160.119 17.4556 162.058 17.3832C164.76 17.3052 166.319 15.2265 165.695 12.7581ZM160.109 13.9534C159.667 14.0086 159.212 13.9986 158.734 13.9881C158.538 13.9837 158.339 13.9793 158.134 13.9793V12.0306C158.349 12.0306 158.554 12.0261 158.753 12.0217C159.229 12.0112 159.669 12.0016 160.109 12.0566C160.629 12.1085 160.967 12.4463 160.967 12.992C160.992 13.5636 160.629 13.9014 160.109 13.9534ZM160.109 9.01652C159.667 9.07178 159.212 9.06174 158.734 9.05122C158.538 9.0469 158.339 9.0425 158.134 9.0425V7.09375C158.349 7.09375 158.554 7.08924 158.753 7.08487C159.229 7.0744 159.669 7.06474 160.109 7.11973C160.629 7.1717 160.967 7.50948 160.967 8.05513C160.992 8.62677 160.629 8.96455 160.109 9.01652Z" fill="#B8B8B8"/>
<path fill-rule="evenodd" clip-rule="evenodd" d="M53.4999 3.5596H47.8875C46.2765 8.18464 44.6915 12.7577 43.1065 17.3568H48.4072C48.4844 17.1347 48.5545 16.9521 48.6227 16.7743C48.7381 16.4736 48.8482 16.1867 48.9788 15.7458H52.6165C52.8243 16.3174 53.0062 16.8371 53.1881 17.3828H58.4627C57.6599 15.1348 56.8629 12.9221 56.0746 10.7334L56.0731 10.7293C55.2037 8.31545 54.3445 5.92994 53.4999 3.5596ZM49.7063 12.316C49.8673 11.6051 50.0559 10.9012 50.2437 10.2006C50.4196 9.54409 50.5948 8.89015 50.7457 8.23661C50.8951 8.88428 51.0625 9.53195 51.2306 10.1825C51.4132 10.889 51.5967 11.5991 51.759 12.316H49.7063Z" fill="#B8B8B8"/>
<path d="M103.298 13.1371C103.291 13.3027 103.283 13.4589 103.283 13.6149C103.673 13.6279 104.069 13.6474 104.466 13.6668C104.862 13.6863 105.258 13.7058 105.648 13.7188C105.751 13.9554 105.849 14.1931 105.948 14.4312L105.949 14.4324C106.35 15.3962 106.753 16.3673 107.441 17.3045H98.2945V3.53332H107.285C107.146 3.83019 107.002 4.12244 106.859 4.4142C106.413 5.32265 105.969 6.22625 105.674 7.24895H103.543V8.52213C103.882 8.5504 104.199 8.57098 104.525 8.59224C104.799 8.61005 105.08 8.62836 105.388 8.65205C105.377 8.81843 105.365 8.9828 105.353 9.14578C105.277 10.1533 105.205 11.1088 105.518 12.1598C104.686 12.1858 104.063 12.1858 103.309 12.1858C103.326 12.559 103.311 12.8615 103.298 13.1371Z" fill="#B8B8B8"/>
<path d="M89.0192 17.3311V7.97708C88.5593 7.97708 88.1767 7.96518 87.7776 7.95278C87.3423 7.93925 86.8873 7.92511 86.2909 7.92511V3.58588H96.8142V7.97708H94.1119V17.3311H89.0192Z" fill="#B8B8B8"/>
<path d="M84.7831 3.53332H79.8463V17.3565H84.7831V3.53332Z" fill="#B8B8B8"/>
<path d="M128.109 15.7588L128.111 15.7545C128.448 14.9674 128.772 14.2076 129.086 13.4594C130.567 14.2909 131.242 13.9271 131.268 12.2382C131.285 10.3731 131.28 8.50795 131.274 6.61995C131.271 5.66732 131.268 4.70885 131.268 3.74162H135.737C135.701 4.98338 135.728 6.22194 135.756 7.45615C135.807 9.73415 135.857 11.9975 135.503 14.2389C135.14 16.4995 132.905 17.8506 130.229 17.6167C129.371 17.5388 128.514 17.4089 127.605 16.9412C127.776 16.5392 127.944 16.1457 128.109 15.7588Z" fill="#B8B8B8"/>
<path d="M12.5243 3.5596H18.2147L19.7737 7.11933L21.3846 3.5596H27.023L22.2161 11.1467V17.3048H17.3312L17.3832 11.2767L12.5243 3.5596Z" fill="#B8B8B8"/>
<path fill-rule="evenodd" clip-rule="evenodd" d="M180.926 4.84277V2.28516H181.971C182.239 2.28516 182.447 2.34925 182.595 2.47743C182.742 2.6032 182.816 2.77975 182.816 3.00709C182.816 3.15704 182.782 3.28523 182.714 3.39164C182.649 3.49564 182.556 3.57545 182.435 3.63108C182.389 3.65266 182.34 3.67006 182.288 3.68326C182.335 3.69531 182.379 3.71419 182.42 3.73991C182.5 3.78829 182.563 3.86931 182.609 3.98298L182.972 4.84277H182.642L182.293 3.99749C182.252 3.88865 182.191 3.81852 182.108 3.78708C182.026 3.75322 181.923 3.73629 181.8 3.73629H181.227V4.84277H180.926ZM181.227 3.50048H181.927C182.121 3.50048 182.267 3.45936 182.366 3.37713C182.468 3.29248 182.518 3.17156 182.518 3.01435C182.518 2.85714 182.468 2.73743 182.366 2.65519C182.267 2.57296 182.121 2.53185 181.927 2.53185H181.227V3.50048Z" fill="#B8B8B8"/>
<path fill-rule="evenodd" clip-rule="evenodd" d="M181.781 6.10742C183.186 6.10742 184.325 4.96846 184.325 3.56348C184.325 2.15849 183.186 1.01953 181.781 1.01953C180.376 1.01953 179.237 2.15849 179.237 3.56348C179.237 4.96846 180.376 6.10742 181.781 6.10742ZM181.781 5.70742C182.965 5.70742 183.925 4.74754 183.925 3.56348C183.925 2.37941 182.965 1.41953 181.781 1.41953C180.597 1.41953 179.637 2.37941 179.637 3.56348C179.637 4.74754 180.597 5.70742 181.781 5.70742Z" fill="#B8B8B8"/>
</svg>
