<svg width="134" height="46" viewBox="0 0 134 46" fill="none" xmlns="http://www.w3.org/2000/svg">
<mask id="mask0_13019_118034" style="mask-type:alpha" maskUnits="userSpaceOnUse" x="0" y="0" width="134" height="46">
<path d="M80.926 33.0344C80.6829 33.0563 80.3734 33.1001 79.9754 33.1657C79.6881 33.2095 79.4007 33.2751 79.1133 33.3407C79.0469 33.3626 78.9143 33.5376 78.7153 33.8877C78.4501 34.369 78.1627 35.1128 77.8974 36.0973C77.6984 36.863 77.4995 37.6287 77.3005 38.3944C77.3005 38.7882 77.3226 39.182 77.3226 39.5539C77.3226 40.1665 77.19 40.4727 76.9689 40.4946C76.792 40.4946 76.6594 40.429 76.571 40.2977C76.5046 40.1883 76.4383 40.1008 76.4383 39.9696C76.4383 39.8821 76.4825 39.5976 76.571 39.0945C76.6594 38.5038 76.7699 38.0444 76.8583 37.6943C77.2563 36.3817 77.6542 35.0253 78.0521 33.6251C78.0521 33.5376 78.0079 33.472 77.9637 33.472C77.9637 33.472 77.8974 33.472 77.7868 33.472C77.4773 33.4939 77.2342 33.5376 77.0352 33.6033C76.7699 33.6908 76.571 33.7564 76.4162 33.7783C76.4162 33.7783 76.3941 33.822 76.3941 33.9095C76.6152 34.3908 76.7036 34.6752 76.7257 34.7846C76.7257 34.8721 76.6815 34.9597 76.6815 34.9815H76.5046C76.3278 34.6971 76.0846 34.4565 75.7972 34.2377C75.6646 34.1721 75.5319 34.1064 75.3772 34.0627C75.1561 33.9533 75.0456 33.822 75.0456 33.647C75.0235 33.4501 75.0677 33.3189 75.1782 33.2532C75.3772 33.1438 75.753 33.0563 76.2393 32.9907C76.5931 32.9469 76.9689 32.9032 77.3226 32.8594C77.5658 32.8376 77.8974 32.7719 78.2953 32.6844C78.3174 32.6625 78.4279 32.6188 78.5827 32.5094C78.7153 32.4219 78.8038 32.3781 78.848 32.3781C78.848 32.3781 78.9143 32.4219 79.0248 32.4875C79.1354 32.5531 79.2459 32.5969 79.3564 32.5969C79.4007 32.5969 79.6217 32.575 80.0197 32.5094C80.4397 32.4438 80.6608 32.4219 80.6829 32.4219C80.926 32.4 81.1471 32.4 81.3903 32.3563C81.8545 32.3344 82.0756 32.3563 82.0977 32.4656C82.1198 32.7938 81.744 32.9907 80.926 33.0344Z" fill="#56585A"/>
<path d="M84.353 39.773C84.0435 40.0574 83.8225 40.2105 83.7119 40.2105C83.0266 40.2543 82.6729 39.8605 82.6066 38.9854C82.6066 38.8322 82.6287 38.5478 82.7392 38.1322C82.8497 37.6509 82.9161 37.3227 82.9161 37.1696C82.7392 37.3227 82.4076 37.7603 81.9212 38.4385C81.5012 39.051 81.2359 39.3573 81.1696 39.3573C81.1254 39.3573 81.0591 39.4011 80.9927 39.4011C80.7938 39.4229 80.6832 39.3135 80.6611 39.0729C80.6611 39.051 80.7717 38.6791 80.9927 37.979C81.258 37.1039 81.4128 36.5351 81.5012 36.2288C81.656 35.7038 81.8328 35.0256 82.0539 34.2161C82.076 34.0192 82.0981 33.8005 82.1423 33.5817C82.1865 33.3192 82.3413 33.1879 82.6066 33.166C82.7613 33.166 82.8497 33.2754 82.8718 33.5161C82.8718 33.5817 82.695 34.238 82.3413 35.4631C81.9655 36.7758 81.7444 37.5415 81.7002 37.804C81.9433 37.4759 82.1865 37.1696 82.4297 36.8414C82.9382 36.207 83.2698 35.9007 83.4466 35.8788C83.6456 35.8569 83.7561 36.0101 83.7782 36.2945C83.7782 36.3382 83.6898 36.7539 83.513 37.5415C83.314 38.3291 83.2256 38.8104 83.2256 38.9854C83.2256 39.3354 83.4466 39.5979 83.6677 39.5979C83.8446 39.5761 84.0656 39.4667 84.3309 39.2698C84.5962 39.051 84.751 38.9416 84.8173 38.9416C84.9278 38.9416 84.972 38.9854 84.9499 39.0948C84.8394 39.2698 84.6625 39.4886 84.353 39.773Z" fill="#56585A"/>
<path d="M87.2266 37.7823C86.6518 38.3511 86.0991 38.6573 85.6127 38.723C85.657 38.9417 85.7675 39.1168 85.9664 39.248C86.1212 39.3574 86.2981 39.4012 86.4528 39.3793C86.6297 39.3574 86.9171 39.2699 87.2929 39.0949C87.7129 38.8761 87.934 38.7667 87.934 38.7667C88.0224 38.7449 88.1108 38.7667 88.1772 38.8324C88.0887 38.9855 87.8013 39.2262 87.3592 39.4887C86.9171 39.7731 86.5855 39.9262 86.3644 39.9481C85.9886 39.97 85.657 39.8606 85.3917 39.5762C85.1706 39.3355 85.038 39.0511 85.0158 38.723C84.9716 38.2198 85.2148 37.6072 85.7454 36.8853C86.2759 36.1852 86.8286 35.8133 87.3592 35.7695C87.514 35.7695 87.6466 35.8133 87.8013 35.9446C87.9561 36.0758 88.0445 36.229 88.0445 36.3602C88.0887 36.754 87.8013 37.2134 87.2266 37.7823ZM87.2708 36.5134C86.9834 36.5352 86.6739 36.7321 86.3202 37.1041C86.0328 37.4322 85.8338 37.7385 85.7454 38.001C85.9443 37.9791 86.1212 37.9354 86.2981 37.826C86.3865 37.7823 86.5412 37.651 86.8065 37.4322C87.0718 37.2134 87.2708 36.929 87.4034 36.579C87.3592 36.5352 87.315 36.5134 87.2708 36.5134Z" fill="#56585A"/>
<path d="M97.0868 32.269C96.7994 32.2909 96.2688 32.4221 95.495 32.6628C94.655 32.9253 94.1686 33.1441 94.036 33.3191C93.9033 33.4722 93.7707 33.691 93.6602 33.9973C93.5496 34.238 93.4391 34.5005 93.3507 34.7411C93.3507 34.7411 93.3507 34.763 93.3507 34.7849C93.3507 34.7849 93.3507 34.8068 93.3507 34.8286C93.3507 34.8286 93.3728 34.8286 93.417 34.8286C93.4391 34.8286 93.5717 34.7849 93.7928 34.6755C94.0139 34.5661 94.1907 34.5224 94.3013 34.4786C94.6771 34.3692 95.2519 34.2379 96.0035 34.0411C96.0919 34.1723 96.114 34.2817 96.114 34.3255C96.0477 34.3911 95.9151 34.4786 95.7161 34.588C95.5171 34.6974 95.3624 34.7411 95.2961 34.7411C95.2076 34.7411 95.274 34.6974 95.2077 34.6974C95.2077 34.6974 94.8539 34.8505 94.1244 35.1568C93.6602 35.3537 93.3064 35.5287 93.0854 35.6819C92.9527 35.7475 92.8422 36.01 92.7095 36.4476C92.599 36.8851 92.5548 37.2351 92.5769 37.5195C92.599 37.7383 92.6874 37.979 92.8643 38.1977C93.0633 38.4603 93.3064 38.5915 93.5496 38.5697L93.7928 38.5478C93.9033 38.5478 94.036 38.4821 94.2128 38.4165C94.3897 38.329 94.5002 38.2853 94.5665 38.2634C94.6329 38.2634 94.8539 38.1321 95.2519 37.8915C95.6498 37.6508 95.9814 37.432 96.2467 37.2351C96.3572 37.1695 96.5341 37.0382 96.7773 36.8632C97.0204 36.6882 97.1752 36.6007 97.1973 36.5788L97.4405 36.5569C97.3078 36.8851 96.7772 37.432 95.8045 38.1977C94.9203 38.8541 94.1907 39.2041 93.6823 39.2479C93.1517 39.2916 92.7096 39.0728 92.3558 38.6353C92.0463 38.2415 91.8916 37.7821 91.8474 37.257C91.8474 37.1914 91.8695 37.082 91.8916 36.907C91.9358 36.732 91.9579 36.6007 91.98 36.5351C91.8916 36.5132 91.8253 36.4913 91.7368 36.4694C91.6263 36.4476 91.56 36.4038 91.56 36.3163C91.5379 36.0975 91.6705 35.8569 91.9579 35.6162C92.1127 35.485 92.2895 35.3318 92.4443 35.2006C92.9527 34.3255 93.1517 33.6473 93.0633 33.2097C93.3728 32.8597 93.9033 32.5534 94.6992 32.2909C95.2519 32.1377 95.8045 31.9846 96.3572 31.8314C96.6446 31.8096 96.8878 31.8096 97.0868 31.8096C97.352 31.8096 97.4847 31.8096 97.4626 31.8096C97.4626 31.8533 97.5289 31.9846 97.5289 32.0065C97.3299 32.2034 97.1973 32.269 97.0868 32.269Z" fill="#56585A"/>
<path d="M104.58 37.5849C104.492 37.8475 104.271 38.11 103.939 38.3944C103.608 38.6788 103.342 38.8538 103.121 38.8757C102.635 38.9413 102.259 38.7882 101.95 38.3944C101.662 38.0444 101.508 37.5631 101.463 36.9943C101.463 36.9067 101.463 36.7099 101.441 36.4036C101.441 36.1629 101.441 35.9879 101.419 35.8566C101.286 36.0973 100.889 36.5786 100.203 37.3662C99.341 38.3506 98.7441 38.8319 98.4346 38.8538C98.1693 38.8757 97.9704 38.7226 97.7935 38.4382C97.6609 38.2194 97.5724 38.0006 97.5503 37.8037C97.5282 37.3443 97.7493 36.4254 98.2578 35.0472C98.7662 33.6033 99.1863 32.8594 99.4958 32.8157C99.6063 32.7938 99.7168 32.8813 99.7831 33.0782C99.8274 33.2095 99.8495 33.3407 99.8716 33.472C99.8716 33.5158 99.7831 33.6689 99.5842 33.9095C99.3631 34.194 99.2084 34.3909 99.1641 34.4784C98.8989 34.9815 98.6778 35.4847 98.5009 36.0317C98.2799 36.7098 98.1914 37.2568 98.2135 37.6725C98.2135 37.7381 98.2799 37.8475 98.3904 38.0006C98.9873 37.6943 99.5842 37.1474 100.181 36.4254C100.513 36.0098 100.955 35.3535 101.552 34.4127C101.773 33.7345 101.994 33.0563 102.215 32.3781C102.679 31.0874 103.077 30.4311 103.409 30.4092C103.541 30.4092 103.63 30.4748 103.718 30.6061C103.785 30.7155 103.829 30.803 103.829 30.8905C103.829 30.9561 103.608 31.3937 103.188 32.2469C102.723 33.1876 102.48 33.7127 102.414 33.8658C102.237 34.3471 102.127 34.9159 102.06 35.5722C102.016 36.0754 102.016 36.4692 102.016 36.7755C102.082 37.7381 102.458 38.1975 103.099 38.1538C103.276 38.1319 103.541 38.0225 103.895 37.8037C104.116 37.6506 104.293 37.5412 104.426 37.4318L104.58 37.5849Z" fill="#56585A"/>
<path d="M110.749 37.2792C110.218 37.9355 109.666 38.3074 109.113 38.3949L108.737 38.4606C108.604 38.4824 108.45 38.4168 108.295 38.2637C108.14 38.1105 108.052 37.9793 108.03 37.8699C107.985 37.5855 108.074 37.2354 108.295 36.8198C108.516 36.4041 108.803 36.1197 109.113 35.9447C109.201 35.9228 109.246 35.9447 109.268 36.0322C109.29 36.1416 109.268 36.2291 109.179 36.3385C108.781 36.8416 108.604 37.3229 108.626 37.7605C108.671 37.8261 108.759 37.848 108.825 37.848C108.892 37.848 108.936 37.8042 108.98 37.8042C109.157 37.7824 109.356 37.7167 109.577 37.6073C109.909 37.4105 110.218 37.1042 110.506 36.6885C110.815 36.2291 110.948 35.8353 110.904 35.4852C110.837 34.9602 110.461 34.632 110.041 34.7414C109.842 34.7852 109.577 35.0258 109.245 35.4415C108.936 35.8572 108.759 36.0759 108.693 36.0759C108.494 36.1197 108.317 35.879 108.295 35.704C108.273 35.6384 108.604 34.8071 109.223 33.2319C109.312 32.9037 109.489 32.4224 109.71 31.7442C109.732 31.613 109.776 31.4161 109.865 31.1317C109.931 31.0879 110.063 31.0441 110.218 30.9785C110.417 31.066 110.528 31.1754 110.55 31.3286C110.572 31.4817 110.55 31.613 110.484 31.7442C110.152 32.3787 109.798 33.21 109.4 34.2164C109.555 34.1507 109.842 34.107 110.218 34.0413C110.55 33.9976 110.815 34.1288 111.08 34.4789C111.301 34.7852 111.434 35.0915 111.478 35.4196C111.5 35.9884 111.279 36.6229 110.749 37.2792Z" fill="#56585A"/>
<path d="M117.557 36.3823C117.535 36.6448 117.314 36.973 116.872 37.323C116.43 37.6949 116.098 37.87 115.855 37.8918C115.789 37.8918 115.745 37.87 115.656 37.87C115.546 37.87 115.391 37.8262 115.214 37.6949C115.059 37.5855 114.971 37.498 114.927 37.4105C114.772 37.148 114.683 36.9073 114.683 36.6448C114.683 36.5573 114.683 36.4698 114.683 36.3823L113.865 37.2355C113.512 37.5418 113.18 37.7168 112.871 37.7387C112.76 37.7387 112.65 37.6512 112.517 37.4762C112.406 37.323 112.34 37.1699 112.34 37.0605C112.318 36.6667 112.605 36.0979 113.202 35.3322C113.799 34.5884 114.308 34.1946 114.683 34.1727C114.904 34.1508 114.971 34.3477 115.081 34.5008C115.126 34.3915 115.17 34.304 115.214 34.1946C115.28 34.0195 115.369 33.9102 115.457 33.9102C115.546 33.9102 115.656 33.9539 115.789 34.0633C115.833 34.1289 115.833 34.304 115.767 34.5227C115.634 34.7196 115.568 34.9165 115.501 35.0697C115.435 35.2447 115.391 35.5072 115.325 35.8354C115.28 36.1416 115.258 36.3167 115.258 36.3823C115.28 36.6011 115.347 36.798 115.457 36.973C115.612 37.2136 115.767 37.323 116.01 37.3011C116.187 37.2793 116.43 37.1699 116.717 36.9511C116.96 36.7761 117.204 36.5792 117.447 36.4042L117.557 36.3823ZM114.484 34.9822C114.374 34.9822 114.219 35.0915 114.02 35.2884C113.91 35.4197 113.777 35.5291 113.644 35.6822C113.49 35.8354 113.357 36.0323 113.202 36.2948C113.07 36.5573 112.981 36.7542 112.981 36.9292C113.003 36.9292 113.07 37.0167 113.136 37.0167C113.246 37.0167 113.512 36.7761 113.932 36.3604C114.308 35.9666 114.529 35.7041 114.595 35.6166C114.683 35.4416 114.75 35.2666 114.794 35.0697C114.728 35.0697 114.551 34.9822 114.484 34.9822Z" fill="#56585A"/>
<path d="M119.259 35.7252C119.326 35.3314 119.37 35.1564 119.37 35.1783C119.082 35.5283 118.861 35.7908 118.684 36.0315C118.375 36.4472 118.154 36.7972 118.043 37.0597C117.977 37.0597 117.778 37.191 117.712 37.191C117.645 37.191 117.557 37.1472 117.469 37.0597C117.38 36.9722 117.336 36.9066 117.336 36.8847C117.336 36.8409 117.38 36.4909 117.491 35.8565C117.623 35.222 117.712 34.697 117.8 34.3251C117.822 34.1938 118.065 34.0625 118.176 34.0625C118.198 34.0625 118.264 34.0844 118.331 34.1063C118.419 34.15 118.463 34.1938 118.486 34.1938C118.508 34.3251 118.486 34.5438 118.397 34.872C118.287 35.222 118.242 35.4408 118.242 35.5064C118.242 35.5283 118.264 35.5721 118.287 35.5721C118.419 35.4189 118.618 35.1783 118.861 34.8282C119.104 34.4782 119.281 34.2157 119.414 34.0844C119.635 33.8656 119.834 33.7563 120.033 33.7344C120.166 33.7344 120.254 33.8438 120.254 34.0625C120.276 34.3032 120.188 34.697 120.011 35.2439C119.834 35.7908 119.768 36.1846 119.768 36.3815C119.79 36.7316 119.922 36.8847 120.188 36.8628C120.298 36.8628 120.608 36.6878 121.094 36.3378C121.138 36.3596 121.227 36.3815 121.183 36.4472C121.116 36.6441 120.939 36.8628 120.696 37.1035C120.453 37.3441 120.254 37.4535 120.099 37.4754C119.591 37.5191 119.281 37.191 119.171 36.4909C119.171 36.3596 119.193 36.0971 119.259 35.7252Z" fill="#56585A"/>
<path d="M123.747 37.6292C123.217 37.6073 122.819 37.3448 122.509 36.8635C122.487 36.8197 122.443 36.6885 122.421 36.4697C122.399 36.2947 122.377 36.2072 122.355 36.1853C122.332 36.1853 122.266 36.229 122.133 36.2728C122.023 36.3384 121.935 36.3603 121.912 36.3384C121.824 36.3384 121.758 36.2728 121.691 36.1415C121.647 36.0321 121.625 35.9665 121.625 35.9228C121.625 35.6165 121.846 34.807 122.244 33.4944C122.576 32.4224 122.797 31.7004 122.951 31.3723C122.996 31.1535 123.062 30.9347 123.106 30.7378C123.239 30.3222 123.416 30.1253 123.593 30.1471C123.792 30.1471 123.88 30.3003 123.88 30.5847C123.615 31.2848 123.371 31.8973 123.195 32.4443C122.73 33.7132 122.509 34.4789 122.487 34.7195C122.487 34.7851 122.487 34.807 122.487 34.8289C122.797 34.4132 123.128 33.9976 123.438 33.5819C124.079 32.8162 124.499 32.4443 124.698 32.4443C124.72 32.4443 124.786 32.488 124.875 32.5755C124.941 32.663 124.985 32.7068 124.985 32.7287C124.963 32.8162 124.919 32.9256 124.875 33.0787C124.808 33.1443 124.72 33.2537 124.587 33.3631C124.411 33.5163 124.278 33.6038 124.256 33.6256C123.946 33.91 123.681 34.2601 123.416 34.6976C123.106 35.2008 122.951 35.6602 122.951 36.0759C122.951 36.4041 123.04 36.6666 123.239 36.8416C123.394 36.9947 123.593 37.0604 123.814 37.0823C124.123 37.0823 124.676 36.8197 125.45 36.229C125.494 36.229 125.538 36.229 125.604 36.229C125.604 36.229 125.626 36.2728 125.626 36.3603C124.963 37.2135 124.344 37.6511 123.747 37.6292Z" fill="#56585A"/>
<path d="M43.4541 0.875H48.0303V2.23139H45.1785V3.69717H47.8755V5.05357H45.1785V6.67249H48.1408V8.02888H43.4541V0.875Z" fill="#56585A"/>
<path d="M54.2209 8.02908H52.6955V7.0446H52.6734C52.3418 7.81031 51.6565 8.16034 50.9048 8.16034C49.5784 8.16034 49.0479 7.13211 49.0479 6.03824V2.71289H50.728V5.29441C50.728 6.30077 51.0375 6.62893 51.5017 6.62893C52.1871 6.62893 52.5408 6.10388 52.5408 4.96626V2.71289H54.2209V8.02908Z" fill="#56585A"/>
<path d="M58.6642 4.17849C58.4873 4.11286 58.2884 4.11286 58.0894 4.11286C57.3156 4.11286 56.8735 4.7473 56.8735 5.77554V8.0289H55.1934V2.69084H56.7187V3.67531H56.7409C57.0282 2.99712 57.4483 2.55957 58.1778 2.55957C58.3768 2.55957 58.5757 2.58145 58.7526 2.6252L58.6642 4.17849Z" fill="#56585A"/>
<path d="M58.8633 5.35987C58.8633 3.5878 60.0792 2.55957 61.693 2.55957C63.3068 2.55957 64.5227 3.5878 64.5227 5.35987C64.5227 7.13193 63.3068 8.13829 61.693 8.13829C60.0792 8.16016 58.8633 7.13193 58.8633 5.35987ZM62.7762 5.35987C62.7762 4.55041 62.4667 3.85033 61.693 3.85033C60.9192 3.85033 60.6097 4.55041 60.6097 5.35987C60.6097 6.14745 60.9192 6.84753 61.693 6.84753C62.4667 6.8694 62.7762 6.14745 62.7762 5.35987Z" fill="#56585A"/>
<path d="M65.208 2.69084H66.7555V3.65344H66.7776C67.1092 2.90961 67.8166 2.55957 68.5904 2.55957C69.9389 2.55957 70.6685 3.95972 70.6685 5.25048C70.6685 6.82565 69.8947 8.13829 68.4578 8.13829C67.8609 8.13829 67.2419 7.89764 66.9103 7.26319H66.8881V10.1729H65.208V2.69084V2.69084ZM67.9272 3.9816C67.3082 3.9816 66.9103 4.57228 66.9103 5.38174C66.9103 6.16933 67.3745 6.73814 67.9272 6.73814C68.5683 6.73814 68.9441 6.14745 68.9441 5.29424C68.9441 4.59416 68.5683 3.9816 67.9272 3.9816Z" fill="#56585A"/>
<path d="M72.8787 5.9068C72.9671 6.65063 73.4755 6.93503 74.2935 6.93503C74.7578 6.93503 75.2662 6.82565 75.7747 6.51937V7.81013C75.2441 8.05078 74.6251 8.13829 73.984 8.13829C72.3702 8.13829 71.1543 7.11005 71.1543 5.33799C71.1543 3.56593 72.2375 2.55957 73.7629 2.55957C75.5536 2.55957 76.2168 3.95972 76.2168 5.55676V5.88492H72.8787V5.9068ZM74.7356 4.85669C74.7356 4.24412 74.4704 3.74094 73.8071 3.74094C73.2103 3.74094 72.9229 4.24412 72.8787 4.85669H74.7356Z" fill="#56585A"/>
<path d="M80.2186 8.02948C80.2186 7.74508 80.1744 7.46067 80.1744 7.19814H80.1523C79.7765 7.85446 79.3122 8.16075 78.6048 8.16075C77.6542 8.16075 76.792 7.63569 76.792 6.47619C76.792 4.83539 78.4058 4.66038 79.2901 4.66038C79.5554 4.66038 79.8649 4.68225 80.0638 4.72601C80.0638 4.00405 79.5554 3.80716 78.9585 3.80716C78.4279 3.80716 77.8752 3.91655 77.411 4.20095L77.3889 2.95395C77.9858 2.69142 78.6048 2.58203 79.3343 2.58203C80.5723 2.58203 81.6556 3.17272 81.6556 4.79164V6.78248C81.6556 7.19815 81.6777 7.61381 81.744 8.05136H80.2186V8.02948ZM79.069 6.93562C79.7101 6.93562 80.1081 6.30117 80.1081 5.66673C79.887 5.66673 79.6438 5.64486 79.4006 5.64486C78.8258 5.64486 78.3837 5.84175 78.3837 6.34493C78.3837 6.71684 78.6711 6.93562 79.069 6.93562Z" fill="#56585A"/>
<path d="M82.6719 2.69084H84.1973V3.67531H84.2194C84.551 2.90961 85.2363 2.55957 85.9879 2.55957C87.3144 2.55957 87.8449 3.5878 87.8449 4.68167V8.0289H86.1648V5.44738C86.1648 4.44102 85.8553 4.11286 85.3911 4.11286C84.7057 4.11286 84.352 4.63791 84.352 5.77554V8.0289H82.6719V2.69084V2.69084Z" fill="#56585A"/>
<path d="M45.1345 12.8203H43.4102V19.9742H45.1345V12.8203Z" fill="#56585A"/>
<path d="M46.3057 14.6361H47.8311V15.6206H47.8532C48.1848 14.8549 48.8701 14.5049 49.6217 14.5049C50.9482 14.5049 51.4787 15.5331 51.4787 16.627V19.9523H49.7986V17.3708C49.7986 16.3645 49.4891 16.0363 49.0248 16.0363C48.3395 16.0363 47.9858 16.5614 47.9858 17.699V19.9523H46.3057V14.6361V14.6361Z" fill="#56585A"/>
<path d="M51.7441 14.6357H53.5348L54.5517 18.4205H54.5738L55.5908 14.6357H57.2488L55.4581 19.9738H53.5348L51.7441 14.6357Z" fill="#56585A"/>
<path d="M59.0837 17.8302C59.1722 18.5741 59.6806 18.8585 60.4986 18.8585C60.9628 18.8585 61.4713 18.7491 61.9798 18.4428V19.7554C61.4492 19.9961 60.8302 20.0836 60.1891 20.0836C58.5753 20.0836 57.3594 19.0554 57.3594 17.2833C57.3594 15.5112 58.4426 14.5049 59.968 14.5049C61.7587 14.5049 62.4219 15.905 62.4219 17.5021V17.8302H59.0837ZM60.9186 16.7801C60.9186 16.1676 60.6533 15.6644 59.9901 15.6644C59.3932 15.6644 59.1058 16.1676 59.0616 16.7801H60.9186Z" fill="#56585A"/>
<path d="M63.1073 18.4866C63.5052 18.6616 64.08 18.8585 64.6769 18.8585C65.0306 18.8585 65.3622 18.7928 65.3622 18.4209C65.3622 17.524 62.9746 18.1584 62.9746 16.2332C62.9746 15.0081 64.08 14.5049 65.0527 14.5049C65.6275 14.5049 66.2244 14.5705 66.7549 14.8112L66.6223 16.1019C66.2686 15.8613 65.738 15.7519 65.318 15.7519C64.9643 15.7519 64.5442 15.8175 64.5442 16.1238C64.5442 16.9551 67.0423 16.2988 67.0423 18.3334C67.0423 19.7554 65.8706 20.1274 64.7874 20.1274C64.0358 20.1274 63.5273 20.0398 63.0188 19.8648L63.1073 18.4866Z" fill="#56585A"/>
<path d="M67.3076 14.6363H68.3024V13.4331L69.9605 12.8643V14.6363H71.1322V15.9271H69.9605V17.896C69.9605 18.5524 70.0931 18.8586 70.6237 18.8586C70.8005 18.8586 70.9774 18.8149 71.1322 18.793L71.1985 19.9963C70.889 20.04 70.5574 20.1057 70.1373 20.1057C68.634 20.1057 68.2803 19.3837 68.2803 18.1148V15.949H67.3297V14.6363H67.3076Z" fill="#56585A"/>
<path d="M71.8174 14.6361H73.3428V15.6206H73.3649C73.6965 14.8549 74.3818 14.5049 75.1334 14.5049C75.8188 14.5049 76.3936 14.833 76.6588 15.5331C77.0568 14.8112 77.6979 14.5049 78.3832 14.5049C79.7759 14.5049 80.1075 15.38 80.1075 16.8239V19.9742H78.4274V17.1083C78.4274 16.4957 78.2284 16.0582 77.7642 16.0582C77.1673 16.0582 76.8136 16.5832 76.8136 17.7208V19.9742H75.1334V17.1083C75.1334 16.4957 74.9345 16.0582 74.4702 16.0582C73.8733 16.0582 73.5196 16.5832 73.5196 17.7208V19.9742H71.8395V14.6361H71.8174Z" fill="#56585A"/>
<path d="M82.4952 17.8302C82.5836 18.5741 83.0921 18.8585 83.9322 18.8585C84.3964 18.8585 84.9049 18.7491 85.4134 18.4428V19.7554C84.8828 19.9961 84.2638 20.0836 83.6227 20.0836C82.0089 20.0836 80.793 19.0554 80.793 17.2833C80.793 15.5112 81.8762 14.5049 83.4016 14.5049C85.1923 14.5049 85.8555 15.905 85.8555 17.5021V17.8302H82.4952ZM84.3301 16.7801C84.3301 16.1676 84.0648 15.6644 83.4016 15.6644C82.8047 15.6644 82.5173 16.1676 82.4731 16.7801H84.3301Z" fill="#56585A"/>
<path d="M86.6074 14.6361H88.1328V15.6206H88.1549C88.4865 14.8549 89.1718 14.5049 89.9235 14.5049C91.2499 14.5049 91.7805 15.5331 91.7805 16.627V19.9523H90.1003V17.3708C90.1003 16.3645 89.7908 16.0363 89.3266 16.0363C88.6413 16.0363 88.2876 16.5614 88.2876 17.699V19.9523H86.6074V14.6361V14.6361Z" fill="#56585A"/>
<path d="M92.2891 14.6363H93.2839V13.4331L94.9419 12.8643V14.6363H96.1136V15.9271H94.9419V17.896C94.9419 18.5524 95.0746 18.8586 95.6051 18.8586C95.782 18.8586 95.9588 18.8149 96.1136 18.793L96.1799 19.9963C95.8704 20.04 95.5388 20.1057 95.1188 20.1057C93.6155 20.1057 93.2618 19.3837 93.2618 18.1148V15.949H92.3112V14.6363H92.2891Z" fill="#56585A"/>
<path d="M43.4098 24.6992H46.3943C47.6102 24.6992 48.5166 25.2899 48.5166 26.515C48.5166 27.412 48.0965 27.9152 47.367 28.1777V28.1996C48.2292 28.3965 48.6713 28.8997 48.6713 29.7748C48.6713 31.4812 47.3007 31.8531 46.129 31.8531H43.3877V24.6992H43.4098ZM45.1563 30.4967H45.6647C46.3058 30.4967 46.9691 30.3873 46.9691 29.6654C46.9691 28.8778 46.2837 28.8122 45.6868 28.8122H45.1563V30.4967ZM45.1563 27.5214H45.6426C46.2174 27.5214 46.7922 27.3683 46.7922 26.7557C46.7922 26.0994 46.2395 26.0337 45.6647 26.0337H45.1563V27.5214V27.5214Z" fill="#56585A"/>
<path d="M52.7831 31.8537C52.7831 31.5693 52.7388 31.2849 52.7388 31.0224H52.7167C52.3409 31.6787 51.8767 31.985 51.1692 31.985C50.2186 31.985 49.3564 31.4599 49.3564 30.3004C49.3564 28.6596 50.9703 28.4846 51.8546 28.4846C52.1198 28.4846 52.4293 28.5065 52.6283 28.5502C52.6283 27.8283 52.1198 27.6314 51.5229 27.6314C50.9924 27.6314 50.4397 27.7408 49.9754 28.0252L49.9533 26.7782C50.5502 26.5156 51.1692 26.4062 51.8988 26.4062C53.1368 26.4062 54.22 26.9969 54.22 28.6159V30.6067C54.22 31.0224 54.2421 31.438 54.3084 31.8756H52.7831V31.8537ZM51.6114 30.738C52.2525 30.738 52.6504 30.1035 52.6504 29.4691C52.4293 29.4691 52.1862 29.4472 51.943 29.4472C51.3682 29.4472 50.9261 29.6441 50.9261 30.1473C50.9261 30.5192 51.2356 30.738 51.6114 30.738Z" fill="#56585A"/>
<path d="M55.3037 26.5151H56.8291V27.4995H56.8512C57.1828 26.7338 57.8681 26.3838 58.6198 26.3838C59.9462 26.3838 60.4768 27.412 60.4768 28.5059V31.8312H58.7966V29.2497C58.7966 28.2434 58.4871 27.9152 58.0229 27.9152C57.3376 27.9152 56.9838 28.4403 56.9838 29.5779V31.8312H55.3037V26.5151V26.5151Z" fill="#56585A"/>
<path d="M61.5156 24.1523H63.1958V28.7466H63.2179L64.6106 26.5151H66.4455L64.7654 28.9654L66.5781 31.8532H64.5443L63.2179 29.206H63.1958V31.8532H61.5156V24.1523Z" fill="#56585A"/>
<path d="M8.90096 0H2.93205L0.456055 35.7913L3.35208 35.6163C7.24293 28.528 9.49785 19.7333 9.58628 10.3261C9.6305 6.32255 9.51996 3.04095 8.90096 0Z" fill="#9D9D9C"/>
<path d="M14.1621 0.0869141L14.7369 34.4999L21.8554 35.2875L22.6512 0.283812L20.4405 0.240055L14.1621 0.0869141Z" fill="#56585A"/>
<path d="M31.9803 40.3421H28.0674L28.1337 0.853516L34.1689 0.941027L34.3016 10.0857L31.9803 40.3421Z" fill="#9D9D9C"/>
<path d="M120.962 21.1335L119.901 21.1773L119.525 20.1709L119.26 21.221L118.221 21.2648L119.105 21.8773L118.818 22.9493L119.658 22.2711L120.542 22.8618L120.144 21.8336L120.962 21.1335Z" fill="#56585A"/>
<path d="M122.244 43.8206L121.183 43.8644L120.807 42.8799L120.542 43.9081L119.48 43.9519L120.365 44.5426L120.077 45.5708L120.917 44.9145L121.802 45.4833L121.404 44.4988L122.244 43.8206Z" fill="#56585A"/>
<path d="M127.837 42.0048L126.775 42.0704L126.4 41.0859L126.134 42.0923L125.073 42.1579L125.958 42.7486L125.67 43.7768L126.51 43.0986L127.394 43.6893L126.997 42.683L127.837 42.0048Z" fill="#56585A"/>
<path d="M126.798 22.3368L125.715 22.4024L125.361 21.418L125.074 22.4243L124.013 22.49L124.919 23.0806L124.632 24.1089L125.472 23.4307L126.356 24.0214L125.958 23.015L126.798 22.3368Z" fill="#56585A"/>
<path d="M131.219 26.2962L130.158 26.3399L129.782 25.3555L129.517 26.3837L128.456 26.4275L129.34 27.0181L129.075 28.0464L129.893 27.3901L130.777 27.9589L130.401 26.9744L131.219 26.2962Z" fill="#56585A"/>
<path d="M129.672 39.4448L129.959 38.4166L129.053 37.8259L130.114 37.7821L130.379 36.7539L130.755 37.7384L131.816 37.6946L130.998 38.3728L131.396 39.3573L130.49 38.7885L129.672 39.4448Z" fill="#56585A"/>
<path d="M133.098 31.8095L132.037 31.8751L131.661 30.8906L131.396 31.897L130.335 31.9626L131.219 32.5533L130.932 33.5815L131.772 32.9033L132.656 33.494L132.28 32.4877L133.098 31.8095Z" fill="#56585A"/>
<path d="M115.259 22.9491L114.197 23.0148L113.844 22.0303L113.556 23.0366L112.495 23.1023L113.402 23.693L113.114 24.7212L113.932 24.043L114.838 24.6337L114.441 23.6273L115.259 22.9491Z" fill="#56585A"/>
<path d="M111.389 27.3251L110.328 27.3907L109.975 26.4062L109.687 27.4126L108.626 27.4782L109.532 28.0689L109.245 29.0972L110.063 28.419L110.969 29.0096L110.571 28.0033L111.389 27.3251Z" fill="#56585A"/>
<path d="M116.364 42.6171L115.303 42.6827L114.949 41.6982L114.662 42.7046L113.601 42.7702L114.507 43.3609L114.22 44.3892L115.038 43.711L115.944 44.3016L115.546 43.2953L116.364 42.6171Z" fill="#56585A"/>
</mask>
<g mask="url(#mask0_13019_118034)">
<rect x="-30.4668" y="-7.32422" width="179.841" height="61.0319" fill="#B8B8B8"/>
</g>
</svg>
