<svg width="156" height="26" viewBox="0 0 156 26" fill="none" xmlns="http://www.w3.org/2000/svg">
<mask id="mask0_13019_118037" style="mask-type:alpha" maskUnits="userSpaceOnUse" x="0" y="0" width="156" height="26">
<g clip-path="url(#clip0_13019_118037)">
<path d="M7.06472 0V7.39503H12.3279V10.339H7.06472V19.171C7.06472 21.0636 8.0891 22.1149 9.81995 22.1149H12.3279V25.059H9.53737C5.93436 25.059 3.63833 22.8861 3.63833 19.2761V10.339H0V7.39503H3.63833V0H7.06472Z" fill="#666E72"/>
<path d="M30.4484 19.3118C29.8126 22.9567 26.5982 25.3399 22.218 25.3399C16.7077 25.3399 13.2812 21.0291 13.2812 16.1224C13.2812 11.1807 16.3897 7.11523 21.8649 7.11523C27.3753 7.11523 30.3072 11.0055 30.3072 15.4916C30.3072 15.9472 30.2719 16.508 30.2366 16.8234H16.637C16.9195 20.1529 19.1096 22.431 22.218 22.431C24.8321 22.431 26.5275 21.3095 27.022 19.3118H30.4484ZM16.7429 14.3351H26.8455C26.6335 11.6364 24.7967 9.84894 21.8649 9.84894C19.0743 9.84894 17.2728 11.391 16.7429 14.3351Z" fill="#666E72"/>
<path d="M47.7581 13.6691V25.0596H44.3317V22.1857C43.4839 24.0783 41.2231 25.3399 38.5386 25.3399C34.9002 25.3399 32.4982 23.167 32.4982 20.0127C32.4982 16.6131 35.2182 14.5102 39.4217 14.5102H43.1306C43.9431 14.5102 44.3317 14.0897 44.3317 13.4589C44.3317 11.3209 42.7774 9.84894 40.0222 9.84894C37.5496 9.84894 35.748 11.391 35.642 13.1784H32.4629C32.7454 9.70874 35.9246 7.11523 40.1281 7.11523C44.7202 7.11523 47.7581 9.74379 47.7581 13.6691ZM44.3317 17.314V16.8935H39.7395C37.4082 16.8935 35.8893 18.0851 35.8893 19.9427C35.8893 21.5548 37.2316 22.6413 39.2097 22.6413C42.4594 22.6413 44.3317 20.5735 44.3317 17.314Z" fill="#666E72"/>
<path d="M50.1592 16.2276C50.1592 11.356 53.3737 7.11523 58.9901 7.11523C63.1583 7.11523 66.7614 9.56856 67.2559 13.5639H63.8295C63.5115 11.5663 61.4627 10.0943 59.0608 10.0943C55.4931 10.0943 53.7287 12.8279 53.7287 16.2276C53.7287 19.6272 55.5301 22.361 59.0608 22.361C61.4981 22.361 63.2996 21.0992 63.8648 19.1015H67.2559C66.6907 22.8165 63.5115 25.3399 58.9901 25.3399C53.3737 25.3399 50.1592 21.0992 50.1592 16.2276Z" fill="#666E72"/>
<path d="M69.4434 0H72.8698V10.5143C73.8253 8.30627 75.9447 7.11465 78.594 7.11465C82.6209 7.11465 85.2348 9.98855 85.2348 14.1942V25.059H81.8084V14.8602C81.8084 12.0564 80.1482 10.1638 77.6402 10.1638C74.8497 10.1638 72.8715 12.4068 72.8715 15.491V25.059H69.4452L69.4434 0Z" fill="#666E72"/>
<path d="M109.504 13.6691V25.0596H106.078V22.1857C105.23 24.0783 102.969 25.3399 100.285 25.3399C96.6463 25.3399 94.2443 23.167 94.2443 20.0127C94.2443 16.6131 96.9643 14.5102 101.168 14.5102H104.877C105.689 14.5102 106.078 14.0897 106.078 13.4589C106.078 11.3209 104.523 9.84894 101.768 9.84894C99.2957 9.84894 97.4941 11.391 97.3881 13.1784H94.209C94.4917 9.70874 97.6707 7.11523 101.874 7.11523C106.465 7.11523 109.504 9.74379 109.504 13.6691ZM106.078 17.314V16.8935H101.486C99.1543 16.8935 97.6354 18.0851 97.6354 19.9427C97.6354 21.5548 98.9777 22.6413 100.956 22.6413C104.206 22.6413 106.076 20.5735 106.076 17.314H106.078Z" fill="#666E72"/>
<path d="M116.001 22.4304V25.059H112.575V0H116.001V9.98855C117.026 8.27122 119.181 7.11465 121.618 7.11465C127.058 7.11465 130.131 10.9699 130.131 16.227C130.131 21.4841 127.058 25.3394 121.582 25.3394C119.218 25.3394 117.026 24.1827 116.001 22.4304ZM126.669 16.227C126.669 12.547 124.479 10.0937 121.194 10.0937C117.873 10.0937 115.719 12.547 115.719 16.227C115.719 19.907 117.873 22.3603 121.194 22.3603C124.479 22.3603 126.669 19.907 126.669 16.227Z" fill="#666E72"/>
<path d="M132.465 0H135.891V25.059H132.465V0Z" fill="#666E72"/>
<path d="M155.491 19.3118C154.856 22.9567 151.641 25.3399 147.263 25.3399C141.752 25.3399 138.325 21.0291 138.325 16.1224C138.325 11.1807 141.434 7.11523 146.91 7.11523C152.418 7.11523 155.35 11.0055 155.35 15.4916C155.35 15.9472 155.314 16.508 155.28 16.8234H141.68C141.962 20.1529 144.153 22.431 147.26 22.431C149.873 22.431 151.568 21.3095 152.063 19.3118H155.491ZM141.787 14.3351H151.892C151.682 11.6364 149.843 9.84894 146.913 9.84894C144.12 9.84894 142.317 11.391 141.787 14.3351Z" fill="#666E72"/>
<path d="M91.5922 9.36621V13.1864H87.8125V9.36621H91.5922ZM91.5922 21.2823V25.0587H87.8125V21.2736L91.5922 21.2823Z" fill="#666E72"/>
</g>
</mask>
<g mask="url(#mask0_13019_118037)">
<rect y="-13.374" width="155.556" height="52.7903" fill="#B8B8B8"/>
</g>
<defs>
<clipPath id="clip0_13019_118037">
<rect width="155.556" height="25.3394" fill="white"/>
</clipPath>
</defs>
</svg>
