<?xml version="1.0" standalone="no"?>
<svg viewBox="0 0 200 200" xmlns="http://www.w3.org/2000/svg">
  <path fill="#8247F5" d="M37.9,-71.3C44.4,-62,41.6,-42.2,43.4,-28.5C45.2,-14.9,51.7,-7.5,55.3,2.1C58.8,11.6,59.5,23.1,52.1,27.2C44.8,31.3,29.5,27.9,19.5,28.9C9.4,29.9,4.7,35.2,-4,42.1C-12.7,49.1,-25.4,57.6,-32.8,55.1C-40.2,52.6,-42.3,39.1,-46.5,28.1C-50.7,17.1,-57,8.5,-59.1,-1.2C-61.2,-11,-59.1,-21.9,-50.8,-25.8C-42.5,-29.7,-28,-26.5,-18.5,-34.1C-9,-41.6,-4.5,-59.9,5.6,-69.7C15.7,-79.4,31.5,-80.6,37.9,-71.3Z" transform="translate(100 100)" />
</svg>
