<?xml version="1.0" standalone="no"?>
<svg viewBox="0 0 200 200" xmlns="http://www.w3.org/2000/svg">
  <path fill="#14AA51" d="M17.5,-34.4C22.7,-27.3,26.9,-22.7,33.6,-17.3C40.3,-12,49.5,-6,48.3,-0.7C47.2,4.6,35.6,9.3,28.5,13.9C21.4,18.6,18.8,23.3,14.8,29.6C10.8,35.9,5.4,43.8,-5.3,52.9C-16,62.1,-31.9,72.5,-37.1,66.9C-42.2,61.2,-36.5,39.5,-44.9,25.7C-53.3,11.8,-75.8,5.9,-79.8,-2.3C-83.7,-10.5,-69.2,-21,-55.9,-26.5C-42.7,-31.9,-30.8,-32.4,-21.7,-37.2C-12.6,-42,-6.3,-51.2,-0.1,-51.1C6.2,-50.9,12.3,-41.5,17.5,-34.4Z" transform="translate(100 100)" />
</svg>
