<?xml version="1.0" standalone="no"?>
<svg viewBox="0 0 200 200" xmlns="http://www.w3.org/2000/svg">
  <path fill="#FF0066" d="M28.8,-42.8C39.8,-43.5,52.9,-40.8,57.6,-33.1C62.2,-25.4,58.5,-12.7,56.5,-1.2C54.4,10.4,54.2,20.8,48.3,26.3C42.4,31.9,30.8,32.6,21.8,32.4C12.8,32.2,6.4,31,-2.6,35.5C-11.7,40,-23.3,50.3,-30.2,49.3C-37,48.3,-39.1,36,-41.8,25.9C-44.6,15.8,-48.1,7.9,-55.4,-4.2C-62.8,-16.4,-74,-32.8,-71.7,-43.8C-69.5,-54.8,-53.8,-60.4,-39.6,-57.9C-25.4,-55.3,-12.7,-44.6,-1.9,-41.4C8.9,-38.1,17.8,-42.2,28.8,-42.8Z" transform="translate(100 100)" />
</svg>
