<svg xmlns:xlink="http://www.w3.org/1999/xlink"  width="109" height="32" viewBox="0 0 109 32" fill="none" xmlns="http://www.w3.org/2000/svg">
<path fill-rule="evenodd" clip-rule="evenodd" d="M0.865479 22.2302L4.71549 19.2812C6.75996 21.9505 8.93112 23.1805 11.3505 23.1805C13.7564 23.1805 15.8679 21.9647 17.8208 19.3165L21.7238 22.1949C18.9082 26.013 15.4051 28.0301 11.3505 28.0301C7.30925 28.0301 3.77375 26.0272 0.865479 22.2302Z" fill="url(#paint0_linear_27590_76371)"/>
<path fill-rule="evenodd" clip-rule="evenodd" d="M11.3383 9.41342L4.48589 15.3181L1.32022 11.6442L11.3519 3L21.3056 11.6509L18.1244 15.3113L11.3383 9.41342Z" fill="url(#paint1_linear_27590_76371)"/>
<path d="M48.004 7.98474H44.1243V24.1502H48.004V7.98474Z" fill="black"/>
<path fill-rule="evenodd" clip-rule="evenodd" d="M36.2834 24.2215C33.9963 24.2215 32.0904 23.4804 30.5445 21.998C28.9986 20.4944 28.2363 18.5674 28.2363 16.2167C28.2363 13.8449 29.0198 11.8967 30.5657 10.372C32.1328 8.82607 34.0386 8.06372 36.3046 8.06372C39.0998 8.06372 41.5776 9.27078 43.0174 11.1555L40.4975 13.8026C39.2903 12.5108 37.9775 11.8544 36.5587 11.8544C35.3516 11.8544 34.3563 12.2567 33.5304 13.0826C32.7257 13.9085 32.3234 14.9462 32.3234 16.1956C32.3234 17.4026 32.7257 18.4191 33.5304 19.245C34.3563 20.0497 35.3516 20.4521 36.5375 20.4521C38.0834 20.4521 39.4387 19.7744 40.561 18.4403L43.1871 20.9603C42.4671 21.9133 41.4927 22.6968 40.2856 23.3109C39.0789 23.9251 37.7446 24.2215 36.2834 24.2215Z" fill="black"/>
<path fill-rule="evenodd" clip-rule="evenodd" d="M53.8233 9.27764C53.8233 10.4383 52.8828 11.3792 51.7221 11.3792C50.5613 11.3792 49.6204 10.4383 49.6204 9.27764C49.6204 8.11702 50.5613 7.17615 51.7221 7.17615C52.8828 7.17615 53.8233 8.11702 53.8233 9.27764ZM53.6617 12.3491H49.7821V24.1498H53.6617V12.3491Z" fill="black"/>
<path fill-rule="evenodd" clip-rule="evenodd" d="M61.1615 24.2424C59.3193 24.2424 57.8368 23.6706 56.6723 22.5271C55.5287 21.3836 54.9567 19.9224 54.9567 18.1224C54.9567 16.3224 55.5287 14.8611 56.6932 13.7176C57.8581 12.5741 59.3615 12.0023 61.2251 12.0023C63.6606 12.0023 65.7991 13.1882 66.7944 15.4118L63.8085 16.9788C63.2156 15.9835 62.39 15.4753 61.3099 15.4753C60.5264 15.4753 59.8909 15.7294 59.3828 16.2376C58.8956 16.7459 58.6416 17.3812 58.6416 18.1224C58.6416 19.6683 59.7639 20.8118 61.2676 20.8118C62.3474 20.8118 63.3427 20.2188 63.7663 19.3082L66.7522 21.0871C65.7356 23.0354 63.6393 24.2424 61.1615 24.2424Z" fill="black"/>
<path fill-rule="evenodd" clip-rule="evenodd" d="M71.606 7.98474H67.7264V24.1501H71.606V20.0348L72.0605 19.6109L75.6069 24.1501H80.1201L74.6713 17.1762L79.8475 12.3494H75.1068L71.606 15.6142V7.98474Z" fill="black"/>
<path fill-rule="evenodd" clip-rule="evenodd" d="M80.8196 18.0415V7.98474H84.8613V17.8164C84.8613 19.574 85.8855 20.4211 87.3668 20.4211C88.8265 20.4211 89.8723 19.5317 89.8723 17.8164V7.98474H93.9136V18.0415C93.9136 22.658 90.6725 24.3945 87.3668 24.3945C84.0824 24.3945 80.8196 22.658 80.8196 18.0415Z" fill="black"/>
<path fill-rule="evenodd" clip-rule="evenodd" d="M102.643 24.4734C105.768 24.4734 108.301 21.7232 108.301 18.3306C108.301 14.938 105.768 12.1877 102.643 12.1877C101.37 12.1877 100.194 12.6447 99.2485 13.4158V12.3494H95.5305V28.9998H99.2485V23.2454C100.194 24.0165 101.37 24.4734 102.643 24.4734ZM99.2485 18.3369V18.3243C99.2519 16.8094 100.445 15.5825 101.916 15.5825C103.389 15.5825 104.583 16.8128 104.583 18.3306C104.583 19.8483 103.389 21.0787 101.916 21.0787C100.445 21.0787 99.2519 19.8517 99.2485 18.3369Z" fill="black"/>
<defs>
<linearGradient id="paint0_linear_27590_76371" x1="0.865479" y1="29.6055" x2="21.7238" y2="29.6055" gradientUnits="userSpaceOnUse">
<stop stop-color="#8930FD"/>
<stop offset="1" stop-color="#49CCF9"/>
</linearGradient>
<linearGradient id="paint1_linear_27590_76371" x1="1.32022" y1="17.536" x2="21.3056" y2="17.536" gradientUnits="userSpaceOnUse">
<stop stop-color="#FF02F0"/>
<stop offset="1" stop-color="#FFC800"/>
</linearGradient>
</defs>
</svg>
