<svg xmlns:xlink="http://www.w3.org/1999/xlink"  width="109" height="32" viewBox="0 0 109 32" fill="none" xmlns="http://www.w3.org/2000/svg">
<path d="M32.6599 16.4387L39.5397 7.3219H43.0501L37.4238 14.7299L43.1191 24.6776H39.6777L35.4688 17.2931L32.657 20.9722V24.6747H29.6814V7.3219H32.657V16.4387H32.6599Z" fill="black"/>
<path d="M44.0766 21.3303C44.0766 19.1693 45.6118 17.8158 48.3316 17.6014L51.7729 17.3401V17.0788C51.7729 15.4874 50.8443 14.8472 49.4011 14.8472C47.7278 14.8472 46.7964 15.5607 46.7964 16.794H44.3785C44.3785 14.2541 46.4254 12.5923 49.5391 12.5923C52.6527 12.5923 54.5358 14.3011 54.5358 17.5544V24.6776H52.049L51.8391 22.9452C51.3503 24.155 49.7921 24.9859 48.0038 24.9859C45.563 24.9859 44.0737 23.5383 44.0737 21.3303H44.0766ZM51.796 19.9298V19.3131L49.4011 19.504C47.633 19.6714 46.9603 20.2645 46.9603 21.2129C46.9603 22.2817 47.6589 22.8043 48.9354 22.8043C50.6776 22.8043 51.796 21.7356 51.796 19.9327V19.9298Z" fill="black"/>
<path d="M58.2328 24.6779V15.3702H56.0248V12.9479H58.2328V9.29236H61.0676V12.9479H63.2986V15.3702H61.0676V24.6779H58.2328Z" fill="black"/>
<path d="M64.4894 21.3303C64.4894 19.1693 66.0247 17.8158 68.7443 17.6014L72.1857 17.3401V17.0788C72.1857 15.4874 71.2571 14.8472 69.8139 14.8472C68.1406 14.8472 67.2092 15.5607 67.2092 16.794H64.7913C64.7913 14.2541 66.8382 12.5923 69.9519 12.5923C73.0655 12.5923 74.9487 14.3011 74.9487 17.5544V24.6776H72.4618L72.2518 22.9452C71.7631 24.155 70.2049 24.9859 68.4166 24.9859C65.9758 24.9859 64.4866 23.5383 64.4866 21.3303H64.4894ZM72.2087 19.9298V19.3131L69.8139 19.504C68.0457 19.6714 67.373 20.2645 67.373 21.2129C67.373 22.2817 68.0716 22.8043 69.3481 22.8043C71.0904 22.8043 72.2087 21.7356 72.2087 19.9327V19.9298Z" fill="black"/>
<path d="M77.7855 24.6776V7.01355H80.5973V24.6776H77.7855Z" fill="black"/>
<path d="M89.039 12.6188C92.5953 12.6188 95.1771 15.1351 95.1771 18.7906C95.1771 22.4461 92.5953 24.9625 89.039 24.9625C85.4826 24.9625 82.9008 22.4461 82.9008 18.7906C82.9008 15.1351 85.4826 12.6188 89.039 12.6188ZM89.039 22.3757C90.9911 22.3757 92.3394 20.9282 92.3394 18.7906C92.3394 16.653 90.9911 15.2055 89.039 15.2055C87.0868 15.2055 85.7385 16.653 85.7385 18.7906C85.7385 20.9282 87.0868 22.3757 89.039 22.3757Z" fill="black"/>
<path d="M97.4304 24.6776V12.9505H100.058L100.291 14.4715C101.013 13.2852 102.407 12.5952 103.965 12.5952C106.849 12.5952 108.336 14.4245 108.336 17.4634V24.6805H105.5V18.1504C105.5 16.1803 104.546 15.2289 103.083 15.2289C101.34 15.2289 100.271 16.4622 100.271 18.3619V24.6776H97.4361H97.4304Z" fill="black"/>
<path d="M16.9735 20.3325H8.48654V29.0001H16.9735V20.3325Z" fill="#19D89F"/>
<path d="M8.48698 3.00012L0 11.6677V20.3353H8.48698L16.971 11.6677V3.00012H8.48698Z" fill="black"/>
</svg>
