<svg xmlns:xlink="http://www.w3.org/1999/xlink"  width="123" height="32" viewBox="0 0 123 32" fill="none" xmlns="http://www.w3.org/2000/svg">
<g clip-path="url(#clip0_29372_4702)">
<path d="M52.2887 12.4502C53.4523 12.4502 54.4105 11.4914 54.4105 10.3955C54.4105 9.26544 53.4523 8.30657 52.2887 8.30657C51.2279 8.30657 50.2696 9.26544 50.2696 10.3955C50.2353 11.5256 51.1936 12.4502 52.2887 12.4502Z" fill="#F0612D"/>
<path d="M83.3614 13.8883C81.9584 13.8883 80.658 14.3335 79.4945 16.1826L76.1409 21.4904V17.5181L78.6047 14.5389C80.2474 12.587 82.2664 10.6352 82.2664 8.10115C82.2664 5.63562 80.5211 4.12891 77.8177 4.12891C74.7721 4.12891 73.1294 5.94381 73.1294 8.88875V15.9429L67.312 23.4422C66.7303 24.1271 66.0458 24.7435 65.7036 24.7435C65.2929 24.7435 64.848 24.4353 64.848 23.6477V17.1414H69.1598V14.1965H64.848V9.57362H61.6997V14.5732L54.5477 24.0586C54.3766 24.3668 54.3081 24.4011 54.1713 24.4011C53.9659 24.4011 53.8974 24.2641 53.8974 23.9901V14.1965H50.7834V15.3265L44.7948 22.6547V17.6893C44.7948 15.395 43.6997 13.8883 41.4412 13.8883C40.0382 13.8883 38.6693 14.3335 37.5058 16.1826L34.4259 21.2164V17.6893C34.4259 15.395 33.3309 13.8883 31.0724 13.8883C29.6693 13.8883 28.3689 14.3335 27.2054 16.1826L24.0229 21.2849V14.1965H20.8746V15.2922L15.8783 21.1137C15.7757 20.874 15.7073 20.6342 15.6046 20.3945L12.9354 14.1622H9.65023V15.2238L0 27.4829H3.59316L11.0191 17.8606L12.5932 21.5245C12.9696 22.5176 13.5171 23.7847 12.4563 24.6065C11.3612 25.4626 9.34222 24.6065 8.72626 23.0998L6.94679 25.2914C7.69964 26.8665 9.71862 27.9966 11.8061 27.8596C13.2091 27.7569 14.3726 27.2775 15.1939 26.5242L15.2282 26.4899C15.4335 26.3187 15.6046 26.1132 15.7415 25.9078L20.8404 19.9152V27.4829H23.8175L29.7035 17.8263C30.0457 17.2442 30.2511 17.0045 30.6275 17.0045C30.9697 17.0045 31.1749 17.1414 31.1749 17.929V27.5172H34.118L40.1066 17.8263C40.4488 17.2442 40.6541 17.0045 41.0305 17.0045C41.4069 17.0045 41.5781 17.1414 41.5781 17.929V27.5172H44.521L50.7491 19.9837V24.675C50.7491 26.2844 51.5704 27.7569 53.6922 27.7569C55.0609 27.7569 56.1561 27.3803 57.1142 25.8393L61.6314 19.8124V24.2641C61.6314 26.0447 62.6922 27.8254 65.4641 27.8254C67.1409 27.8254 68.6466 26.9693 69.9127 25.0517L70.426 24.2983L73.0952 20.8397V27.5172H76.004L82.0952 17.8263C82.4717 17.2442 82.6428 17.0045 83.0192 17.0045C83.3614 17.0045 83.5668 17.1414 83.5668 17.929V27.5172H86.7151V17.6893C86.7151 15.395 85.62 13.8883 83.3614 13.8883ZM76.1067 8.68329C76.1067 7.69023 76.6884 6.97112 77.6466 6.97112C78.2968 6.97112 79.0154 7.34779 79.0154 8.37509C79.0154 8.95724 78.7759 9.71059 77.9546 10.7721L76.1067 13.1692V8.68329Z" fill="#F0612D"/>
<path d="M90.7187 23.6133C89.6572 23.6133 88.6994 24.5379 88.6994 25.7023C88.6994 26.7982 89.6234 27.757 90.7187 27.757C91.8825 27.757 92.8407 26.8324 92.8407 25.7023C92.8407 24.5379 91.8825 23.6133 90.7187 23.6133Z" fill="#F0612D"/>
<path d="M114.707 12.5187C115.87 12.5187 116.829 11.5941 116.829 10.464C116.829 9.33392 115.905 8.37505 114.707 8.37505C113.646 8.37505 112.688 9.29967 112.688 10.464C112.688 11.5941 113.646 12.5187 114.707 12.5187Z" fill="#F0612D"/>
<path d="M119.362 20.4976L117.035 24.1275C116.863 24.4357 116.795 24.4357 116.658 24.4357C116.453 24.4357 116.384 24.2986 116.384 24.0247V14.3681H113.305V15.1899L107.692 24.0932C107.521 24.4014 107.453 24.4014 107.316 24.4014C107.111 24.4014 107.042 24.2644 107.042 23.9905V14.2653H104.134L104.099 15.3611C103.141 14.5735 101.943 14.0599 100.506 14.0599C96.5709 14.0599 93.6964 17.0391 93.6964 20.9085C93.6964 24.9493 96.5023 27.7572 99.3768 27.7572C101.704 27.7572 102.799 26.2505 103.449 25.0862C103.62 24.8123 103.757 24.5383 103.894 24.2644V24.4699C103.894 26.0451 104.955 27.723 106.803 27.723C108.171 27.723 109.233 27.3463 110.191 25.8054L113.202 21.0113V24.7439C113.202 26.319 114.023 27.7915 116.111 27.7915C117.479 27.7915 118.54 27.4149 119.498 25.8739L122.886 20.5319H119.362V20.4976ZM101.566 23.2371C100.951 24.2986 100.369 24.9493 99.7187 24.9493C98.521 24.9493 96.7757 23.8535 96.7757 20.977C96.7757 18.443 98.5558 16.8678 100.541 16.8678C102.526 16.8678 103.655 18.2376 103.963 18.9224C103.551 19.7101 102.799 21.1483 101.566 23.2371Z" fill="#F0612D"/>
</g>
<defs>
<clipPath id="clip0_29372_4702">
<rect width="122.886" height="32" fill="white"/>
</clipPath>
</defs>
</svg>
