<?xml version="1.0" encoding="UTF-8"?>
<svg id="Layer_1" data-name="Layer 1" xmlns="http://www.w3.org/2000/svg" viewBox="0 0 334.23 321.52">
  <defs>
    <style>
      .cls-1 {
        fill: #ac509e;
        stroke: #231f20;
        stroke-miterlimit: 10;
      }
    </style>
  </defs>
  <path class="cls-1" d="m201.38,313.04l-13.93-8.04c-16.36-9.45-36.3-10.43-53.31-2.63l-14.48,6.64c-42.84,19.65-90.63-17.86-80.88-63.47l3.3-15.42c3.87-18.11-1.59-37.06-14.6-50.66l-11.08-11.58c-32.77-34.26-11.88-90.1,35.35-94.49l15.96-1.49c18.76-1.75,35.32-12.47,44.28-28.68l7.63-13.8c22.58-40.82,83.29-37.83,102.73,5.07l6.57,14.5c7.72,17.03,23.41,29.35,41.97,32.93l15.79,3.05c46.73,9.03,63.36,66.72,28.14,97.62l-11.9,10.45c-13.99,12.27-20.85,30.61-18.34,49.03l2.13,15.68c6.3,46.4-44.13,79.06-85.34,55.27Z"/>
</svg>