<svg width="62" height="32" viewBox="0 0 62 32" fill="none" xmlns="http://www.w3.org/2000/svg">
<path fill-rule="evenodd" clip-rule="evenodd" d="M2.96063 5.33601V5.25707C2.96063 5.09949 2.88178 4.91568 2.69769 4.91568C2.51375 4.91568 2.40852 4.94201 2.1982 5.20451C1.88293 5.62484 1.40968 5.75624 0.936705 5.54591C0.463592 5.28345 0.226892 4.78428 0.463591 4.2327C1.12065 2.76191 2.25082 2 3.6703 2C6.19359 2 6.877 3.68112 6.9031 5.57228V5.65107C6.9031 6.13399 6.87668 6.82299 6.84755 7.58299C6.81171 8.51764 6.77176 9.55971 6.77176 10.4579C7.63929 9.74856 8.97965 8.82935 11.1087 8.82935C14.2629 8.82935 16.3657 11.7185 16.3657 15.6587C16.3657 17.2081 15.9714 18.4691 15.3406 19.4408C17.6214 18.4392 19.2328 16.3148 19.3776 12.2027C19.3256 11.3725 19.2815 10.7993 19.2815 10.7993C19.2815 9.72233 20.175 8.82935 21.2528 8.82935C22.3303 8.82935 23.2239 9.72233 23.2239 10.7993C23.2239 12.5408 23.1556 13.9065 23.0886 15.2448C23.0243 16.5307 22.9613 17.7915 22.9613 19.3358C22.9613 19.8348 23.3818 20.2552 23.8811 20.2552C25.4533 20.2552 27.1365 18.3648 27.3953 13.0496C27.3834 12.5 27.3684 11.9703 27.3504 11.4561H27.035C26.3778 11.4561 25.8522 10.9305 25.8522 10.2741C25.8522 9.61731 26.3778 9.0921 27.035 9.0921H27.2453C27.1926 8.01502 27.1663 7.01699 27.1663 6.07141C27.1663 4.99432 28.0599 4.10135 29.1376 4.10135C30.2154 4.10135 31.109 4.99432 31.109 6.07141C31.109 6.78213 31.0889 7.63299 31.0664 8.58895L31.0564 9.01317C31.8976 8.98694 32.87 8.9606 34.1319 8.9606C34.8677 8.9606 35.4459 9.53852 35.4459 10.2741C35.4459 11.0095 34.8677 11.5873 34.1319 11.5873C32.8436 11.5873 31.8448 11.5873 30.9776 11.5611C30.8987 13.7148 30.8461 16.0526 30.8461 18.1539C30.8461 19.2833 31.4243 20.2552 32.6861 20.2552C35.3913 20.2552 37.2913 18.0704 37.5244 12.7324C37.4877 9.96667 37.4149 8.09956 37.3591 6.66759C37.3169 5.58698 37.2845 4.75416 37.2845 3.96995C37.2845 2.89316 38.1781 2 39.2556 2C40.3339 2 41.2272 2.89316 41.2272 3.96995C41.2272 4.6685 41.2014 5.37989 41.1661 6.35752C41.0884 8.50463 40.9643 11.936 40.9643 19.3358C40.9643 19.8348 41.3845 20.2552 41.8846 20.2552C43.3619 20.2552 44.9381 18.5847 45.3369 13.9691C45.3181 13.6951 45.2983 13.4303 45.2791 13.1738C45.2213 12.4021 45.1691 11.706 45.1691 11.062C45.1691 9.98507 46.0623 9.09209 47.1403 9.09209C48.2178 9.09209 49.1114 9.98507 49.1114 11.062C49.1114 11.7685 49.0486 12.6322 48.9843 13.5147C48.9172 14.4365 48.8486 15.3788 48.8486 16.1839C48.8486 17.4973 49.3743 18.5479 50.9512 18.5479C53.3432 18.5479 54.3682 17.1033 54.3682 15.7899C54.3682 14.9848 54.2997 14.1453 54.2327 13.3241C54.1686 12.538 54.1058 11.7685 54.1058 11.062C54.1058 9.98507 54.999 9.09209 56.0769 9.09209C57.1545 9.09209 58.0485 9.98507 58.0485 11.062C58.0485 11.706 57.9962 12.4021 57.9382 13.1738C57.8661 14.1332 57.7853 15.2092 57.7853 16.4465V16.9193C57.8116 18.2589 57.943 19.4146 58.1007 20.4129C58.5738 20.1502 59.0472 19.651 59.6517 18.7844C59.9671 18.3378 60.4927 18.1802 60.9921 18.4165C61.5177 18.7054 61.7805 19.2046 61.5177 19.8348C60.9395 21.227 59.8357 22.3565 58.4164 22.8819C58.4427 23.0393 58.4427 23.2233 58.4427 23.4071C58.4427 26.4278 57.444 30 51.8714 30C47.6655 30 46.4828 28.135 46.4828 26.0338C46.4828 23.2733 49.381 22.6353 52.6445 21.9168C53.3248 21.7671 54.0209 21.6138 54.7099 21.4372L54.5785 19.9924C53.8955 20.833 52.2127 21.5684 50.0313 21.5684C48.3583 21.5684 47.166 20.9403 46.4151 19.9193C45.1791 22.1707 43.3006 23.2759 40.9643 23.2759C39.3337 23.2759 38.0271 22.2015 37.581 20.726C36.2104 22.3743 34.3319 23.2759 32.0287 23.2759C29.8511 23.2759 28.3706 22.3512 27.7024 20.9996C26.5021 22.5248 24.8872 23.2759 22.9613 23.2759C20.9373 23.2759 19.4128 21.621 19.4128 19.5985C19.4128 19.5306 19.4135 19.4628 19.4148 19.3948C17.1174 22.0256 13.4836 23.2759 9.26897 23.2759C4.66915 23.2759 3.09196 20.3864 3.09196 19.0732C3.09196 18.6793 3.12482 18.2197 3.15768 17.76C3.19055 17.3003 3.22342 16.8406 3.22342 16.4465C3.22342 11.1104 3.09445 8.48113 3.01721 6.90641C2.98419 6.23327 2.96063 5.75283 2.96063 5.33601ZM6.77176 15.0283L6.64046 19.2046C6.64046 19.2046 7.45521 20.2552 9.26897 20.2552C11.0037 20.2552 12.6858 18.9419 12.6858 15.6587C12.6858 13.426 11.6872 12.1125 10.1888 12.1125C7.84948 12.1125 6.8244 13.7412 6.77176 15.0283ZM54.1706 23.9877C54.3956 23.9447 54.6282 23.9003 54.868 23.8537C54.868 23.9325 54.8745 24.0113 54.8811 24.0901C54.8877 24.1689 54.8942 24.2477 54.8942 24.3265C54.9468 25.9026 54.2368 27.347 51.8714 27.347C50.4785 27.347 50.0313 26.638 50.0313 26.0338C50.0313 24.7783 51.6085 24.477 54.1706 23.9877Z" fill="#EE4E1D"/>
<path d="M21.3578 2.788C22.5932 2.788 23.5921 3.78614 23.5921 5.0207C23.5921 6.25522 22.5932 7.2534 21.3578 7.2534C20.1224 7.2534 19.1236 6.25522 19.1236 5.0207C19.1236 3.78614 20.1224 2.788 21.3578 2.788Z" fill="#EE4E1D"/>
</svg>
