<svg width="84" height="32" viewBox="0 0 84 32" fill="none" xmlns="http://www.w3.org/2000/svg">
<path d="M0.0414734 16.3159V16.2671C0.0414734 11.2369 3.8884 7.0857 9.33407 7.0857C11.5823 7.03686 13.7305 7.72058 15.4791 9.08802C15.8788 9.38104 16.0787 9.86941 16.0787 10.309C16.0787 11.1392 15.3792 11.8229 14.4799 11.8229C14.1302 11.8229 13.8305 11.7252 13.5806 11.5299C12.3816 10.5043 10.8828 9.91825 9.28409 9.91825C5.83684 9.91825 3.33884 12.7508 3.33884 16.2182V16.2671C3.33884 19.7345 5.83684 22.5671 9.28409 22.5671C10.9327 22.6159 12.5814 21.981 13.7805 20.8578C14.0303 20.6136 14.38 20.5159 14.7297 20.5159C15.5291 20.5159 16.1785 21.1508 16.2285 21.981C16.2285 22.4206 16.0287 22.8112 15.7289 23.1043C13.9803 24.7159 11.6322 25.5462 9.18419 25.4973C3.93836 25.4485 0.0414734 21.395 0.0414734 16.3159Z" fill="#388AED"/>
<path d="M17.3774 21.2976V21.2487C17.3774 18.3673 19.6756 16.9511 22.9729 16.9511C24.2219 16.9511 25.421 17.1464 26.62 17.4883V17.1464C26.62 15.2417 25.421 14.2162 23.2727 14.2162C22.2235 14.2162 21.2243 14.3627 20.2751 14.7534C20.1252 14.8022 19.9753 14.8511 19.7755 14.8511C19.0761 14.8511 18.4765 14.3139 18.4765 13.5813C18.4765 13.0441 18.8262 12.5557 19.3258 12.3604C20.7247 11.8232 22.1736 11.579 23.6724 11.579C25.7207 11.579 27.2195 12.1162 28.1687 13.0929C29.168 14.0697 29.6176 15.486 29.6176 17.2441V23.8371C29.6176 24.6185 28.9681 25.3022 28.1687 25.3022H28.1188C27.3194 25.3511 26.67 24.8138 26.62 24.0324C26.62 24.0324 26.62 24.0324 26.62 23.9836V23.4953C25.5209 24.765 23.9222 25.4976 22.2235 25.4487C19.6256 25.4487 17.3774 23.9836 17.3774 21.2976ZM26.67 20.3208V19.393C25.6708 19.0511 24.6216 18.8557 23.5725 18.8557C21.574 18.8557 20.375 19.6859 20.375 21.1022V21.151C20.375 22.4697 21.5241 23.2022 23.0229 23.2022C25.0712 23.2022 26.67 22.0301 26.67 20.3208Z" fill="#388AED"/>
<path d="M32.4656 8.01395C32.4656 7.18372 33.115 6.5 33.9643 6.5C34.8137 6.5 35.5131 7.18372 35.5131 8.01395V23.7395C35.5131 24.5697 34.8137 25.2535 33.9643 25.2535C33.115 25.2535 32.4156 24.5697 32.4156 23.7395V8.01395H32.4656Z" fill="#388AED"/>
<path d="M38.8099 8.01395C38.8099 7.18372 39.4593 6.5 40.3086 6.5C41.158 6.5 41.8574 7.18372 41.8574 8.01395V23.7395C41.8574 24.5697 41.158 25.2535 40.3086 25.2535C39.4593 25.2535 38.7599 24.5697 38.7599 23.7395L38.8099 8.01395Z" fill="#388AED"/>
<path d="M46.5553 8.01392C46.5553 7.67206 46.855 7.37904 47.2048 7.3302H54.0992C56.2975 7.3302 58.096 8.01392 59.1452 9.08834C60.0445 9.96741 60.4942 11.1395 60.4942 12.4093V12.4581C60.4942 15.4372 58.246 17.1465 55.2483 17.5372L60.3443 24.0814C60.4442 24.2278 60.5441 24.3744 60.5441 24.5209C60.5441 24.9116 60.2443 25.2046 59.8447 25.2046C59.5949 25.2046 59.395 25.0581 59.2451 24.8627L53.7995 17.7813H47.9042V24.5697C47.9042 24.9116 47.6045 25.2046 47.2547 25.2535C46.905 25.2535 46.6052 24.9604 46.5553 24.6186V8.01392ZM53.9493 16.6093C56.947 16.6093 59.1952 15.0953 59.1952 12.5558V12.5069C59.1952 10.1139 57.2967 8.59997 54.0493 8.59997H47.9042V16.6093H53.9493Z" fill="#388AED"/>
<path d="M62.2421 21.3959V21.347C62.2421 18.661 64.5902 17.1471 67.9873 17.1471C69.4366 17.1471 70.9353 17.3424 72.3339 17.6842V17.1471C72.3339 14.5099 70.7351 13.1912 68.0373 13.1912C66.7381 13.1912 65.4896 13.4843 64.2904 14.0703C64.1905 14.1191 64.0906 14.1191 63.9907 14.168C63.6909 14.168 63.3911 13.9238 63.3911 13.582C63.3911 13.3377 63.541 13.1424 63.7408 13.0448C65.0899 12.4099 66.5386 12.068 68.0373 12.068C69.7862 12.068 71.2349 12.5564 72.1838 13.4843C73.1333 14.461 73.5831 15.7796 73.533 17.1471V24.668C73.533 25.0098 73.2835 25.3029 72.9338 25.3029C72.5835 25.3029 72.2839 25.0587 72.2839 24.7169V24.668V23.0564C71.1348 24.668 69.2865 25.5471 67.288 25.4982C64.84 25.4494 62.2421 24.0819 62.2421 21.3959ZM72.3339 20.3215V18.8564C70.8853 18.4656 69.3865 18.2703 67.8878 18.2703C65.0899 18.2703 63.591 19.4913 63.591 21.2982V21.347C63.591 23.2029 65.3896 24.3261 67.3881 24.3261C70.0358 24.2773 72.3339 22.6657 72.3339 20.3215Z" fill="#388AED"/>
<path d="M77.03 7.76955C77.03 7.37886 77.3296 7.037 77.7794 6.98816C77.7794 6.98816 77.7794 6.98816 77.8294 6.98816C78.2792 6.98816 78.6288 7.33002 78.6288 7.72072V8.16025C78.6288 8.59979 78.2792 8.94165 77.8294 8.94165C77.4297 8.94165 77.0801 8.59979 77.0801 8.20909C77.0801 8.20909 77.0801 8.20909 77.0801 8.16025V7.76955H77.03ZM77.1802 12.7509C77.1802 12.4091 77.4297 12.1161 77.7794 12.1161C78.129 12.1161 78.4287 12.3602 78.4287 12.7021V12.7509V24.6184C78.4787 24.9603 78.2291 25.2044 77.8795 25.2532H77.8294C77.4798 25.2532 77.1802 25.0091 77.1802 24.6672V24.6184V12.7509Z" fill="#388AED"/>
<path d="M82.575 7.13488C82.575 6.79302 82.8252 6.5 83.1748 6.5C83.1748 6.5 83.1748 6.5 83.2249 6.5C83.5745 6.5 83.8741 6.79302 83.8741 7.13488V24.6186C83.9242 24.9605 83.674 25.2046 83.3243 25.2535H83.2743C82.9246 25.2535 82.625 25.0093 82.625 24.6674V24.6186V7.13488H82.575Z" fill="#388AED"/>
</svg>
