<svg fill="none" height="26" viewBox="0 0 110 26" width="110" xmlns="http://www.w3.org/2000/svg" xmlns:xlink="http://www.w3.org/1999/xlink"><clipPath id="a"><path d="m0 .314163h25.6655v24.8717h-25.6655z"/></clipPath><clipPath id="b"><path d="m32.5449 4.57823h77.4842v16.3439h-77.4842z"/></clipPath><g clip-path="url(#a)"><path d="m9.34608.28656h-9.3181259v24.85054h9.3181259z" fill="#6cb645"/><path d="m17.1123 12.722-7.77296-12.43544h-9.3113859l12.4286459 19.89124z" fill="#00a1df"/><path d="m17.8881 13.9635-4.6557 7.4559 2.3211 3.7111h9.3181z" fill="#00a1df"/><path d="m.0279541 25.1304h9.3113759l15.53247-24.84384h-9.3181z" fill="#9aca3c"/></g><g clip-path="url(#b)" fill="#404041"><path d="m37.5565 11.3779c2.4809 3.0366 4.8923 5.9894 7.4213 9.0847h-2.6269c-2.0392-2.4898-4.1051-5.0098-6.2334-7.6065-.5645.5842-1.0721 1.1096-1.6402 1.6955v5.8968h-1.9324v-15.82921h1.8789v7.03661l.2387.1139c2.3063-2.39712 4.6127-4.79608 6.9137-7.19147h2.618c-2.2903 2.34553-4.4239 4.53076-6.6377 6.79967z"/><path d="m54.8619 10.7779c.0446-.5663.0731-.93854.1087-1.39446h1.7952v11.07226h-1.7685c-.0428-.3812-.0855-.7498-.1425-1.2592-1.6224 1.4533-3.4248 2.0713-5.5121 1.5174-1.341-.3562-2.3936-1.1291-3.2075-2.2511-1.5957-2.196-1.3749-5.7543.5058-7.7419 1.1167-1.17896 2.5041-1.73818 4.1247-1.78983 1.6082-.05343 2.9155.58594 4.0962 1.84683zm-3.8575-.1727c-2.3384.0124-3.968 1.8023-3.9448 4.3313.0231 2.5022 1.6438 4.2493 3.9359 4.2476 2.3045-.0018 4.1247-1.895 4.0891-4.253-.0374-2.5646-1.7133-4.3402-4.082-4.3277z"/><path d="m76.246 10.6693c.0427-.4773.0748-.85127.114-1.29473h1.7685v11.05623h-1.7561c-.0409-.3616-.0837-.7284-.1407-1.2307-1.5814 1.4248-3.3286 2.0357-5.3571 1.5512-1.4158-.3366-2.52-1.1326-3.3678-2.3081-1.6545-2.2921-1.325-5.9502.7213-7.9252 2.1817-2.10692 5.1773-2.08021 8.0179.1513zm-7.797 4.1906c-.0125 2.545 1.6188 4.3331 3.9448 4.326 2.2778-.0071 4.0659-1.8397 4.073-4.1728.0072-2.5646-1.6509-4.3919-3.9964-4.4061-2.3598-.0142-4.009 1.7293-4.0214 4.2547z"/><path d="m91.6994 8.93449c3.4426.01781 5.9893 2.56461 5.9697 5.97151-.0178 3.3518-2.6714 6.009-6 6.0144-3.391.0053-6.0054-2.6519-5.984-6.082.0196-3.4266 2.5628-5.92172 6.0143-5.90569zm-4.0321 5.79351c-.0926 2.3686 1.5939 4.3241 3.8077 4.415 2.3312.0961 4.1069-1.635 4.2084-4.1034.0961-2.3669-1.6064-4.3295-3.8255-4.4096-2.3723-.0855-4.0927 1.5975-4.1906 4.0962z"/><path d="m110.029 20.4646h-1.968c-.02-.3811-.048-.6981-.05-1.0152-.009-1.8967.018-3.7952-.021-5.6901-.039-1.838-1.001-2.9867-2.527-3.1167-1.714-.146-2.987.8085-3.347 2.6162-.148.7462-.139 1.5299-.149 2.2957-.022 1.5975-.006 3.195-.006 4.8869h-1.854v-11.06507h1.783c.043.36688.08.68387.126 1.08817.198-.1514.358-.2582.501-.3865 2.597-2.30453 6.675-1.09348 7.184 2.3153.39 2.6109.235 5.3037.328 8.0695z"/><path d="m65.1897 18.9986v1.3037c-2.5646 1.154-4.8211-.1799-4.9137-2.9208-.0605-1.7774-.0213-3.5566-.0249-5.3358 0-.3205 0-.6411 0-1.0294-.4951-.0801-.919-.1478-1.4016-.2261v-1.40344l1.3927-.16741v-3.41588h1.8754v3.47287h2.9189v1.62246h-2.9154c0 1.2039-.0107 2.2618.0036 3.3215.0142 1.0953-.0071 2.1959.0961 3.2841.1122 1.1808.57 1.5102 1.7721 1.4942.3776-.0053.7551 0 1.1986 0z"/><path d="m81.4392 4.58175h1.7507v15.87545h-1.7507z"/></g></svg>