<svg width="103" height="32" viewBox="0 0 103 32" fill="none" xmlns="http://www.w3.org/2000/svg">
<path d="M7.59308 16.6786C7.35289 16.4448 7.03094 16.314 6.69576 16.314C6.36058 16.314 6.03864 16.4448 5.79845 16.6786L0.330958 22.1461C0.111088 22.3876 -0.00730937 22.7045 0.000349711 23.031C0.00800879 23.3576 0.141136 23.6686 0.372088 23.8995C0.603041 24.1305 0.914072 24.2636 1.2406 24.2713C1.56712 24.2789 1.88406 24.1605 2.12558 23.9407L6.70863 19.3866L11.2724 23.9471C11.5139 24.167 11.8308 24.2854 12.1574 24.2777C12.4839 24.2701 12.7949 24.1369 13.0259 23.906C13.2568 23.675 13.39 23.364 13.3976 23.0375C13.4053 22.7109 13.2869 22.394 13.067 22.1525L7.59308 16.6786Z" fill="#F9A738"/>
<path d="M8.96003 15.3115C9.20022 15.5453 9.52216 15.6761 9.85734 15.6761C10.1925 15.6761 10.5145 15.5453 10.7547 15.3115L21.2458 4.82683C21.4796 4.58664 21.6104 4.2647 21.6104 3.92952C21.6104 3.59434 21.4796 3.27239 21.2458 3.03221C21.0056 2.79842 20.6837 2.6676 20.3485 2.6676C20.0133 2.6676 19.6914 2.79842 19.4512 3.03221L9.86377 12.6325L5.28716 8.04299C5.04715 7.81291 4.72651 7.68609 4.39405 7.68975C4.06158 7.6934 3.74381 7.82725 3.50892 8.06256C3.27403 8.29787 3.14075 8.61589 3.13769 8.94835C3.13463 9.28082 3.26202 9.60123 3.49254 9.84083L8.96003 15.3115Z" fill="#2CCCD3"/>
<path d="M12.1407 16.6882C11.9069 16.9284 11.7761 17.2503 11.7761 17.5855C11.7761 17.9207 11.9069 18.2426 12.1407 18.4828L22.6254 28.9675C22.8656 29.2013 23.1876 29.3321 23.5227 29.3321C23.8579 29.3321 24.1799 29.2013 24.42 28.9675C24.6538 28.7273 24.7846 28.4054 24.7846 28.0702C24.7846 27.735 24.6538 27.4131 24.42 27.1729L14.8326 17.5855L19.4092 13.0089C19.6291 12.7674 19.7475 12.4504 19.7399 12.1239C19.7322 11.7974 19.5991 11.4863 19.3681 11.2554C19.1372 11.0244 18.8261 10.8913 18.4996 10.8837C18.1731 10.876 17.8562 10.9944 17.6146 11.2143L12.1407 16.6882Z" fill="#B1B3B3"/>
<path d="M50.5483 9.07884C51.1061 9.07884 51.5582 8.6267 51.5582 8.06896C51.5582 7.51122 51.1061 7.05908 50.5483 7.05908C49.9906 7.05908 49.5385 7.51122 49.5385 8.06896C49.5385 8.6267 49.9906 9.07884 50.5483 9.07884Z" fill="#072551"/>
<path d="M50.5483 10.899C50.3126 10.8999 50.0868 10.9941 49.9205 11.1611C49.7541 11.3281 49.6607 11.5542 49.6607 11.7899V22.8503C49.6534 22.9716 49.671 23.0931 49.7123 23.2073C49.7537 23.3216 49.8181 23.4261 49.9013 23.5146C49.9846 23.603 50.0851 23.6735 50.1967 23.7217C50.3082 23.7699 50.4284 23.7947 50.5499 23.7947C50.6714 23.7947 50.7916 23.7699 50.9032 23.7217C51.0147 23.6735 51.1152 23.603 51.1985 23.5146C51.2818 23.4261 51.3461 23.3216 51.3875 23.2073C51.4289 23.0931 51.4465 22.9716 51.4392 22.8503V11.7899C51.4384 11.5539 51.3442 11.3278 51.1773 11.1609C51.0105 10.994 50.7843 10.8999 50.5483 10.899Z" fill="#072551"/>
<path d="M82.8548 10.899H82.8322C80.6099 10.899 79.4746 12.089 79.0597 13.2758V11.7899C79.0588 11.5539 78.9647 11.3278 78.7978 11.1609C78.6309 10.994 78.4048 10.8999 78.1688 10.899C77.9331 10.8999 77.7073 10.9941 77.5409 11.1611C77.3745 11.3281 77.2811 11.5542 77.2811 11.7899V22.8503C77.2811 23.086 77.3745 23.3122 77.5409 23.4791C77.7073 23.6461 77.9331 23.7403 78.1688 23.7412C78.2867 23.7425 78.4038 23.7204 78.5132 23.6762C78.6226 23.6321 78.7221 23.5667 78.8061 23.4839C78.8901 23.4011 78.9569 23.3025 79.0026 23.1937C79.0484 23.085 79.0721 22.9683 79.0725 22.8503V17.1352C79.0725 12.7226 81.5844 12.6004 82.8676 12.6004C82.9254 12.6005 82.9829 12.5918 83.0381 12.5747C83.2431 12.534 83.4256 12.4183 83.5498 12.2502C83.674 12.082 83.7311 11.8736 83.7098 11.6657C83.6884 11.4578 83.5903 11.2653 83.4346 11.1258C83.2788 10.9864 83.0766 10.9101 82.8676 10.9119L82.8548 10.899Z" fill="#072551"/>
<path d="M46.9106 10.8991H46.8688C44.6625 10.9152 43.5304 12.0891 43.1155 13.2726V11.79C43.1228 11.6687 43.1052 11.5472 43.0638 11.433C43.0224 11.3187 42.9581 11.2142 42.8748 11.1257C42.7915 11.0373 42.691 10.9668 42.5795 10.9186C42.4679 10.8704 42.3477 10.8456 42.2262 10.8456C42.1047 10.8456 41.9845 10.8704 41.873 10.9186C41.7614 10.9668 41.6609 11.0373 41.5776 11.1257C41.4943 11.2142 41.43 11.3187 41.3886 11.433C41.3472 11.5472 41.3296 11.6687 41.3369 11.79V22.8504C41.3296 22.9716 41.3472 23.0931 41.3886 23.2074C41.43 23.3216 41.4943 23.4261 41.5776 23.5146C41.6609 23.6031 41.7614 23.6735 41.873 23.7217C41.9845 23.7699 42.1047 23.7947 42.2262 23.7947C42.3477 23.7947 42.4679 23.7699 42.5795 23.7217C42.691 23.6735 42.7915 23.6031 42.8748 23.5146C42.9581 23.4261 43.0224 23.3216 43.0638 23.2074C43.1052 23.0931 43.1228 22.9716 43.1155 22.8504V17.1352C43.1155 12.7227 45.6273 12.6004 46.9106 12.6004C46.9729 12.6013 47.0349 12.5915 47.0939 12.5715C47.2966 12.5273 47.4757 12.4096 47.5967 12.2411C47.7177 12.0727 47.7721 11.8654 47.7493 11.6592C47.7266 11.453 47.6282 11.2626 47.4734 11.1246C47.3185 10.9866 47.118 10.9109 46.9106 10.9119V10.8991Z" fill="#072551"/>
<path d="M86.4697 7.05909C86.2699 7.05909 86.0747 7.11832 85.9086 7.22928C85.7425 7.34025 85.6131 7.49797 85.5366 7.6825C85.4602 7.86703 85.4402 8.07008 85.4792 8.26598C85.5181 8.46188 85.6143 8.64182 85.7556 8.78305C85.8968 8.92429 86.0767 9.02047 86.2726 9.05944C86.4685 9.0984 86.6716 9.0784 86.8561 9.00197C87.0406 8.92553 87.1984 8.79609 87.3093 8.63002C87.4203 8.46395 87.4795 8.2687 87.4795 8.06896C87.48 7.93623 87.4541 7.80471 87.4035 7.682C87.3529 7.55928 87.2786 7.44779 87.1847 7.35393C87.0908 7.26007 86.9793 7.18569 86.8566 7.13509C86.7339 7.08449 86.6024 7.05866 86.4697 7.05909Z" fill="#072551"/>
<path d="M86.4699 10.899C86.2342 10.8999 86.0084 10.9941 85.842 11.1611C85.6756 11.3281 85.5822 11.5542 85.5822 11.7899V22.8503C85.5822 23.0857 85.6757 23.3115 85.8422 23.478C86.0087 23.6445 86.2345 23.738 86.4699 23.738C86.7053 23.738 86.9311 23.6445 87.0976 23.478C87.264 23.3115 87.3575 23.0857 87.3575 22.8503V11.7899C87.3575 11.5542 87.2641 11.3281 87.0977 11.1611C86.9314 10.9941 86.7056 10.8999 86.4699 10.899Z" fill="#072551"/>
<path d="M61.162 22.3776C61.0377 22.29 60.8895 22.2428 60.7374 22.2425H60.5702C58.7884 22.2618 57.1514 21.9691 57.1514 18.2287V13.0829H60.419C60.6364 13.0855 60.8461 13.0027 61.003 12.8524C61.16 12.702 61.2517 12.4961 61.2584 12.2788C61.2598 12.0744 61.1836 11.877 61.0451 11.7265C60.9066 11.5761 60.7162 11.4838 60.5123 11.4684C60.4738 11.4651 60.435 11.4651 60.3965 11.4684H57.145V9.65765C57.1455 9.47536 57.09 9.29732 56.9858 9.14771C56.8817 8.9981 56.734 8.88419 56.5628 8.82145C56.46 8.78284 56.351 8.76322 56.2412 8.76356C56.1237 8.76313 56.0072 8.78597 55.8986 8.83075C55.7899 8.87553 55.6912 8.94137 55.608 9.02448C55.5249 9.10759 55.4591 9.20632 55.4143 9.31499C55.3695 9.42366 55.3467 9.54012 55.3471 9.65765V11.4651H54.1314C53.9457 11.4645 53.7657 11.5294 53.6232 11.6485C53.6232 11.6485 53.6233 11.6485 53.6072 11.6645C53.5157 11.7442 53.4431 11.8433 53.3947 11.9546C53.3463 12.0659 53.3233 12.1865 53.3274 12.3078C53.3374 12.5228 53.4305 12.7255 53.5871 12.8731C53.7437 13.0207 53.9516 13.1017 54.1668 13.0989H55.3536V18.3156C55.3536 22.2908 56.8877 23.7412 60.062 23.7412H60.7053C60.8062 23.7421 60.9063 23.723 60.9999 23.6852C61.0935 23.6474 61.1787 23.5914 61.2507 23.5207C61.3227 23.4499 61.38 23.3656 61.4194 23.2727C61.4588 23.1797 61.4795 23.08 61.4804 22.979C61.4791 22.8828 61.4588 22.7879 61.4207 22.6996C61.3827 22.6113 61.3275 22.5314 61.2584 22.4644C61.2307 22.4309 61.1982 22.4017 61.162 22.3776Z" fill="#072551"/>
<path d="M101.184 10.8992C100.949 10.9009 100.724 10.9955 100.558 11.1624C100.392 11.3293 100.299 11.5549 100.299 11.7901V12.89C99.4151 11.9611 98.2727 11.3185 97.0197 11.0451C95.7667 10.7717 94.4605 10.88 93.2697 11.3562C92.0789 11.8324 91.0581 12.6544 90.339 13.7164C89.62 14.7783 89.2357 16.0314 89.2357 17.3138C89.2357 18.5963 89.62 19.8494 90.339 20.9113C91.0581 21.9732 92.0789 22.7953 93.2697 23.2715C94.4605 23.7476 95.7667 23.856 97.0197 23.5826C98.2727 23.3092 99.4151 22.6666 100.299 21.7377V22.8505C100.292 22.9717 100.31 23.0932 100.351 23.2075C100.392 23.3217 100.457 23.4263 100.54 23.5147C100.623 23.6032 100.724 23.6736 100.835 23.7218C100.947 23.77 101.067 23.7949 101.189 23.7949C101.31 23.7949 101.43 23.77 101.542 23.7218C101.653 23.6736 101.754 23.6032 101.837 23.5147C101.92 23.4263 101.985 23.3217 102.026 23.2075C102.068 23.0932 102.085 22.9717 102.078 22.8505V11.7901C102.077 11.5535 101.982 11.3269 101.815 11.1599C101.647 10.9929 101.42 10.8992 101.184 10.8992ZM95.6616 21.9596C94.7446 21.9596 93.8482 21.6878 93.0857 21.1784C92.3231 20.6691 91.7287 19.9452 91.3775 19.0981C91.0263 18.2511 90.9341 17.3189 91.1125 16.4195C91.2909 15.52 91.732 14.6936 92.3799 14.0448C93.0279 13.3959 93.8536 12.9537 94.7529 12.7741C95.6521 12.5944 96.5843 12.6853 97.4319 13.0353C98.2794 13.3854 99.0042 13.9788 99.5146 14.7406C100.025 15.5024 100.298 16.3985 100.299 17.3154C100.3 17.925 100.181 18.5288 99.9481 19.0922C99.7154 19.6556 99.3739 20.1676 98.9432 20.599C98.5125 21.0303 98.0009 21.3725 97.4378 21.606C96.8747 21.8394 96.2711 21.9596 95.6616 21.9596Z" fill="#072551"/>
<path d="M32.8658 8.98856C34.4653 8.98529 36.0087 9.5781 37.1947 10.6513C37.3872 10.8057 37.6315 10.8805 37.8774 10.8604C38.1233 10.8402 38.3521 10.7266 38.5168 10.543C38.6816 10.3593 38.7697 10.1195 38.7631 9.87285C38.7564 9.62621 38.6556 9.39148 38.4812 9.21691C37.2745 8.12964 35.7784 7.41552 34.1742 7.16102C32.57 6.90651 30.9264 7.12254 29.4424 7.78295C27.9584 8.44335 26.6977 9.51981 25.813 10.882C24.9282 12.2441 24.4573 13.8336 24.4573 15.4579C24.4573 17.0822 24.9282 18.6716 25.813 20.0338C26.6977 21.396 27.9584 22.4724 29.4424 23.1328C30.9264 23.7932 32.57 24.0093 34.1742 23.7548C35.7784 23.5002 37.2745 22.7861 38.4812 21.6989C38.5835 21.6168 38.668 21.5147 38.7295 21.3988C38.791 21.283 38.8283 21.1558 38.839 21.0251C38.8497 20.8944 38.8337 20.7628 38.7918 20.6385C38.75 20.5142 38.6832 20.3997 38.5957 20.3021C38.5081 20.2045 38.4015 20.1257 38.2825 20.0706C38.1634 20.0155 38.0344 19.9853 37.9033 19.9818C37.7722 19.9783 37.6417 20.0015 37.5199 20.0501C37.3981 20.0987 37.2874 20.1716 37.1947 20.2644C36.4148 20.9679 35.4754 21.471 34.4576 21.7302C33.4398 21.9895 32.3743 21.997 31.3529 21.7523C30.3315 21.5076 29.385 21.018 28.5952 20.3257C27.8054 19.6334 27.1959 18.7592 26.8195 17.7787C26.443 16.7982 26.3109 15.7408 26.4346 14.6978C26.5582 13.6548 26.9338 12.6576 27.5291 11.7923C28.1243 10.9269 28.9212 10.2195 29.851 9.731C30.7808 9.24253 31.8155 8.98771 32.8658 8.98856Z" fill="#072551"/>
<path d="M68.5621 10.9054C67.7164 10.8888 66.8759 11.0429 66.091 11.3585C65.3062 11.6741 64.593 12.1447 63.994 12.7421C63.3951 13.3395 62.9228 14.0515 62.6052 14.8356C62.2877 15.6197 62.1314 16.4597 62.1459 17.3056C62.1459 21.1264 64.9214 23.7379 68.7776 23.7379C70.4357 23.7686 72.0597 23.2645 73.4089 22.3003C73.5047 22.2269 73.5816 22.1317 73.633 22.0226C73.6845 21.9135 73.7091 21.7937 73.7048 21.6731C73.7052 21.5682 73.6849 21.4643 73.645 21.3674C73.605 21.2704 73.5463 21.1823 73.4721 21.1082C73.398 21.034 73.3099 20.9753 73.2129 20.9353C73.116 20.8954 73.0121 20.8751 72.9072 20.8755C72.7192 20.8761 72.5373 20.9421 72.3926 21.062C71.3953 21.7812 70.197 22.1683 68.9674 22.1684C66.1629 22.1684 64.2589 20.2387 64.0981 17.9424H73.7723C73.991 17.9341 74.2048 17.8746 74.3963 17.7687C74.5266 17.6798 74.6332 17.5603 74.7066 17.4207C74.7801 17.2811 74.8182 17.1256 74.8176 16.9679V16.9453C74.8176 13.7646 72.4827 10.9054 68.5621 10.9054ZM72.9972 16.4468H64.1045C64.2058 15.3475 64.7187 14.3269 65.5406 13.5898C66.3624 12.8526 67.4325 12.4532 68.5364 12.4717C71.431 12.4717 72.9201 14.6426 72.9972 16.4436V16.4468Z" fill="#072551"/>
</svg>
