<svg width="85" height="61" viewBox="0 0 85 61" fill="none" xmlns="http://www.w3.org/2000/svg">
<path d="M7.95352 28.6633C7.26846 28.7701 6.57795 28.7857 5.88198 28.71C5.18601 28.6343 4.60419 28.4751 4.13652 28.2322L4.62796 26.4057C5.11731 26.6189 5.62234 26.7638 6.14304 26.8405C6.67097 26.9072 7.18755 26.9012 7.69277 26.8225C8.20656 26.7423 8.58979 26.6124 8.84244 26.4327C9.09376 26.2444 9.19939 26.0218 9.15933 25.7649C9.12328 25.5337 8.96973 25.3646 8.6987 25.2578C8.42633 25.1424 7.93627 25.0653 7.22852 25.0266C6.33693 24.9902 5.632 24.8852 5.11374 24.7116C4.59414 24.5295 4.20916 24.2826 3.95879 23.9707C3.71699 23.6576 3.55803 23.257 3.48191 22.7689C3.39512 22.2123 3.47542 21.6866 3.72281 21.1919C3.96888 20.6887 4.35941 20.2681 4.89442 19.9303C5.42809 19.584 6.06315 19.3534 6.79958 19.2385C7.45894 19.1357 8.11159 19.1304 8.75751 19.2227C9.41067 19.305 9.93616 19.4687 10.334 19.7136L9.85539 21.5381C9.40886 21.3183 8.9516 21.1703 8.48361 21.0942C8.01429 21.0095 7.55699 21.0019 7.1117 21.0713C6.67498 21.1394 6.33724 21.2798 6.09849 21.4925C5.85841 21.6966 5.7604 21.9399 5.80446 22.2225C5.8285 22.3766 5.89563 22.4977 6.00585 22.5858C6.11606 22.6739 6.30763 22.7492 6.58055 22.8119C6.85214 22.8661 7.2535 22.9087 7.78465 22.9399C8.64333 22.9902 9.32818 23.1071 9.83921 23.2906C10.3575 23.4641 10.7418 23.7068 10.9922 24.0186C11.2412 24.3219 11.4024 24.709 11.4759 25.18C11.6147 26.0705 11.3774 26.8268 10.7639 27.4487C10.1491 28.0621 9.2123 28.467 7.95352 28.6633ZM18.9721 24.8925L14.9132 25.5255L14.3984 27.5398L11.9836 27.9164L14.8347 18.1039L16.7358 17.8075L22.4521 26.2839L20.0758 26.6545L18.9721 24.8925ZM17.9062 23.2036L16.2095 20.5078L15.4143 23.5922L17.9062 23.2036ZM29.7258 15.7818L26.9903 25.5762L25.0764 25.8747L19.4886 17.3782L21.9933 16.9876L25.5839 22.7168L27.2982 16.1604L29.7258 15.7818ZM30.2522 15.6997L36.7773 14.6822L37.0657 16.5318L32.8912 17.1828L33.1596 18.904L37.0644 18.2951L37.3528 20.1447L33.448 20.7536L33.7405 22.629L37.915 21.978L38.2035 23.8276L31.6783 24.8452L30.2522 15.6997ZM49.5623 20.0959L49.8608 22.0098L43.5155 22.9993L43.217 21.0854L45.1823 20.7789L44.4632 16.1677L42.7906 17.5074L42.4681 15.4394L45.0436 13.3931L46.4565 13.1728L47.5842 20.4044L49.5623 20.0959ZM53.9071 21.4972C52.7767 21.6735 51.8448 21.4065 51.1113 20.6964C50.3863 19.9849 49.905 18.8671 49.6673 17.3428C49.4336 15.8443 49.5544 14.6501 50.0296 13.7602C50.5121 12.8605 51.3185 12.3225 52.4488 12.1462C53.5792 11.97 54.5068 12.2375 55.2318 12.949C55.9639 13.6506 56.4469 14.7506 56.6806 16.2492C56.9183 17.7734 56.7959 18.9854 56.3134 19.8852C55.8395 20.7836 55.0374 21.3209 53.9071 21.4972ZM53.6246 19.6861C54.0357 19.622 54.2964 19.3533 54.4068 18.88C54.5158 18.3981 54.4902 17.6433 54.33 16.6157C54.1737 15.6139 53.971 14.9043 53.7217 14.487C53.4725 14.0698 53.1423 13.8932 52.7313 13.9573C52.3202 14.0214 52.0595 14.2901 51.9491 14.7635C51.8388 15.2368 51.8617 15.9744 52.0179 16.9763C52.1782 18.0039 52.3836 18.7306 52.6342 19.1564C52.8834 19.5736 53.2136 19.7502 53.6246 19.6861ZM59.9716 16.6307C59.2094 16.7495 58.5726 16.6032 58.0611 16.1918C57.5483 15.7718 57.2211 15.1079 57.0795 14.2003C56.9407 13.3097 57.0522 12.5906 57.4141 12.0429C57.7761 11.4953 58.3381 11.162 59.1002 11.0432C59.8624 10.9244 60.4998 11.0749 61.0127 11.4949C61.5242 11.9064 61.8494 12.5574 61.9882 13.4479C62.1298 14.3556 62.0196 15.0833 61.6577 15.6309C61.2957 16.1786 60.7337 16.5118 59.9716 16.6307ZM60.3578 20.3729L64.2493 10.3981L66.1889 10.0957L62.3102 20.0684L60.3578 20.3729ZM59.7492 15.2049C59.9547 15.1729 60.085 15.0517 60.1399 14.8414C60.1935 14.6225 60.1802 14.2562 60.1001 13.7424C60.024 13.2543 59.9228 12.9148 59.7965 12.724C59.669 12.5246 59.511 12.4396 59.3226 12.469C59.1342 12.4983 59.0096 12.6274 58.9488 12.8562C58.8952 13.0751 58.9065 13.4285 58.9826 13.9166C59.0614 14.4219 59.1596 14.7706 59.2773 14.9627C59.4035 15.1536 59.5608 15.2343 59.7492 15.2049ZM67.4364 19.3611C66.6743 19.4799 66.0418 19.333 65.5388 18.9202C65.0345 18.4989 64.7116 17.8344 64.5701 16.9267C64.4312 16.0361 64.5385 15.3177 64.8918 14.7714C65.2452 14.2251 65.803 13.8925 66.5651 13.7736C67.3358 13.6534 67.9726 13.7997 68.4755 14.2125C68.9785 14.6253 69.3 15.2812 69.4402 16.1804C69.5818 17.0881 69.4759 17.8151 69.1225 18.3614C68.7691 18.9077 68.2071 19.2409 67.4364 19.3611ZM67.2141 17.9353C67.411 17.9046 67.5363 17.7798 67.5899 17.561C67.652 17.3408 67.6437 16.978 67.5649 16.4728C67.4888 15.9847 67.3876 15.6452 67.2614 15.4544C67.1338 15.255 66.9758 15.17 66.7874 15.1994C66.599 15.2288 66.4744 15.3578 66.4136 15.5866C66.36 15.8055 66.3713 16.159 66.4474 16.6471C66.5262 17.1523 66.6244 17.501 66.7421 17.6932C66.8684 17.884 67.0257 17.9647 67.2141 17.9353Z" fill="#FFD44D"/>
<path d="M74.6122 55.791C74.1753 56.1289 73.5473 56.0487 73.2094 55.6119L67.7025 48.4933C67.3646 48.0564 67.4448 47.4284 67.8816 47.0904C68.3184 46.7525 68.9465 46.8327 69.2844 47.2695L74.1794 53.5972L80.507 48.7022C80.9439 48.3643 81.572 48.4444 81.9099 48.8813C82.2478 49.3181 82.1676 49.9462 81.7308 50.2841L74.6122 55.791ZM53.353 28.9891C52.8067 28.9077 52.4299 28.3989 52.5112 27.8527C52.5926 27.3064 53.1014 26.9296 53.6476 27.0109L53.353 28.9891ZM73.0084 54.8734C73.4879 51.1166 73.0757 45.2847 70.2936 40.0842C67.5394 34.9359 62.4331 30.3414 53.353 28.9891L53.6476 27.0109C63.3676 28.4586 69.0113 33.4474 72.0571 39.1408C75.0749 44.7819 75.5127 51.0501 74.9923 55.1266L73.0084 54.8734Z" fill="#07122B"/>
</svg>
