<svg width="81" height="87" viewBox="0 0 81 87" fill="none" xmlns="http://www.w3.org/2000/svg">
<path d="M14.6918 19.672C13.9669 19.5405 13.2917 19.3298 12.666 19.0401C12.0505 18.7434 11.548 18.4056 11.1588 18.0267L12.1559 16.3183C12.4048 16.5484 12.6839 16.7576 12.9933 16.9459C13.3026 17.1342 13.6294 17.2992 13.9736 17.4409C14.3279 17.5757 14.6927 17.6771 15.0679 17.7452C15.6307 17.8474 16.0318 17.8453 16.2713 17.739C16.5194 17.6343 16.6643 17.4668 16.706 17.2366C16.7432 17.0319 16.6993 16.861 16.5745 16.7238C16.4512 16.5781 16.1969 16.4263 15.8116 16.2683L14.3091 15.6653C13.5129 15.3446 12.9481 14.9382 12.6146 14.4461C12.2827 13.9454 12.1786 13.354 12.3024 12.6718C12.4107 12.0749 12.6621 11.5876 13.0566 11.21C13.4611 10.8254 13.9749 10.5663 14.5981 10.4328C15.2229 10.2907 15.9232 10.2901 16.6992 10.431C17.3388 10.547 17.9237 10.7457 18.454 11.0269C18.9859 11.2996 19.403 11.6219 19.7055 11.9939L18.7292 13.5872C18.433 13.278 18.0834 13.0208 17.6802 12.8155C17.2786 12.6016 16.8177 12.4475 16.2975 12.3531C15.8029 12.2634 15.4138 12.272 15.1301 12.3791C14.8565 12.4792 14.695 12.6656 14.6454 12.9385C14.6114 13.1261 14.6545 13.3013 14.7747 13.464C14.905 13.6198 15.1628 13.7767 15.5481 13.9347L17.0273 14.5203C17.825 14.8324 18.3906 15.2345 18.7241 15.7267C19.0661 16.2203 19.176 16.804 19.0537 17.4777C18.9485 18.0575 18.6944 18.5355 18.2914 18.9116C17.897 19.2892 17.3924 19.5456 16.7778 19.6807C16.1631 19.8157 15.4678 19.8128 14.6918 19.672ZM18.6964 20.2535L24.5541 12.0019L26.4727 12.3501L29.0827 22.1385L26.7164 21.709L26.0795 19.0302L26.8693 19.8474L21.5738 18.8863L22.5876 18.3965L21.0628 20.683L18.6964 20.2535ZM25.0595 14.604L22.9153 17.9011L22.6663 17.2349L26.414 17.9151L25.9852 18.4582L25.1235 14.6156L25.0595 14.604ZM31.7963 22.631L29.3398 12.8704L31.8725 13.3301L33.5445 20.7154L32.841 20.5877L36.9889 14.2587L39.432 14.7021L33.7022 22.9769L31.7963 22.631ZM38.3712 23.8243L40.0079 14.8066L46.4801 15.9812L46.1528 17.7848L41.9446 17.021L41.6312 18.7478L45.5324 19.4559L45.2028 21.2722L41.3015 20.5641L40.9649 22.4188L45.1732 23.1826L44.8435 24.9989L38.3712 23.8243ZM49.8141 25.9011L50.1275 24.1743L53.3825 21.8187C53.777 21.5379 54.0699 21.2828 54.2613 21.0533C54.4527 20.8238 54.5724 20.5768 54.6204 20.3125C54.6792 19.9885 54.6124 19.7253 54.4201 19.523C54.2363 19.3223 53.9398 19.1848 53.5305 19.1105C53.1894 19.0486 52.8281 19.0491 52.4468 19.1121C52.0755 19.168 51.686 19.2999 51.2783 19.5078L50.8603 17.6614C51.3168 17.4272 51.8427 17.2716 52.438 17.1947C53.0333 17.1177 53.6295 17.1334 54.2264 17.2418C55.2752 17.4321 56.0315 17.8028 56.4953 18.3538C56.9675 18.9064 57.1263 19.609 56.9715 20.4617C56.8724 21.0075 56.6494 21.5087 56.3022 21.9654C55.9652 22.4151 55.4556 22.8687 54.7736 23.3263L52.3045 24.9922L52.4136 24.391L56.4683 25.1269L56.1201 27.0455L49.8141 25.9011ZM60.4258 27.9723C59.3172 27.7711 58.538 27.2113 58.0881 26.2929C57.6483 25.3674 57.5638 24.1586 57.8346 22.6663C58.1085 21.157 58.6109 20.0634 59.3417 19.3857C60.081 18.7095 61.0049 18.472 62.1134 18.6732C63.2305 18.8759 64.0121 19.423 64.4581 20.3143C64.9041 21.2056 64.9909 22.4016 64.7185 23.9025C64.4461 25.4033 63.9372 26.5088 63.1917 27.2191C62.4563 27.9224 61.5343 28.1735 60.4258 27.9723ZM60.767 26.092C61.1763 26.1663 61.5193 25.9995 61.7959 25.5917C62.081 25.1854 62.3126 24.492 62.4906 23.5113C62.6701 22.5221 62.6954 21.8001 62.5666 21.3451C62.4479 20.8831 62.1838 20.615 61.7745 20.5407C61.3652 20.4664 61.0195 20.6239 60.7375 21.0131C60.4655 21.3954 60.2406 22.0768 60.0626 23.0574C59.883 24.0466 59.8511 24.7807 59.9668 25.2597C60.0909 25.7403 60.3577 26.0177 60.767 26.092ZM68.7733 29.342L66.8802 28.9984L73.7867 20.9371L75.6798 21.2807L68.7733 29.342ZM67.7337 25.3878C66.9662 25.2485 66.4149 24.8886 66.0799 24.3081C65.7464 23.7191 65.6555 23.0067 65.8071 22.171C65.9603 21.3268 66.2942 20.7004 66.8088 20.2917C67.3335 19.876 67.9753 19.7371 68.7342 19.8748C69.4931 20.0126 70.0401 20.3717 70.3752 20.9522C70.7103 21.5327 70.8035 22.2322 70.6549 23.0509C70.5033 23.8865 70.1678 24.5215 69.6486 24.9558C69.1309 25.3815 68.4926 25.5255 67.7337 25.3878ZM67.9844 24.0063C68.1805 24.0419 68.3483 23.9667 68.4878 23.7806C68.6373 23.5875 68.7585 23.2352 68.8514 22.7235C68.9442 22.2119 68.953 21.8479 68.8778 21.6317C68.8025 21.4154 68.6711 21.2903 68.4835 21.2562C68.2788 21.2191 68.1083 21.285 67.9719 21.4541C67.8356 21.6231 67.7194 21.972 67.6235 22.5007C67.5275 23.0294 67.5121 23.4053 67.5773 23.6286C67.644 23.8433 67.7797 23.9692 67.9844 24.0063ZM73.8258 30.4043C73.0668 30.2665 72.5198 29.9074 72.1848 29.3269C71.8513 28.7379 71.7603 28.0255 71.912 27.1899C72.0652 26.3457 72.3991 25.7192 72.9137 25.3105C73.4384 24.8949 74.0759 24.7551 74.8263 24.8913C75.5938 25.0306 76.1408 25.3897 76.4673 25.9687C76.8024 26.5492 76.8956 27.2487 76.747 28.0674C76.5954 28.9031 76.2599 29.538 75.7407 29.9723C75.2315 30.3996 74.5932 30.5436 73.8258 30.4043ZM74.0765 29.0228C74.2811 29.06 74.4532 28.9855 74.5927 28.7994C74.7337 28.6048 74.8506 28.2517 74.9435 27.74C75.0364 27.2284 75.0452 26.8645 74.9699 26.6482C74.9032 26.4335 74.7717 26.3084 74.5756 26.2728C74.3795 26.2372 74.2082 26.3074 74.0617 26.4834C73.9254 26.6524 73.81 26.997 73.7156 27.5172C73.6196 28.0459 73.6042 28.4218 73.6694 28.6451C73.7447 28.8613 73.8804 28.9872 74.0765 29.0228Z" fill="#EF457E"/>
<path d="M45.3065 36.1945C47.4431 41.3708 48.2383 47.2243 46.5005 52.5191C45.4332 55.7515 43.3864 58.5761 40.6411 60.6053C39.2746 61.6082 37.7338 62.3515 36.0962 62.798C34.2412 63.2826 32.9721 63.8657 31.0332 63.1664C29.7093 62.7542 28.4936 62.0556 27.4732 61.1207C26.4491 60.1926 25.8145 58.9146 25.696 57.5415C25.6479 56.8575 25.7807 56.173 26.0811 55.5559C26.3815 54.9387 26.8391 54.4106 27.4083 54.0239C29.1745 52.9686 31.5237 53.9862 32.4996 55.6088C33.3315 57.1254 33.6721 58.8607 33.4748 60.5774C33.2033 64.1441 31.5931 67.4788 28.9639 69.9191C23.0491 75.3664 12.1886 74.6033 5.08957 72.7977" stroke="black" stroke-width="2" stroke-linecap="round" stroke-linejoin="round"/>
<path d="M12.3527 67.3583L3.68952 72.7061L12.7747 79.232" stroke="black" stroke-width="2" stroke-linecap="round" stroke-linejoin="round"/>
</svg>
