<svg width="68" height="11" viewBox="0 0 68 11" fill="none" xmlns="http://www.w3.org/2000/svg">
<path d="M4.68551 10.1429C3.94885 10.1429 3.24685 10.0562 2.57951 9.88289C1.92085 9.70089 1.36618 9.45823 0.915512 9.15489L1.59151 7.29589C1.87751 7.47789 2.18951 7.63389 2.52751 7.76389C2.86551 7.89389 3.21651 7.99789 3.58051 8.07589C3.95318 8.14523 4.33018 8.17989 4.71151 8.17989C5.28351 8.17989 5.67785 8.10623 5.89451 7.95889C6.11985 7.81156 6.23251 7.62089 6.23251 7.38689C6.23251 7.17889 6.15885 7.01856 6.01151 6.90589C5.86418 6.78456 5.58685 6.68056 5.17951 6.59389L3.59351 6.26889C2.75285 6.09556 2.12451 5.79656 1.70851 5.37189C1.29251 4.93856 1.08451 4.37523 1.08451 3.68189C1.08451 3.07523 1.24485 2.55089 1.56551 2.10889C1.89485 1.65823 2.35418 1.31156 2.94351 1.06889C3.53285 0.817561 4.22185 0.691895 5.01051 0.691895C5.66051 0.691895 6.27151 0.782894 6.84351 0.964894C7.41551 1.13823 7.88351 1.38089 8.24751 1.69289L7.57151 3.43489C7.22485 3.18356 6.83485 2.99289 6.40151 2.86289C5.96818 2.72423 5.48718 2.65489 4.95851 2.65489C4.45585 2.65489 4.07451 2.73289 3.81451 2.88889C3.56318 3.03623 3.43751 3.24856 3.43751 3.52589C3.43751 3.71656 3.51118 3.88123 3.65851 4.01989C3.81451 4.14989 4.09618 4.25823 4.50351 4.34489L6.06351 4.65689C6.90418 4.82156 7.53251 5.11623 7.94851 5.54089C8.37318 5.96556 8.58551 6.52023 8.58551 7.20489C8.58551 7.79423 8.42085 8.30989 8.09151 8.75189C7.77085 9.19389 7.32018 9.53623 6.73951 9.77889C6.15885 10.0216 5.47418 10.1429 4.68551 10.1429Z" fill="#FFD44D"/>
<path d="M8.72963 9.9999L13.0196 0.834894H14.9696L19.2856 9.9999H16.8806L15.7756 7.47789L16.6986 8.14089H11.3166L12.2266 7.47789L11.1346 9.9999H8.72963ZM13.9816 3.30489L12.4606 6.93189L12.0966 6.32089H15.9056L15.5806 6.93189L14.0466 3.30489H13.9816Z" fill="#FFD44D"/>
<path d="M22.0436 9.9999L17.8836 0.834894H20.4576L23.4216 7.80289H22.7066L25.6576 0.834894H28.1406L23.9806 9.9999H22.0436Z" fill="#FFD44D"/>
<path d="M28.7259 9.9999V0.834894H35.3039V2.66789H31.0269V4.42289H34.9919V6.26889H31.0269V8.15389H35.3039V9.9999H28.7259Z" fill="#FFD44D"/>
<path d="M40.6547 9.9999V8.04989H42.7087V2.82389H43.8007L40.8757 4.48789V2.27789L43.3977 0.834894H45.1007V8.04989H47.0117V9.9999H40.6547Z" fill="#FFD44D"/>
<path d="M51.1666 10.1429C50.0399 10.1429 49.1733 9.73123 48.5666 8.9079C47.9686 8.0759 47.6696 6.90156 47.6696 5.38489C47.6696 3.85089 47.9686 2.68523 48.5666 1.88789C49.1733 1.09056 50.0399 0.691895 51.1666 0.691895C52.3019 0.691895 53.1686 1.09056 53.7666 1.88789C54.3646 2.68523 54.6636 3.84656 54.6636 5.37189C54.6636 6.89723 54.3603 8.0759 53.7536 8.9079C53.1556 9.73123 52.2933 10.1429 51.1666 10.1429ZM51.1666 8.23189C51.5826 8.23189 51.8903 8.00656 52.0896 7.55589C52.2976 7.10523 52.4016 6.38156 52.4016 5.38489C52.4016 4.37956 52.2976 3.66456 52.0896 3.23989C51.8903 2.80656 51.5826 2.58989 51.1666 2.58989C50.7506 2.58989 50.4386 2.80656 50.2306 3.23989C50.0313 3.66456 49.9316 4.37523 49.9316 5.37189C49.9316 6.37723 50.0313 7.10523 50.2306 7.55589C50.4386 8.00656 50.7506 8.23189 51.1666 8.23189Z" fill="#FFD44D"/>
<path d="M59.6245 9.9999H57.7005L63.0565 0.834894H64.9805L59.6245 9.9999ZM57.8955 6.29489C57.1155 6.29489 56.5089 6.03923 56.0755 5.52789C55.6422 5.00789 55.4255 4.32323 55.4255 3.47389C55.4255 2.61589 55.6422 1.93989 56.0755 1.44589C56.5175 0.943228 57.1242 0.691895 57.8955 0.691895C58.6669 0.691895 59.2692 0.947561 59.7025 1.45889C60.1359 1.97023 60.3525 2.64189 60.3525 3.47389C60.3525 4.32323 60.1359 5.00789 59.7025 5.52789C59.2692 6.03923 58.6669 6.29489 57.8955 6.29489ZM57.8955 4.89089C58.0949 4.89089 58.2465 4.78689 58.3505 4.57889C58.4632 4.36223 58.5195 3.99389 58.5195 3.47389C58.5195 2.95389 58.4632 2.59423 58.3505 2.39489C58.2379 2.19556 58.0862 2.09589 57.8955 2.09589C57.6875 2.09589 57.5315 2.19123 57.4275 2.38189C57.3235 2.57256 57.2715 2.93656 57.2715 3.47389C57.2715 4.01123 57.3235 4.38389 57.4275 4.59189C57.5315 4.79123 57.6875 4.89089 57.8955 4.89089ZM64.7855 10.1429C64.0142 10.1429 63.4119 9.88723 62.9785 9.37589C62.5452 8.85589 62.3285 8.17123 62.3285 7.32189C62.3285 6.46389 62.5452 5.78789 62.9785 5.29389C63.4205 4.79123 64.0229 4.53989 64.7855 4.53989C65.5655 4.53989 66.1679 4.79556 66.5925 5.30689C67.0259 5.81823 67.2425 6.48989 67.2425 7.32189C67.2425 8.17123 67.0259 8.85589 66.5925 9.37589C66.1679 9.88723 65.5655 10.1429 64.7855 10.1429ZM64.7855 8.73889C64.9935 8.73889 65.1495 8.63489 65.2535 8.42689C65.3575 8.21023 65.4095 7.84189 65.4095 7.32189C65.4095 6.80189 65.3532 6.44223 65.2405 6.24289C65.1365 6.04356 64.9849 5.94389 64.7855 5.94389C64.5862 5.94389 64.4302 6.04356 64.3175 6.24289C64.2135 6.43356 64.1615 6.79323 64.1615 7.32189C64.1615 7.85923 64.2135 8.23189 64.3175 8.43989C64.4302 8.63923 64.5862 8.73889 64.7855 8.73889Z" fill="#FFD44D"/>
</svg>
