<svg width="135" height="28" viewBox="0 0 135 28" fill="none" xmlns="http://www.w3.org/2000/svg">
<path fill-rule="evenodd" clip-rule="evenodd" d="M16.2878 10.7061L13.6242 1.93555L10.9607 10.7061H1.93457L9.23727 16.384L6.52694 25.3149L13.6242 19.7957L20.7215 25.3149L18.0112 16.384L25.3139 10.7061H16.2878Z" fill="#FFD44D"/>
<path fill-rule="evenodd" clip-rule="evenodd" d="M43.2715 10.4405L40.6079 1.66992L37.9443 10.4405H28.9182L36.2209 16.1184L33.5106 25.0493L40.6079 19.5301L47.7052 25.0493L44.9948 16.1184L52.2975 10.4405H43.2715Z" fill="#FFD44D"/>
<path fill-rule="evenodd" clip-rule="evenodd" d="M69.9907 10.4405L67.3271 1.66992L64.6635 10.4405H55.6375L62.9402 16.1184L60.2298 25.0493L67.3271 19.5301L74.4244 25.0493L71.7141 16.1184L79.0168 10.4405H69.9907Z" fill="#FFD44D"/>
<path fill-rule="evenodd" clip-rule="evenodd" d="M96.7099 10.4405L94.0464 1.66992L91.3828 10.4405H82.3567L89.6594 16.1184L86.9491 25.0493L94.0464 19.5301L101.144 25.0493L98.4333 16.1184L105.736 10.4405H96.7099Z" fill="#FFD44D"/>
<path fill-rule="evenodd" clip-rule="evenodd" d="M123.429 10.4405L120.766 1.66992L118.102 10.4405H109.076L116.379 16.1184L113.668 25.0493L120.766 19.5301L127.863 25.0493L125.153 16.1184L132.455 10.4405H123.429Z" fill="#D0D2D7"/>
</svg>
