<svg width="70" height="70" viewBox="0 0 70 70" fill="none" xmlns="http://www.w3.org/2000/svg">
<path d="M34.708 56.6056C49.0507 56.6056 60.6778 45.0393 60.6778 30.7715C60.6778 16.5038 49.0507 4.9375 34.708 4.9375C20.3653 4.9375 8.73828 16.5038 8.73828 30.7715C8.73828 45.0393 20.3653 56.6056 34.708 56.6056Z" fill="#F8F8F8" stroke="#07122B" stroke-width="2" stroke-linecap="round" stroke-linejoin="round"/>
<path d="M34.7079 31.2545C33.3929 31.2545 32.1076 30.8664 31.0144 30.1394C29.9213 29.4124 29.0696 28.3792 28.567 27.1704C28.0645 25.9617 27.9337 24.6318 28.1912 23.3491C28.4488 22.0664 29.083 20.8885 30.0138 19.9645C30.9446 19.0406 32.13 18.4121 33.42 18.1585C34.7099 17.905 36.0465 18.0379 37.2606 18.5404C38.4746 19.0429 39.5115 19.8923 40.24 20.9812C40.9686 22.0702 41.356 23.3496 41.3532 24.6577" stroke="#07122B" stroke-width="2" stroke-linecap="round" stroke-linejoin="round"/>
<path d="M34.7076 31.3242C36.0226 31.3215 37.3087 31.7069 38.4034 32.4316C39.498 33.1563 40.3519 34.1878 40.8571 35.3955C41.3622 36.6032 41.4957 37.9328 41.2409 39.216C40.9861 40.4993 40.3543 41.6785 39.4254 42.6044C38.4966 43.5303 37.3126 44.1613 36.0231 44.4175C34.7337 44.6737 33.3968 44.5436 32.1817 44.0436C30.9666 43.5437 29.9279 42.6964 29.1971 41.609C28.4663 40.5216 28.0762 39.2429 28.0762 37.9349" stroke="#07122B" stroke-width="2" stroke-linecap="round" stroke-linejoin="round"/>
<path d="M34.2627 12.8047V18.0462" stroke="#07122B" stroke-width="2" stroke-linecap="round" stroke-linejoin="round"/>
<path d="M34.2627 44.4336V49.6751" stroke="#07122B" stroke-width="2" stroke-linecap="round" stroke-linejoin="round"/>
<path d="M58.8725 48.8867H44.7715C43.6669 48.8867 42.7715 49.7822 42.7715 50.8867V62.9293C42.7715 64.0338 43.6669 64.9293 44.7715 64.9293H58.8725C59.977 64.9293 60.8725 64.0338 60.8725 62.9293V50.8867C60.8725 49.7821 59.977 48.8867 58.8725 48.8867Z" fill="#F8F8F8" stroke="#07122B" stroke-width="2" stroke-linecap="round" stroke-linejoin="round"/>
<path d="M51.7109 40.8674C52.41 40.8619 53.1033 40.9941 53.7507 41.2565C54.3982 41.5188 54.987 41.9061 55.4833 42.3959C55.9796 42.8857 56.3735 43.4685 56.6423 44.1105C56.9111 44.7525 57.0495 45.441 57.0494 46.1365V48.7365H46.4141V46.1365C46.4141 45.4445 46.5511 44.7594 46.8173 44.1201C47.0835 43.4808 47.4736 42.8999 47.9655 42.4106C48.4573 41.9214 49.0412 41.5332 49.6839 41.2684C50.3265 41.0036 51.0153 40.8674 51.7109 40.8674Z" fill="#F8F8F8" stroke="#07122B" stroke-width="2" stroke-linecap="round" stroke-linejoin="round"/>
<path d="M51.9183 57.0608C52.9702 57.0608 53.8229 56.2126 53.8229 55.1662C53.8229 54.1198 52.9702 53.2715 51.9183 53.2715C50.8664 53.2715 50.0137 54.1198 50.0137 55.1662C50.0137 56.2126 50.8664 57.0608 51.9183 57.0608Z" fill="#F8F8F8" stroke="#07122B" stroke-width="2" stroke-linecap="round" stroke-linejoin="round"/>
<path d="M51.9043 60.1858V57.2539" stroke="#07122B" stroke-width="2" stroke-linecap="round" stroke-linejoin="round"/>
</svg>
