<svg width="70" height="70" viewBox="0 0 70 70" fill="none" xmlns="http://www.w3.org/2000/svg">
<path d="M54.7422 59.6819C54.261 60.16 53.5703 60.3615 52.9074 60.2173L42.7975 58.0175C42.1272 57.8717 41.5785 57.3925 41.3436 56.748L34.1923 37.1235C33.6147 35.5386 35.138 33.9945 36.7306 34.5505L56.5773 41.4789C57.2043 41.6978 57.6818 42.2137 57.8516 42.8558L60.4336 52.618C60.6163 53.3088 60.4166 54.0446 59.9096 54.5482L54.7422 59.6819Z" fill="#F8F8F8" stroke="#07122B" stroke-width="2" stroke-linecap="round" stroke-linejoin="round"/>
<path d="M54.5004 60.949L57.2026 63.6516C57.9859 64.4351 59.2623 64.4378 60.049 63.6577L63.9697 59.7701C64.7516 58.9947 64.7543 57.7383 63.9757 56.9596L61.0005 53.9842" stroke="#07122B" stroke-width="2" stroke-linecap="round" stroke-linejoin="round"/>
<path d="M35 35.2754L48.8377 49.1135" stroke="#07122B" stroke-width="2" stroke-linecap="round" stroke-linejoin="round"/>
<path d="M10.0137 38.5919L38.6857 10.1484" stroke="#07122B" stroke-width="2" stroke-linecap="round" stroke-linejoin="round"/>
<path d="M24.3494 53.9617C20.4978 50.0518 18.3561 44.7937 18.389 39.3281C18.422 33.8625 20.6268 28.6301 24.5253 24.7661C28.4238 20.9021 33.7015 18.7181 39.2135 18.6878C44.7255 18.6575 50.0272 20.7835 53.9686 24.6044" stroke="#07122B" stroke-width="2" stroke-linecap="round" stroke-linejoin="round"/>
<path d="M23.3585 20.2209L20.3165 23.2373C19.9244 23.6262 19.9244 24.2566 20.3165 24.6455L23.621 27.9221C24.0131 28.311 24.649 28.311 25.0411 27.9221L28.0831 24.9058C28.4753 24.5169 28.4753 23.8864 28.0831 23.4976L24.7787 20.2209C24.3865 19.8321 23.7507 19.8321 23.3585 20.2209Z" fill="#F8F8F8" stroke="#07122B" stroke-width="2" stroke-linecap="round" stroke-linejoin="round"/>
<path d="M41.0289 11.5199C42.9164 11.5199 44.4465 10.0026 44.4465 8.13103C44.4465 6.25943 42.9164 4.74219 41.0289 4.74219C39.1414 4.74219 37.6113 6.25943 37.6113 8.13103C37.6113 10.0026 39.1414 11.5199 41.0289 11.5199Z" fill="#F8F8F8" stroke="#07122B" stroke-width="2" stroke-linecap="round" stroke-linejoin="round"/>
<path d="M7.91565 44.3539C9.80314 44.3539 11.3332 42.8366 11.3332 40.965C11.3332 39.0934 9.80314 37.5762 7.91565 37.5762C6.02816 37.5762 4.49805 39.0934 4.49805 40.965C4.49805 42.8366 6.02816 44.3539 7.91565 44.3539Z" fill="#F8F8F8" stroke="#07122B" stroke-width="2" stroke-linecap="round" stroke-linejoin="round"/>
<path d="M25.5216 53.2112L22.4796 56.2275C22.0874 56.6164 22.0874 57.2469 22.4796 57.6358L25.5216 60.6521C25.9137 61.041 26.5496 61.041 26.9417 60.6521L29.9837 57.6358C30.3759 57.2469 30.3759 56.6164 29.9837 56.2275L26.9417 53.2112C26.5496 52.8223 25.9137 52.8223 25.5216 53.2112Z" fill="#F8F8F8" stroke="#07122B" stroke-width="2" stroke-linecap="round" stroke-linejoin="round"/>
<path d="M55.6143 23.3616L52.5724 26.3779C52.1802 26.7668 52.1802 27.3973 52.5724 27.7861L55.6143 30.8025C56.0065 31.1914 56.6424 31.1914 57.0345 30.8025L60.0765 27.7861C60.4686 27.3973 60.4686 26.7668 60.0765 26.3779L57.0345 23.3616C56.6423 22.9727 56.0065 22.9727 55.6143 23.3616Z" fill="#F8F8F8" stroke="#07122B" stroke-width="2" stroke-linecap="round" stroke-linejoin="round"/>
</svg>
