<svg width="70" height="70" viewBox="0 0 70 70" fill="none" xmlns="http://www.w3.org/2000/svg">
<path d="M13.1641 62.0495C13.1641 57.9498 14.7808 54.0178 17.659 51.1178C20.5372 48.2178 24.4413 46.587 28.5132 46.584H40.943C45.0149 46.587 48.919 48.2178 51.7972 51.1178C54.6754 54.0178 56.2921 57.9498 56.2921 62.0495V62.0495" fill="#F8F8F8"/>
<path d="M13.1641 62.0495C13.1641 57.9498 14.7808 54.0178 17.659 51.1178C20.5372 48.2178 24.4413 46.587 28.5132 46.584H40.943C45.0149 46.587 48.919 48.2178 51.7972 51.1178C54.6754 54.0178 56.2921 57.9498 56.2921 62.0495V62.0495" stroke="#07122B" stroke-width="2" stroke-linecap="round" stroke-linejoin="round"/>
<path d="M22.5265 28.26C21.6895 28.1842 20.9006 27.8327 20.2821 27.2598C19.6636 26.6869 19.2501 25.9247 19.1054 25.0911C18.6379 21.9108 18.33 18.0759 19.3449 14.9874C20.3598 11.8989 23.9063 9.5452 26.8712 8.53483C30.3293 7.51863 33.9509 7.19103 37.5335 7.57039C40.2133 7.75409 43.0984 8.02965 45.4019 6.62891" fill="#F8F8F8"/>
<path d="M22.5265 28.26C21.6895 28.1842 20.9006 27.8327 20.2821 27.2598C19.6636 26.6869 19.2501 25.9247 19.1054 25.0911C18.6379 21.9108 18.33 18.0759 19.3449 14.9874C20.3598 11.8989 23.9063 9.5452 26.8712 8.53483C30.3293 7.51863 33.9509 7.19103 37.5335 7.57039C40.2133 7.75409 43.0984 8.02965 45.4019 6.62891" stroke="#07122B" stroke-width="2" stroke-linecap="round" stroke-linejoin="round"/>
<path d="M21.7623 33.0829C23.721 33.0829 25.3088 31.4842 25.3088 29.5121C25.3088 27.5401 23.721 25.9414 21.7623 25.9414C19.8036 25.9414 18.2158 27.5401 18.2158 29.5121C18.2158 31.4842 19.8036 33.0829 21.7623 33.0829Z" fill="#F8F8F8" stroke="#07122B" stroke-width="2" stroke-linecap="round" stroke-linejoin="round"/>
<path d="M45.0488 12.3236C46.0166 12.1521 46.9399 11.785 47.7629 11.2444C48.3554 10.7455 48.9189 10.2126 49.4506 9.64844" stroke="#07122B" stroke-width="2" stroke-linecap="round" stroke-linejoin="round"/>
<path d="M29.8477 41.7168H40.681V47.9053C40.6825 48.6215 40.5439 49.331 40.273 49.9932C40.0022 50.6555 39.6045 51.2575 39.1026 51.765C38.6006 52.2725 38.0043 52.6755 37.3477 52.951C36.6911 53.2264 35.9871 53.369 35.2757 53.3705V53.3705C33.8391 53.3705 32.4614 52.7959 31.4456 51.7732C30.4297 50.7504 29.8591 49.3632 29.8591 47.9168V41.7168H29.8477Z" fill="#F8F8F8" stroke="#07122B" stroke-width="2" stroke-linecap="round" stroke-linejoin="round"/>
<path d="M48.6403 20.4751V33.3458C48.6403 34.7505 48.3653 36.1415 47.8311 37.4391C47.2968 38.7367 46.5138 39.9156 45.5267 40.9083C44.5397 41.9011 43.368 42.6882 42.0786 43.2247C40.7892 43.7612 39.4074 44.0366 38.0122 44.0351H33.2456C30.4299 44.0351 27.7295 42.9089 25.7385 40.9043C23.7474 38.8997 22.6289 36.1808 22.6289 33.3458V20.4751H44.6605C46.5961 20.4751 48.4524 19.7009 49.8211 18.3229C51.1898 16.9448 51.9587 15.0758 51.9587 13.127" fill="#F8F8F8"/>
<path d="M48.6403 20.4751V33.3458C48.6403 34.7505 48.3653 36.1415 47.8311 37.4391C47.2968 38.7367 46.5138 39.9156 45.5267 40.9083C44.5397 41.9011 43.368 42.6882 42.0786 43.2247C40.7892 43.7612 39.4074 44.0366 38.0122 44.0351H33.2456C30.4299 44.0351 27.7295 42.9089 25.7385 40.9043C23.7474 38.8997 22.6289 36.1808 22.6289 33.3458V20.4751H44.6605C46.5961 20.4751 48.4524 19.7009 49.8211 18.3229C51.1898 16.9448 51.9587 15.0758 51.9587 13.127" stroke="#07122B" stroke-width="2" stroke-linecap="round" stroke-linejoin="round"/>
<path d="M31.1475 27.0195H31.5124" stroke="#07122B" stroke-width="2" stroke-linecap="round" stroke-linejoin="round"/>
<path d="M39.0273 27.0195H39.3923" stroke="#07122B" stroke-width="2" stroke-linecap="round" stroke-linejoin="round"/>
<path d="M31.877 34.8047C31.877 34.8047 35.7085 37.101 38.8103 34.8047Z" fill="#F8F8F8"/>
<path d="M31.877 34.8047C31.877 34.8047 35.7085 37.101 38.8103 34.8047" stroke="#07122B" stroke-width="2" stroke-linecap="round" stroke-linejoin="round"/>
<path d="M50.1113 63.371V47.8596L57.1701 34.9199L64.4455 47.8596V63.1529" fill="#F8F8F8"/>
<path d="M50.1113 63.371V47.8596L57.1701 34.9199L64.4455 47.8596V63.1529" stroke="#07122B" stroke-width="2" stroke-linecap="round" stroke-linejoin="round"/>
<path d="M50.9668 47.8359C52.5975 47.8359 52.5975 50.1322 54.2282 50.1322C55.8589 50.1322 55.8703 47.8359 57.501 47.8359C59.1317 47.8359 59.1317 50.1322 60.7738 50.1322C62.4159 50.1322 62.4159 47.8359 64.0466 47.8359" fill="#F8F8F8"/>
<path d="M50.9668 47.8359C52.5975 47.8359 52.5975 50.1322 54.2282 50.1322C55.8589 50.1322 55.8703 47.8359 57.501 47.8359C59.1317 47.8359 59.1317 50.1322 60.7738 50.1322C62.4159 50.1322 62.4159 47.8359 64.0466 47.8359" stroke="#07122B" stroke-width="2" stroke-linecap="round" stroke-linejoin="round"/>
<path d="M55 40.5H60" stroke="#07122B" stroke-width="2" stroke-linecap="round" stroke-linejoin="round"/>
<path d="M7.54265 16.2969H12.2637V20.7287C12.2637 21.2616 12.0535 21.7727 11.6792 22.1495C11.305 22.5263 10.7974 22.738 10.2681 22.738H9.52686C8.99759 22.738 8.49 22.5263 8.11575 22.1495C7.7415 21.7727 7.53125 21.2616 7.53125 20.7287V16.2969H7.54265Z" fill="#F8F8F8" stroke="#07122B" stroke-width="2" stroke-linecap="round" stroke-linejoin="round"/>
<path d="M10.0855 18.9246C8.5698 18.884 7.12394 18.2746 6.03165 17.2159C4.93936 16.1571 4.27952 14.7256 4.18163 13.2022C4.08375 11.6789 4.55489 10.1737 5.50258 8.98206C6.45028 7.79046 7.80609 6.99851 9.30391 6.76164C10.8017 6.52477 12.3334 6.86009 13.5983 7.70179C14.8632 8.54349 15.77 9.83078 16.1406 11.311C16.5113 12.7912 16.3191 14.3575 15.6018 15.7024C14.8845 17.0473 13.6938 18.0737 12.2635 18.5802" fill="#F8F8F8"/>
<path d="M10.0855 18.9246C8.5698 18.884 7.12394 18.2746 6.03165 17.2159C4.93936 16.1571 4.27952 14.7256 4.18163 13.2022C4.08375 11.6789 4.55489 10.1737 5.50258 8.98206C6.45028 7.79046 7.80609 6.99851 9.30391 6.76164C10.8017 6.52477 12.3334 6.86009 13.5983 7.70179C14.8632 8.54349 15.77 9.83078 16.1406 11.311C16.5113 12.7912 16.3191 14.3575 15.6018 15.7024C14.8845 17.0473 13.6938 18.0737 12.2635 18.5802" stroke="#07122B" stroke-width="2" stroke-linecap="round" stroke-linejoin="round"/>
</svg>
