<svg width="70" height="70" viewBox="0 0 70 70" fill="none" xmlns="http://www.w3.org/2000/svg">
<g clip-path="url(#clip0_13024_118298)">
<path d="M52.6498 47.9499C52.3703 47.9512 52.0995 47.8533 51.8855 47.6734L42.9906 40.4697C42.8508 40.3538 42.7382 40.2084 42.6609 40.044C42.5836 39.8796 42.5435 39.7001 42.5435 39.5185V19.5985C42.5435 19.275 42.6719 18.9648 42.9007 18.7361C43.1294 18.5074 43.4396 18.3789 43.763 18.3789C44.0865 18.3789 44.3967 18.5074 44.6254 18.7361C44.8541 18.9648 44.9826 19.275 44.9826 19.5985V38.9412L53.4222 45.779C53.623 45.9396 53.7678 46.1596 53.8361 46.4074C53.9044 46.6553 53.8926 46.9184 53.8025 47.1591C53.7123 47.3999 53.5483 47.606 53.334 47.748C53.1197 47.89 52.866 47.9607 52.6091 47.9499H52.6498Z" fill="#07122B"/>
<path fill-rule="evenodd" clip-rule="evenodd" d="M45.7802 56.5142C57.9033 56.5142 67.731 46.6865 67.731 34.5634C67.731 22.4403 57.9033 12.6126 45.7802 12.6126C33.6571 12.6126 23.8294 22.4403 23.8294 34.5634C23.8294 46.6865 33.6571 56.5142 45.7802 56.5142ZM45.7802 58.7831C59.1563 58.7831 69.9999 47.9395 69.9999 34.5634C69.9999 21.1873 59.1563 10.3438 45.7802 10.3438C32.4041 10.3438 21.5605 21.1873 21.5605 34.5634C21.5605 47.9395 32.4041 58.7831 45.7802 58.7831Z" fill="#07122B"/>
<path d="M5.54932 16.0654C5.54932 15.3357 6.14085 14.7441 6.87054 14.7441H17.1761C17.9058 14.7441 18.4973 15.3357 18.4973 16.0654V16.0654C18.4973 16.7951 17.9058 17.3866 17.1761 17.3866H6.87054C6.14085 17.3866 5.54932 16.7951 5.54932 16.0654V16.0654Z" fill="#07122B"/>
<path d="M5.54932 53.0595C5.54932 52.3298 6.14085 51.7383 6.87054 51.7383H17.1761C17.9058 51.7383 18.4973 52.3298 18.4973 53.0595V53.0595C18.4973 53.7892 17.9058 54.3807 17.1761 54.3807H6.87054C6.14085 54.3807 5.54932 53.7892 5.54932 53.0595V53.0595Z" fill="#07122B"/>
<path d="M0 34.5634C0 33.8337 0.591531 33.2422 1.32122 33.2422H11.6268C12.3564 33.2422 12.948 33.8337 12.948 34.5634V34.5634C12.948 35.2931 12.3564 35.8846 11.6268 35.8846H1.32122C0.591531 35.8846 0 35.2931 0 34.5634V34.5634Z" fill="#07122B"/>
</g>
<defs>
<clipPath id="clip0_13024_118298">
<rect width="70" height="70" fill="white"/>
</clipPath>
</defs>
</svg>
